M48
;GenerationSoftware,Autodesk,EAGLE,9.6.2*%
;CreationDate,2020-11-23T11:20:32Z*%
FMAT,2
ICI,OFF
METRIC,TZ,000.000
T6C0.350
T5C0.550
T4C0.800
T3C0.813
T2C1.016
T1C1.400
%
G90
M71
T1
X95000Y66410
X95000Y48940
X95000Y62910
X95000Y52440
T2
X75280Y22800
X70200Y22800
X18540Y96000
X16000Y96000
X54960Y22800
X57500Y22800
X60040Y22800
X62580Y22800
X65120Y22800
X67660Y22800
X80910Y23054
X83450Y22800
X85990Y23054
X88530Y22800
X91070Y23054
X93610Y22800
X72740Y22800
X52420Y22800
T3
X54250Y5860
X96260Y41280
X77880Y96000
X61500Y61000
X72000Y96000
X47420Y5860
X84600Y96000
X64000Y90280
X22900Y79000
X22180Y85360
X64000Y96000
X64000Y79000
X2340Y75360
X45850Y90280
X30000Y54000
X22550Y96000
X10260Y96000
X64000Y84360
T4
X6680Y10520
X6680Y13060
X6680Y15600
X6680Y18140
X6680Y20680
X6680Y23220
X22580Y5860
X25120Y5860
X27660Y5860
X30200Y5860
X32740Y5860
X35280Y5860
X22580Y3320
X25120Y3320
X27660Y3320
X30200Y3320
X32740Y3320
X35280Y3320
X37820Y3320
X4460Y80930
X4460Y83470
X4460Y86010
X4460Y88550
X4460Y91090
X4460Y93630
X6680Y49820
X37820Y5860
X6680Y47280
X6680Y44740
X6680Y42200
X6680Y37120
X6680Y34580
X4140Y49820
X4140Y47280
X4140Y44740
X4140Y42200
X4140Y39660
X4140Y37120
X4140Y34580
X93000Y76980
X93000Y79520
X93000Y82060
X93000Y84600
X93000Y87140
X93000Y89680
X93000Y92220
X95540Y76980
X95540Y79520
X95540Y82060
X95540Y84600
X95540Y87140
X95540Y89680
X95540Y92220
X45000Y96000
X43000Y96000
X41000Y96000
X39000Y96000
X37000Y96000
X35000Y96000
X33000Y96000
X31000Y96000
X29000Y96000
X27000Y96000
X4140Y7980
X6680Y39660
X4140Y10520
X4140Y13060
X4140Y15600
X4140Y18140
X4140Y20680
X4140Y23220
X6680Y7980
T5
X23114Y19177
X54356Y94996
X96901Y4064
T6
X53400Y47700
X54000Y35000
X44000Y40086
X39000Y36000
X33020Y41961
X41046Y41200
X10566Y87147
X42300Y42672
X39690Y42200
X37400Y41440
X5353Y76553
X34341Y53035
X31004Y56474
X50902Y40570
X31191Y50597
X40900Y36800
X43000Y47000
X45300Y39100
X39929Y58826
X39929Y84125
X40843Y58928
X40843Y83515
X41554Y56185
X50479Y56896
X69291Y74371
X64618Y63703
X48565Y51511
X85000Y80000
X78000Y68000
X71000Y68000
X51300Y60350
X64655Y71510
X47955Y57506
X53864Y68800
X71120Y81178
X47244Y56794
X48666Y71018
X76569Y81890
X36474Y53035
X32394Y61854
X63500Y64414
X37608Y50886
X28346Y65366
X83264Y89510
X19101Y69901
X21101Y64094
X41400Y51222
X28651Y74066
X65024Y65126
X10871Y69698
X9871Y65094
X41351Y48870
X28346Y67259
X58217Y65837
X36982Y58623
X8112Y70698
X8112Y65094
X30886Y48870
X23774Y57286
X30566Y32512
X44907Y47895
X7722Y46126
X30000Y45000
X35000Y44000
X35560Y11128
X22149Y36881
X37592Y38405
X41554Y84125
X43485Y42800
X36982Y36576
X27838Y30801
X48463Y39030
X31801Y54559
X42266Y44147
X28619Y41485
X28600Y39500
X39218Y39500
X80569Y80874
X10668Y59639
X29667Y58826
X54451Y49035
X56130Y50730
X69917Y85954
X59639Y67259
X34849Y13005
X34138Y9214
X44907Y48870
X46939Y49886
X30550Y34512
X25603Y47244
X20015Y43891
X20726Y45314
X49900Y46180
X21438Y46634
M30