G04 EAGLE Gerber RS-274X export*
G75*
%MOMM*%
%FSLAX34Y34*%
%LPD*%
%INBottom Copper*%
%IPPOS*%
%AMOC8*
5,1,8,0,0,1.08239X$1,22.5*%
G01*
%ADD10P,2.749271X8X22.500000*%
%ADD11C,2.100000*%
%ADD12R,1.308000X1.308000*%
%ADD13C,1.308000*%
%ADD14C,1.879600*%
%ADD15C,1.676400*%
%ADD16C,0.508000*%
%ADD17C,0.756400*%
%ADD18C,0.254000*%
%ADD19C,0.400000*%
%ADD20C,0.609600*%

G36*
X254214Y10178D02*
X254214Y10178D01*
X254353Y10191D01*
X254372Y10198D01*
X254392Y10201D01*
X254521Y10252D01*
X254652Y10299D01*
X254669Y10310D01*
X254688Y10318D01*
X254800Y10399D01*
X254915Y10477D01*
X254929Y10493D01*
X254945Y10504D01*
X255034Y10612D01*
X255126Y10716D01*
X255135Y10734D01*
X255148Y10749D01*
X255207Y10875D01*
X255270Y10999D01*
X255275Y11019D01*
X255284Y11037D01*
X255310Y11173D01*
X255340Y11309D01*
X255340Y11330D01*
X255343Y11349D01*
X255335Y11488D01*
X255330Y11627D01*
X255325Y11647D01*
X255324Y11667D01*
X255281Y11799D01*
X255242Y11933D01*
X255232Y11950D01*
X255226Y11969D01*
X255151Y12087D01*
X255081Y12207D01*
X255062Y12228D01*
X255055Y12238D01*
X255040Y12252D01*
X254974Y12327D01*
X252612Y14690D01*
X251502Y15799D01*
X251408Y15872D01*
X251319Y15951D01*
X251283Y15969D01*
X251251Y15994D01*
X251142Y16041D01*
X251036Y16095D01*
X250997Y16104D01*
X250959Y16120D01*
X250842Y16139D01*
X250726Y16165D01*
X250685Y16164D01*
X250645Y16170D01*
X250527Y16159D01*
X250408Y16155D01*
X250369Y16144D01*
X250329Y16140D01*
X250216Y16100D01*
X250102Y16067D01*
X250067Y16047D01*
X250029Y16033D01*
X249931Y15966D01*
X249828Y15905D01*
X249783Y15866D01*
X249766Y15854D01*
X249753Y15839D01*
X249707Y15799D01*
X247116Y13207D01*
X59615Y13207D01*
X16415Y56407D01*
X16415Y403164D01*
X32964Y419712D01*
X33024Y419790D01*
X33092Y419862D01*
X33121Y419915D01*
X33158Y419963D01*
X33198Y420054D01*
X33246Y420141D01*
X33261Y420199D01*
X33285Y420255D01*
X33300Y420353D01*
X33325Y420449D01*
X33331Y420549D01*
X33335Y420569D01*
X33333Y420581D01*
X33335Y420609D01*
X33335Y423604D01*
X34563Y426568D01*
X36832Y428837D01*
X39796Y430065D01*
X43004Y430065D01*
X45968Y428837D01*
X48237Y426568D01*
X49465Y423604D01*
X49465Y420396D01*
X48237Y417432D01*
X45968Y415163D01*
X43004Y413935D01*
X39796Y413935D01*
X39793Y413936D01*
X39765Y413944D01*
X39738Y413958D01*
X39612Y413986D01*
X39486Y414020D01*
X39457Y414021D01*
X39428Y414027D01*
X39298Y414023D01*
X39168Y414025D01*
X39140Y414019D01*
X39110Y414018D01*
X38985Y413982D01*
X38859Y413951D01*
X38833Y413937D01*
X38805Y413929D01*
X38693Y413863D01*
X38578Y413803D01*
X38556Y413783D01*
X38531Y413768D01*
X38410Y413661D01*
X24916Y400168D01*
X24856Y400090D01*
X24788Y400018D01*
X24759Y399965D01*
X24722Y399917D01*
X24682Y399826D01*
X24634Y399739D01*
X24619Y399681D01*
X24595Y399625D01*
X24580Y399527D01*
X24555Y399431D01*
X24549Y399331D01*
X24545Y399311D01*
X24547Y399299D01*
X24545Y399271D01*
X24545Y60300D01*
X24557Y60202D01*
X24560Y60103D01*
X24577Y60045D01*
X24585Y59985D01*
X24621Y59892D01*
X24649Y59797D01*
X24679Y59745D01*
X24702Y59689D01*
X24760Y59609D01*
X24810Y59523D01*
X24876Y59448D01*
X24888Y59432D01*
X24898Y59424D01*
X24916Y59403D01*
X62611Y21708D01*
X62689Y21648D01*
X62761Y21580D01*
X62814Y21551D01*
X62862Y21514D01*
X62953Y21474D01*
X63039Y21426D01*
X63098Y21411D01*
X63154Y21387D01*
X63252Y21372D01*
X63347Y21347D01*
X63447Y21341D01*
X63468Y21337D01*
X63480Y21339D01*
X63508Y21337D01*
X243223Y21337D01*
X243321Y21349D01*
X243420Y21352D01*
X243478Y21369D01*
X243538Y21377D01*
X243630Y21413D01*
X243725Y21441D01*
X243777Y21471D01*
X243834Y21494D01*
X243914Y21552D01*
X243999Y21602D01*
X244075Y21668D01*
X244091Y21680D01*
X244099Y21690D01*
X244120Y21708D01*
X246764Y24352D01*
X246824Y24430D01*
X246892Y24502D01*
X246921Y24555D01*
X246958Y24603D01*
X246998Y24694D01*
X247046Y24781D01*
X247061Y24839D01*
X247085Y24895D01*
X247100Y24993D01*
X247125Y25089D01*
X247131Y25189D01*
X247135Y25209D01*
X247133Y25221D01*
X247135Y25249D01*
X247135Y25334D01*
X247123Y25432D01*
X247120Y25531D01*
X247103Y25589D01*
X247095Y25649D01*
X247059Y25741D01*
X247031Y25836D01*
X247001Y25889D01*
X246978Y25945D01*
X246920Y26025D01*
X246870Y26110D01*
X246804Y26186D01*
X246792Y26202D01*
X246782Y26210D01*
X246764Y26231D01*
X244363Y28632D01*
X243135Y31596D01*
X243135Y34804D01*
X244363Y37768D01*
X246632Y40037D01*
X249596Y41265D01*
X252804Y41265D01*
X255768Y40037D01*
X258037Y37768D01*
X259265Y34804D01*
X259265Y31596D01*
X258037Y28632D01*
X255636Y26231D01*
X255576Y26153D01*
X255508Y26081D01*
X255479Y26028D01*
X255442Y25980D01*
X255402Y25889D01*
X255354Y25802D01*
X255339Y25744D01*
X255315Y25688D01*
X255300Y25590D01*
X255275Y25494D01*
X255269Y25394D01*
X255265Y25374D01*
X255267Y25362D01*
X255265Y25334D01*
X255265Y24059D01*
X255277Y23961D01*
X255280Y23862D01*
X255297Y23804D01*
X255305Y23744D01*
X255341Y23652D01*
X255369Y23557D01*
X255399Y23505D01*
X255422Y23448D01*
X255480Y23368D01*
X255530Y23283D01*
X255596Y23207D01*
X255608Y23191D01*
X255618Y23183D01*
X255636Y23162D01*
X258360Y20438D01*
X258438Y20378D01*
X258510Y20310D01*
X258563Y20281D01*
X258611Y20244D01*
X258702Y20204D01*
X258789Y20156D01*
X258847Y20141D01*
X258903Y20117D01*
X259001Y20102D01*
X259097Y20077D01*
X259197Y20071D01*
X259217Y20067D01*
X259229Y20069D01*
X259257Y20067D01*
X385649Y20067D01*
X385747Y20079D01*
X385846Y20082D01*
X385904Y20099D01*
X385964Y20107D01*
X386056Y20143D01*
X386151Y20171D01*
X386203Y20201D01*
X386260Y20224D01*
X386340Y20282D01*
X386425Y20332D01*
X386501Y20398D01*
X386517Y20410D01*
X386525Y20420D01*
X386546Y20438D01*
X589597Y223490D01*
X589616Y223513D01*
X589638Y223532D01*
X589713Y223638D01*
X589792Y223741D01*
X589804Y223768D01*
X589821Y223792D01*
X589867Y223914D01*
X589919Y224033D01*
X589923Y224062D01*
X589934Y224090D01*
X589948Y224219D01*
X589969Y224347D01*
X589966Y224376D01*
X589969Y224406D01*
X589951Y224534D01*
X589939Y224664D01*
X589929Y224691D01*
X589925Y224721D01*
X589873Y224873D01*
X589477Y225827D01*
X589477Y230173D01*
X591140Y234187D01*
X594213Y237260D01*
X598227Y238923D01*
X602573Y238923D01*
X606587Y237260D01*
X609660Y234187D01*
X611323Y230173D01*
X611323Y225827D01*
X609660Y221813D01*
X606587Y218740D01*
X602573Y217077D01*
X598227Y217077D01*
X596504Y217791D01*
X596475Y217799D01*
X596449Y217812D01*
X596322Y217841D01*
X596197Y217875D01*
X596167Y217876D01*
X596139Y217882D01*
X596009Y217878D01*
X595879Y217880D01*
X595850Y217873D01*
X595821Y217872D01*
X595696Y217836D01*
X595570Y217806D01*
X595544Y217792D01*
X595515Y217784D01*
X595404Y217718D01*
X595289Y217657D01*
X595267Y217638D01*
X595241Y217622D01*
X595120Y217516D01*
X389932Y12327D01*
X389847Y12218D01*
X389758Y12111D01*
X389749Y12092D01*
X389737Y12076D01*
X389681Y11948D01*
X389622Y11823D01*
X389619Y11803D01*
X389611Y11784D01*
X389589Y11646D01*
X389563Y11510D01*
X389564Y11490D01*
X389561Y11470D01*
X389574Y11331D01*
X389582Y11193D01*
X389589Y11174D01*
X389591Y11154D01*
X389638Y11022D01*
X389680Y10891D01*
X389691Y10873D01*
X389698Y10854D01*
X389776Y10739D01*
X389851Y10622D01*
X389865Y10608D01*
X389877Y10591D01*
X389981Y10499D01*
X390082Y10404D01*
X390100Y10394D01*
X390115Y10381D01*
X390239Y10317D01*
X390361Y10250D01*
X390380Y10245D01*
X390398Y10236D01*
X390534Y10206D01*
X390669Y10171D01*
X390697Y10169D01*
X390709Y10166D01*
X390729Y10167D01*
X390829Y10161D01*
X988570Y10161D01*
X988688Y10176D01*
X988807Y10183D01*
X988845Y10196D01*
X988886Y10201D01*
X988996Y10244D01*
X989109Y10281D01*
X989144Y10303D01*
X989181Y10318D01*
X989277Y10387D01*
X989378Y10451D01*
X989406Y10481D01*
X989439Y10504D01*
X989515Y10596D01*
X989596Y10683D01*
X989616Y10718D01*
X989641Y10749D01*
X989692Y10857D01*
X989750Y10961D01*
X989760Y11001D01*
X989777Y11037D01*
X989799Y11154D01*
X989829Y11269D01*
X989833Y11329D01*
X989837Y11349D01*
X989835Y11370D01*
X989839Y11430D01*
X989839Y648795D01*
X989822Y648932D01*
X989809Y649071D01*
X989802Y649090D01*
X989799Y649110D01*
X989748Y649239D01*
X989701Y649370D01*
X989690Y649387D01*
X989682Y649406D01*
X989601Y649518D01*
X989523Y649633D01*
X989507Y649647D01*
X989496Y649663D01*
X989388Y649752D01*
X989284Y649844D01*
X989266Y649853D01*
X989251Y649866D01*
X989125Y649925D01*
X989001Y649988D01*
X988981Y649993D01*
X988963Y650002D01*
X988827Y650028D01*
X988691Y650058D01*
X988670Y650058D01*
X988651Y650061D01*
X988512Y650053D01*
X988373Y650048D01*
X988353Y650043D01*
X988333Y650042D01*
X988201Y649999D01*
X988067Y649960D01*
X988050Y649950D01*
X988031Y649944D01*
X987913Y649869D01*
X987793Y649799D01*
X987772Y649780D01*
X987762Y649773D01*
X987748Y649758D01*
X987673Y649692D01*
X985308Y647328D01*
X963016Y625035D01*
X962180Y625035D01*
X962151Y625032D01*
X962121Y625034D01*
X961993Y625012D01*
X961864Y624995D01*
X961837Y624985D01*
X961808Y624980D01*
X961689Y624926D01*
X961569Y624878D01*
X961545Y624861D01*
X961518Y624849D01*
X961416Y624768D01*
X961311Y624692D01*
X961292Y624669D01*
X961269Y624650D01*
X961191Y624547D01*
X961109Y624447D01*
X961096Y624420D01*
X961078Y624396D01*
X961007Y624252D01*
X960194Y622289D01*
X956811Y618906D01*
X952392Y617075D01*
X947608Y617075D01*
X943189Y618906D01*
X939806Y622289D01*
X937975Y626708D01*
X937975Y631492D01*
X939806Y635911D01*
X943189Y639294D01*
X947608Y641125D01*
X952392Y641125D01*
X956811Y639294D01*
X960266Y635839D01*
X960269Y635834D01*
X960304Y635798D01*
X960332Y635757D01*
X960414Y635684D01*
X960491Y635605D01*
X960533Y635579D01*
X960570Y635547D01*
X960668Y635497D01*
X960762Y635439D01*
X960809Y635425D01*
X960854Y635402D01*
X960961Y635378D01*
X961066Y635346D01*
X961115Y635343D01*
X961164Y635332D01*
X961274Y635336D01*
X961383Y635330D01*
X961432Y635340D01*
X961482Y635342D01*
X961587Y635373D01*
X961695Y635395D01*
X961739Y635417D01*
X961787Y635430D01*
X961882Y635486D01*
X961981Y635534D01*
X962018Y635567D01*
X962061Y635592D01*
X962182Y635698D01*
X979560Y653076D01*
X979620Y653154D01*
X979688Y653226D01*
X979717Y653279D01*
X979754Y653327D01*
X979794Y653418D01*
X979842Y653505D01*
X979857Y653563D01*
X979881Y653619D01*
X979896Y653717D01*
X979921Y653813D01*
X979927Y653913D01*
X979931Y653933D01*
X979929Y653945D01*
X979931Y653973D01*
X979931Y840563D01*
X979919Y840661D01*
X979916Y840760D01*
X979899Y840818D01*
X979891Y840878D01*
X979855Y840970D01*
X979827Y841065D01*
X979797Y841117D01*
X979774Y841174D01*
X979716Y841254D01*
X979666Y841339D01*
X979600Y841415D01*
X979588Y841431D01*
X979578Y841439D01*
X979560Y841460D01*
X958056Y862964D01*
X957978Y863024D01*
X957906Y863092D01*
X957853Y863121D01*
X957805Y863158D01*
X957714Y863198D01*
X957627Y863246D01*
X957569Y863261D01*
X957513Y863285D01*
X957415Y863300D01*
X957319Y863325D01*
X957219Y863331D01*
X957199Y863335D01*
X957187Y863333D01*
X957159Y863335D01*
X953796Y863335D01*
X950816Y864570D01*
X950748Y864623D01*
X950641Y864711D01*
X950622Y864720D01*
X950606Y864732D01*
X950478Y864788D01*
X950353Y864847D01*
X950333Y864850D01*
X950314Y864859D01*
X950177Y864880D01*
X950040Y864906D01*
X950020Y864905D01*
X950000Y864908D01*
X949862Y864895D01*
X949723Y864887D01*
X949704Y864880D01*
X949684Y864879D01*
X949553Y864832D01*
X949421Y864789D01*
X949404Y864778D01*
X949384Y864771D01*
X949270Y864693D01*
X949152Y864619D01*
X949138Y864604D01*
X949121Y864592D01*
X949030Y864489D01*
X948934Y864387D01*
X948924Y864369D01*
X948911Y864354D01*
X948848Y864230D01*
X948780Y864108D01*
X948775Y864089D01*
X948766Y864071D01*
X948736Y863935D01*
X948701Y863800D01*
X948699Y863773D01*
X948696Y863761D01*
X948697Y863740D01*
X948691Y863640D01*
X948691Y854841D01*
X948696Y854800D01*
X948693Y854760D01*
X948716Y854643D01*
X948731Y854525D01*
X948746Y854488D01*
X948753Y854448D01*
X948804Y854340D01*
X948848Y854230D01*
X948871Y854197D01*
X948889Y854160D01*
X948965Y854068D01*
X949034Y853972D01*
X949066Y853946D01*
X949092Y853915D01*
X949188Y853845D01*
X949279Y853769D01*
X949316Y853752D01*
X949349Y853728D01*
X949460Y853684D01*
X949567Y853634D01*
X949607Y853626D01*
X949645Y853611D01*
X949763Y853596D01*
X949879Y853574D01*
X949920Y853577D01*
X949960Y853572D01*
X950078Y853587D01*
X950197Y853594D01*
X950236Y853606D01*
X950276Y853612D01*
X950376Y853651D01*
X950404Y853657D01*
X950437Y853672D01*
X950499Y853692D01*
X950533Y853713D01*
X950540Y853716D01*
X950572Y853729D01*
X950593Y853742D01*
X951914Y854415D01*
X953274Y854857D01*
X953401Y854877D01*
X953401Y846730D01*
X953416Y846612D01*
X953423Y846493D01*
X953435Y846455D01*
X953441Y846415D01*
X953484Y846304D01*
X953521Y846191D01*
X953543Y846157D01*
X953558Y846119D01*
X953627Y846023D01*
X953691Y845922D01*
X953721Y845894D01*
X953744Y845862D01*
X953836Y845786D01*
X953923Y845704D01*
X953958Y845685D01*
X953989Y845659D01*
X954097Y845608D01*
X954201Y845551D01*
X954241Y845541D01*
X954277Y845523D01*
X954394Y845501D01*
X954509Y845471D01*
X954569Y845467D01*
X954589Y845464D01*
X954610Y845465D01*
X954670Y845461D01*
X954861Y845461D01*
X954861Y845270D01*
X954876Y845152D01*
X954883Y845033D01*
X954896Y844995D01*
X954901Y844954D01*
X954945Y844844D01*
X954981Y844731D01*
X955003Y844696D01*
X955018Y844659D01*
X955088Y844562D01*
X955151Y844462D01*
X955181Y844434D01*
X955205Y844401D01*
X955296Y844325D01*
X955383Y844244D01*
X955418Y844224D01*
X955450Y844199D01*
X955557Y844148D01*
X955662Y844090D01*
X955701Y844080D01*
X955737Y844063D01*
X955854Y844041D01*
X955970Y844011D01*
X956030Y844007D01*
X956050Y844003D01*
X956070Y844005D01*
X956130Y844001D01*
X964277Y844001D01*
X964257Y843874D01*
X963815Y842514D01*
X963167Y841241D01*
X962326Y840084D01*
X961316Y839074D01*
X960159Y838233D01*
X958886Y837585D01*
X957566Y837156D01*
X957477Y837114D01*
X957383Y837080D01*
X957333Y837046D01*
X957279Y837020D01*
X957202Y836957D01*
X957120Y836901D01*
X957080Y836856D01*
X957034Y836818D01*
X956975Y836737D01*
X956909Y836663D01*
X956882Y836609D01*
X956847Y836561D01*
X956810Y836468D01*
X956765Y836380D01*
X956752Y836321D01*
X956729Y836265D01*
X956717Y836166D01*
X956695Y836069D01*
X956697Y836009D01*
X956689Y835949D01*
X956702Y835851D01*
X956705Y835752D01*
X956722Y835694D01*
X956729Y835634D01*
X956766Y835541D01*
X956793Y835446D01*
X956824Y835394D01*
X956846Y835338D01*
X956904Y835258D01*
X956955Y835172D01*
X957021Y835097D01*
X957033Y835081D01*
X957042Y835073D01*
X957061Y835051D01*
X958874Y833238D01*
X958952Y833178D01*
X959024Y833110D01*
X959077Y833081D01*
X959125Y833044D01*
X959216Y833004D01*
X959303Y832956D01*
X959361Y832941D01*
X959417Y832917D01*
X959515Y832902D01*
X959611Y832877D01*
X959711Y832871D01*
X959731Y832867D01*
X959743Y832869D01*
X959771Y832867D01*
X961278Y832867D01*
X967995Y826150D01*
X967995Y764906D01*
X844438Y641349D01*
X652031Y641349D01*
X651982Y641343D01*
X651932Y641345D01*
X651825Y641323D01*
X651716Y641309D01*
X651670Y641291D01*
X651621Y641281D01*
X651522Y641233D01*
X651420Y641192D01*
X651380Y641163D01*
X651335Y641141D01*
X651252Y641070D01*
X651163Y641006D01*
X651131Y640967D01*
X651093Y640935D01*
X651030Y640845D01*
X650960Y640761D01*
X650939Y640716D01*
X650910Y640675D01*
X650871Y640572D01*
X650824Y640473D01*
X650815Y640424D01*
X650797Y640378D01*
X650785Y640268D01*
X650765Y640161D01*
X650768Y640111D01*
X650762Y640062D01*
X650778Y639953D01*
X650784Y639843D01*
X650800Y639796D01*
X650807Y639747D01*
X650859Y639594D01*
X651483Y638088D01*
X651483Y635976D01*
X650675Y634026D01*
X649182Y632533D01*
X647232Y631725D01*
X645120Y631725D01*
X643170Y632533D01*
X641838Y633866D01*
X641759Y633926D01*
X641687Y633994D01*
X641634Y634023D01*
X641586Y634060D01*
X641495Y634100D01*
X641409Y634148D01*
X641350Y634163D01*
X641294Y634187D01*
X641197Y634202D01*
X641101Y634227D01*
X641001Y634233D01*
X640980Y634237D01*
X640968Y634235D01*
X640940Y634237D01*
X601443Y634237D01*
X601345Y634225D01*
X601246Y634222D01*
X601188Y634205D01*
X601128Y634197D01*
X601036Y634161D01*
X600941Y634133D01*
X600888Y634103D01*
X600832Y634080D01*
X600752Y634022D01*
X600667Y633972D01*
X600591Y633906D01*
X600575Y633894D01*
X600567Y633884D01*
X600546Y633866D01*
X588814Y622134D01*
X588754Y622056D01*
X588686Y621984D01*
X588657Y621931D01*
X588620Y621883D01*
X588580Y621792D01*
X588532Y621705D01*
X588517Y621647D01*
X588493Y621591D01*
X588478Y621493D01*
X588453Y621397D01*
X588447Y621297D01*
X588443Y621277D01*
X588445Y621265D01*
X588443Y621237D01*
X588443Y613954D01*
X491326Y516838D01*
X491266Y516760D01*
X491198Y516688D01*
X491169Y516635D01*
X491132Y516587D01*
X491092Y516496D01*
X491044Y516409D01*
X491029Y516351D01*
X491005Y516295D01*
X490990Y516197D01*
X490965Y516101D01*
X490959Y516001D01*
X490955Y515981D01*
X490957Y515969D01*
X490955Y515941D01*
X490955Y514056D01*
X490147Y512106D01*
X488654Y510613D01*
X487627Y510188D01*
X487584Y510163D01*
X487537Y510146D01*
X487446Y510084D01*
X487350Y510030D01*
X487315Y509996D01*
X487274Y509968D01*
X487201Y509885D01*
X487122Y509809D01*
X487096Y509766D01*
X487063Y509729D01*
X487013Y509631D01*
X486956Y509538D01*
X486941Y509490D01*
X486919Y509446D01*
X486894Y509339D01*
X486862Y509234D01*
X486860Y509184D01*
X486849Y509136D01*
X486852Y509026D01*
X486847Y508916D01*
X486857Y508867D01*
X486859Y508818D01*
X486889Y508712D01*
X486911Y508605D01*
X486933Y508560D01*
X486947Y508512D01*
X487003Y508418D01*
X487051Y508319D01*
X487083Y508281D01*
X487108Y508238D01*
X487215Y508117D01*
X525273Y470060D01*
X525273Y289908D01*
X522520Y287156D01*
X354118Y118753D01*
X354033Y118644D01*
X353944Y118537D01*
X353935Y118518D01*
X353923Y118502D01*
X353867Y118374D01*
X353808Y118249D01*
X353805Y118229D01*
X353797Y118210D01*
X353775Y118072D01*
X353749Y117936D01*
X353750Y117916D01*
X353747Y117896D01*
X353760Y117757D01*
X353768Y117619D01*
X353775Y117600D01*
X353777Y117580D01*
X353824Y117448D01*
X353866Y117317D01*
X353877Y117299D01*
X353884Y117280D01*
X353962Y117165D01*
X354037Y117048D01*
X354051Y117034D01*
X354063Y117017D01*
X354167Y116925D01*
X354268Y116830D01*
X354286Y116820D01*
X354301Y116807D01*
X354425Y116743D01*
X354547Y116676D01*
X354566Y116671D01*
X354584Y116662D01*
X354720Y116632D01*
X354855Y116597D01*
X354883Y116595D01*
X354895Y116592D01*
X354915Y116593D01*
X355015Y116587D01*
X356656Y116587D01*
X358606Y115779D01*
X360099Y114286D01*
X360907Y112336D01*
X360907Y110451D01*
X360919Y110353D01*
X360922Y110254D01*
X360939Y110196D01*
X360947Y110136D01*
X360983Y110044D01*
X361011Y109949D01*
X361041Y109896D01*
X361064Y109840D01*
X361122Y109760D01*
X361172Y109675D01*
X361217Y109624D01*
X361217Y109623D01*
X361218Y109622D01*
X361238Y109599D01*
X361250Y109583D01*
X361260Y109575D01*
X361278Y109554D01*
X380995Y89838D01*
X380995Y67020D01*
X380998Y66990D01*
X380996Y66961D01*
X381018Y66833D01*
X381035Y66704D01*
X381045Y66677D01*
X381050Y66648D01*
X381104Y66529D01*
X381152Y66408D01*
X381169Y66385D01*
X381181Y66358D01*
X381262Y66256D01*
X381338Y66151D01*
X381361Y66132D01*
X381380Y66109D01*
X381483Y66031D01*
X381583Y65948D01*
X381610Y65936D01*
X381634Y65918D01*
X381778Y65847D01*
X382768Y65437D01*
X385037Y63168D01*
X386265Y60204D01*
X386265Y56996D01*
X385037Y54032D01*
X382768Y51763D01*
X379804Y50535D01*
X376596Y50535D01*
X373632Y51763D01*
X371363Y54032D01*
X370135Y56996D01*
X370135Y60204D01*
X371363Y63168D01*
X373632Y65437D01*
X374622Y65847D01*
X374647Y65862D01*
X374675Y65871D01*
X374785Y65940D01*
X374898Y66005D01*
X374919Y66025D01*
X374944Y66041D01*
X375033Y66136D01*
X375126Y66226D01*
X375142Y66251D01*
X375162Y66273D01*
X375225Y66386D01*
X375293Y66497D01*
X375301Y66525D01*
X375316Y66551D01*
X375348Y66677D01*
X375386Y66801D01*
X375388Y66830D01*
X375395Y66859D01*
X375405Y67020D01*
X375405Y86997D01*
X375393Y87095D01*
X375390Y87194D01*
X375373Y87252D01*
X375365Y87312D01*
X375329Y87404D01*
X375301Y87499D01*
X375271Y87552D01*
X375248Y87608D01*
X375190Y87688D01*
X375140Y87773D01*
X375074Y87849D01*
X375062Y87865D01*
X375052Y87873D01*
X375034Y87894D01*
X357326Y105602D01*
X357248Y105662D01*
X357176Y105730D01*
X357123Y105759D01*
X357075Y105796D01*
X356984Y105836D01*
X356897Y105884D01*
X356839Y105899D01*
X356783Y105923D01*
X356685Y105938D01*
X356589Y105963D01*
X356489Y105969D01*
X356469Y105973D01*
X356457Y105971D01*
X356429Y105973D01*
X354544Y105973D01*
X352594Y106781D01*
X351101Y108274D01*
X350293Y110224D01*
X350293Y111865D01*
X350276Y112002D01*
X350263Y112141D01*
X350256Y112160D01*
X350253Y112180D01*
X350202Y112309D01*
X350155Y112440D01*
X350144Y112457D01*
X350136Y112476D01*
X350055Y112588D01*
X349977Y112703D01*
X349961Y112717D01*
X349950Y112733D01*
X349842Y112822D01*
X349738Y112914D01*
X349720Y112923D01*
X349705Y112936D01*
X349579Y112995D01*
X349455Y113058D01*
X349435Y113063D01*
X349417Y113072D01*
X349281Y113098D01*
X349145Y113128D01*
X349124Y113128D01*
X349105Y113131D01*
X348966Y113123D01*
X348827Y113118D01*
X348807Y113113D01*
X348787Y113112D01*
X348655Y113069D01*
X348521Y113030D01*
X348504Y113020D01*
X348485Y113014D01*
X348367Y112939D01*
X348247Y112869D01*
X348226Y112850D01*
X348216Y112843D01*
X348202Y112829D01*
X348127Y112762D01*
X320412Y85048D01*
X320352Y84970D01*
X320284Y84898D01*
X320255Y84845D01*
X320218Y84797D01*
X320178Y84706D01*
X320130Y84619D01*
X320115Y84561D01*
X320091Y84505D01*
X320076Y84407D01*
X320051Y84311D01*
X320045Y84211D01*
X320041Y84191D01*
X320043Y84179D01*
X320041Y84151D01*
X320041Y65710D01*
X320058Y65572D01*
X320071Y65434D01*
X320078Y65415D01*
X320081Y65395D01*
X320132Y65266D01*
X320179Y65135D01*
X320190Y65118D01*
X320198Y65099D01*
X320279Y64987D01*
X320357Y64871D01*
X320373Y64858D01*
X320384Y64842D01*
X320492Y64753D01*
X320596Y64661D01*
X320614Y64652D01*
X320629Y64639D01*
X320755Y64580D01*
X320879Y64516D01*
X320899Y64512D01*
X320917Y64503D01*
X321054Y64477D01*
X321189Y64447D01*
X321210Y64447D01*
X321229Y64444D01*
X321368Y64452D01*
X321507Y64456D01*
X321527Y64462D01*
X321547Y64463D01*
X321679Y64506D01*
X321813Y64545D01*
X321830Y64555D01*
X321849Y64561D01*
X321967Y64636D01*
X322087Y64706D01*
X322108Y64725D01*
X322118Y64731D01*
X322132Y64746D01*
X322207Y64813D01*
X322832Y65437D01*
X323822Y65847D01*
X323847Y65862D01*
X323875Y65871D01*
X323985Y65940D01*
X324098Y66005D01*
X324119Y66025D01*
X324144Y66041D01*
X324233Y66136D01*
X324326Y66226D01*
X324342Y66251D01*
X324362Y66273D01*
X324425Y66386D01*
X324493Y66497D01*
X324501Y66525D01*
X324516Y66551D01*
X324548Y66677D01*
X324586Y66801D01*
X324588Y66830D01*
X324595Y66859D01*
X324605Y67020D01*
X324605Y79318D01*
X335698Y90410D01*
X335758Y90488D01*
X335826Y90560D01*
X335855Y90613D01*
X335892Y90661D01*
X335932Y90752D01*
X335980Y90839D01*
X335995Y90897D01*
X336019Y90953D01*
X336034Y91051D01*
X336059Y91147D01*
X336065Y91247D01*
X336069Y91267D01*
X336067Y91279D01*
X336069Y91307D01*
X336069Y93192D01*
X336877Y95142D01*
X338370Y96635D01*
X340320Y97443D01*
X342432Y97443D01*
X344382Y96635D01*
X345875Y95142D01*
X346683Y93192D01*
X346683Y91080D01*
X345875Y89130D01*
X344382Y87637D01*
X342432Y86829D01*
X340547Y86829D01*
X340449Y86817D01*
X340350Y86814D01*
X340292Y86797D01*
X340232Y86789D01*
X340140Y86753D01*
X340045Y86725D01*
X339992Y86695D01*
X339936Y86672D01*
X339856Y86614D01*
X339771Y86564D01*
X339695Y86498D01*
X339679Y86486D01*
X339671Y86476D01*
X339650Y86458D01*
X330566Y77374D01*
X330506Y77296D01*
X330438Y77224D01*
X330409Y77171D01*
X330372Y77123D01*
X330332Y77032D01*
X330284Y76945D01*
X330269Y76887D01*
X330245Y76831D01*
X330230Y76733D01*
X330205Y76637D01*
X330199Y76537D01*
X330195Y76517D01*
X330197Y76505D01*
X330195Y76477D01*
X330195Y67020D01*
X330198Y66990D01*
X330196Y66961D01*
X330218Y66833D01*
X330235Y66704D01*
X330245Y66677D01*
X330250Y66648D01*
X330304Y66529D01*
X330352Y66408D01*
X330369Y66385D01*
X330381Y66358D01*
X330462Y66256D01*
X330538Y66151D01*
X330561Y66132D01*
X330580Y66109D01*
X330683Y66031D01*
X330783Y65948D01*
X330810Y65936D01*
X330834Y65918D01*
X330978Y65847D01*
X331968Y65437D01*
X334237Y63168D01*
X335465Y60204D01*
X335465Y56996D01*
X334237Y54032D01*
X331968Y51763D01*
X329004Y50535D01*
X325796Y50535D01*
X322832Y51763D01*
X320609Y53986D01*
X320515Y54059D01*
X320426Y54137D01*
X320390Y54156D01*
X320358Y54181D01*
X320248Y54228D01*
X320143Y54282D01*
X320103Y54291D01*
X320066Y54307D01*
X319948Y54326D01*
X319832Y54352D01*
X319792Y54350D01*
X319752Y54357D01*
X319633Y54346D01*
X319514Y54342D01*
X319476Y54331D01*
X319435Y54327D01*
X319323Y54287D01*
X319209Y54254D01*
X319174Y54233D01*
X319136Y54219D01*
X319037Y54153D01*
X318935Y54092D01*
X318890Y54052D01*
X318873Y54041D01*
X318859Y54026D01*
X318814Y53986D01*
X307204Y42376D01*
X307144Y42298D01*
X307076Y42226D01*
X307047Y42173D01*
X307010Y42125D01*
X306970Y42034D01*
X306922Y41947D01*
X306907Y41889D01*
X306883Y41833D01*
X306868Y41735D01*
X306843Y41639D01*
X306837Y41539D01*
X306833Y41519D01*
X306835Y41507D01*
X306833Y41479D01*
X306833Y40298D01*
X306845Y40200D01*
X306848Y40101D01*
X306865Y40043D01*
X306873Y39983D01*
X306909Y39891D01*
X306937Y39796D01*
X306967Y39743D01*
X306990Y39687D01*
X307048Y39607D01*
X307098Y39522D01*
X307164Y39446D01*
X307176Y39430D01*
X307186Y39422D01*
X307204Y39401D01*
X308837Y37768D01*
X310065Y34804D01*
X310065Y31596D01*
X308837Y28632D01*
X306568Y26363D01*
X303604Y25135D01*
X300396Y25135D01*
X297432Y26363D01*
X295163Y28632D01*
X293935Y31596D01*
X293935Y34804D01*
X295163Y37768D01*
X297432Y40037D01*
X297920Y40239D01*
X297945Y40254D01*
X297973Y40263D01*
X298083Y40332D01*
X298196Y40397D01*
X298217Y40417D01*
X298242Y40433D01*
X298331Y40528D01*
X298424Y40618D01*
X298440Y40643D01*
X298460Y40665D01*
X298523Y40778D01*
X298591Y40889D01*
X298599Y40917D01*
X298614Y40943D01*
X298646Y41069D01*
X298684Y41193D01*
X298686Y41222D01*
X298693Y41251D01*
X298703Y41412D01*
X298703Y45372D01*
X301700Y48369D01*
X301785Y48478D01*
X301874Y48585D01*
X301883Y48604D01*
X301895Y48620D01*
X301951Y48748D01*
X302010Y48873D01*
X302013Y48893D01*
X302021Y48912D01*
X302043Y49050D01*
X302069Y49186D01*
X302068Y49206D01*
X302071Y49226D01*
X302058Y49365D01*
X302050Y49503D01*
X302043Y49522D01*
X302041Y49542D01*
X301994Y49674D01*
X301952Y49805D01*
X301941Y49823D01*
X301934Y49842D01*
X301856Y49957D01*
X301781Y50074D01*
X301767Y50088D01*
X301755Y50105D01*
X301651Y50197D01*
X301550Y50292D01*
X301532Y50302D01*
X301517Y50315D01*
X301393Y50379D01*
X301271Y50446D01*
X301252Y50451D01*
X301234Y50460D01*
X301098Y50490D01*
X300963Y50525D01*
X300935Y50527D01*
X300923Y50530D01*
X300903Y50529D01*
X300803Y50535D01*
X300396Y50535D01*
X297432Y51763D01*
X295163Y54032D01*
X293935Y56996D01*
X293935Y60204D01*
X295163Y63168D01*
X297432Y65437D01*
X300396Y66665D01*
X303604Y66665D01*
X306568Y65437D01*
X308837Y63168D01*
X309469Y61641D01*
X309504Y61581D01*
X309530Y61516D01*
X309582Y61443D01*
X309627Y61365D01*
X309675Y61315D01*
X309716Y61259D01*
X309786Y61201D01*
X309848Y61137D01*
X309908Y61100D01*
X309961Y61056D01*
X310043Y61017D01*
X310119Y60971D01*
X310186Y60950D01*
X310249Y60920D01*
X310337Y60903D01*
X310423Y60877D01*
X310493Y60874D01*
X310562Y60860D01*
X310651Y60866D01*
X310741Y60862D01*
X310809Y60876D01*
X310879Y60880D01*
X310964Y60908D01*
X311052Y60926D01*
X311115Y60957D01*
X311181Y60978D01*
X311257Y61026D01*
X311338Y61066D01*
X311391Y61111D01*
X311450Y61148D01*
X311512Y61214D01*
X311580Y61272D01*
X311620Y61329D01*
X311668Y61380D01*
X311711Y61459D01*
X311763Y61532D01*
X311788Y61598D01*
X311822Y61659D01*
X311844Y61745D01*
X311876Y61830D01*
X311884Y61899D01*
X311901Y61966D01*
X311911Y62127D01*
X311911Y86455D01*
X311894Y86592D01*
X311881Y86731D01*
X311874Y86750D01*
X311871Y86770D01*
X311820Y86899D01*
X311773Y87030D01*
X311762Y87047D01*
X311754Y87066D01*
X311673Y87178D01*
X311595Y87293D01*
X311579Y87307D01*
X311568Y87323D01*
X311460Y87412D01*
X311356Y87504D01*
X311338Y87513D01*
X311323Y87526D01*
X311197Y87585D01*
X311073Y87649D01*
X311053Y87653D01*
X311035Y87662D01*
X310899Y87688D01*
X310763Y87718D01*
X310742Y87718D01*
X310723Y87721D01*
X310584Y87713D01*
X310445Y87709D01*
X310425Y87703D01*
X310405Y87702D01*
X310273Y87659D01*
X310139Y87620D01*
X310122Y87610D01*
X310103Y87604D01*
X309985Y87529D01*
X309865Y87459D01*
X309844Y87440D01*
X309834Y87433D01*
X309820Y87419D01*
X309745Y87352D01*
X284659Y62266D01*
X284641Y62243D01*
X284618Y62224D01*
X284543Y62118D01*
X284464Y62015D01*
X284452Y61988D01*
X284435Y61964D01*
X284389Y61843D01*
X284337Y61723D01*
X284333Y61694D01*
X284322Y61666D01*
X284308Y61537D01*
X284288Y61409D01*
X284290Y61380D01*
X284287Y61350D01*
X284305Y61222D01*
X284317Y61092D01*
X284327Y61065D01*
X284331Y61035D01*
X284384Y60883D01*
X284665Y60204D01*
X284665Y56996D01*
X283437Y54032D01*
X281168Y51763D01*
X278204Y50535D01*
X274996Y50535D01*
X272032Y51763D01*
X269763Y54032D01*
X268535Y56996D01*
X268535Y60204D01*
X269763Y63168D01*
X272032Y65437D01*
X274996Y66665D01*
X278204Y66665D01*
X279505Y66126D01*
X279534Y66118D01*
X279560Y66105D01*
X279687Y66076D01*
X279812Y66042D01*
X279842Y66041D01*
X279870Y66035D01*
X280000Y66039D01*
X280130Y66037D01*
X280159Y66044D01*
X280188Y66045D01*
X280313Y66081D01*
X280439Y66111D01*
X280465Y66125D01*
X280494Y66133D01*
X280606Y66199D01*
X280720Y66260D01*
X280742Y66279D01*
X280768Y66294D01*
X280889Y66401D01*
X342810Y128322D01*
X342870Y128400D01*
X342938Y128472D01*
X342967Y128525D01*
X343004Y128573D01*
X343044Y128664D01*
X343092Y128751D01*
X343107Y128809D01*
X343131Y128865D01*
X343146Y128963D01*
X343171Y129059D01*
X343177Y129159D01*
X343181Y129179D01*
X343179Y129191D01*
X343181Y129219D01*
X343181Y131104D01*
X343989Y133054D01*
X345482Y134547D01*
X347432Y135355D01*
X349544Y135355D01*
X351494Y134547D01*
X352987Y133054D01*
X353412Y132027D01*
X353437Y131984D01*
X353454Y131937D01*
X353515Y131846D01*
X353570Y131750D01*
X353605Y131715D01*
X353632Y131674D01*
X353715Y131601D01*
X353791Y131522D01*
X353834Y131496D01*
X353871Y131463D01*
X353969Y131413D01*
X354062Y131356D01*
X354110Y131341D01*
X354154Y131319D01*
X354261Y131294D01*
X354366Y131262D01*
X354416Y131260D01*
X354464Y131249D01*
X354574Y131252D01*
X354684Y131247D01*
X354733Y131257D01*
X354782Y131259D01*
X354888Y131289D01*
X354995Y131311D01*
X355040Y131333D01*
X355088Y131347D01*
X355182Y131403D01*
X355281Y131451D01*
X355319Y131483D01*
X355362Y131508D01*
X355483Y131615D01*
X516772Y292904D01*
X516832Y292982D01*
X516900Y293054D01*
X516929Y293107D01*
X516966Y293155D01*
X517006Y293246D01*
X517054Y293333D01*
X517069Y293391D01*
X517093Y293447D01*
X517108Y293545D01*
X517133Y293641D01*
X517139Y293741D01*
X517143Y293761D01*
X517141Y293773D01*
X517143Y293801D01*
X517143Y466167D01*
X517131Y466265D01*
X517128Y466364D01*
X517111Y466422D01*
X517103Y466482D01*
X517067Y466574D01*
X517039Y466669D01*
X517009Y466721D01*
X516986Y466778D01*
X516928Y466858D01*
X516878Y466943D01*
X516812Y467019D01*
X516800Y467035D01*
X516790Y467043D01*
X516772Y467064D01*
X515247Y468588D01*
X515138Y468673D01*
X515031Y468762D01*
X515012Y468771D01*
X514996Y468783D01*
X514869Y468838D01*
X514743Y468898D01*
X514723Y468901D01*
X514704Y468909D01*
X514566Y468931D01*
X514430Y468957D01*
X514410Y468956D01*
X514390Y468959D01*
X514251Y468946D01*
X514113Y468938D01*
X514094Y468931D01*
X514074Y468929D01*
X513942Y468882D01*
X513811Y468840D01*
X513793Y468829D01*
X513774Y468822D01*
X513659Y468744D01*
X513542Y468669D01*
X513528Y468655D01*
X513511Y468643D01*
X513419Y468539D01*
X513324Y468438D01*
X513314Y468420D01*
X513301Y468405D01*
X513237Y468281D01*
X513170Y468159D01*
X513165Y468140D01*
X513156Y468122D01*
X513126Y467986D01*
X513091Y467851D01*
X513089Y467823D01*
X513086Y467811D01*
X513087Y467791D01*
X513081Y467691D01*
X513081Y409670D01*
X513093Y409571D01*
X513096Y409473D01*
X513113Y409414D01*
X513121Y409354D01*
X513157Y409262D01*
X513185Y409167D01*
X513215Y409115D01*
X513238Y409059D01*
X513296Y408979D01*
X513346Y408893D01*
X513412Y408818D01*
X513424Y408801D01*
X513434Y408793D01*
X513453Y408772D01*
X513515Y408710D01*
X514323Y406760D01*
X514323Y404648D01*
X513515Y402698D01*
X512022Y401205D01*
X510072Y400397D01*
X507960Y400397D01*
X506010Y401205D01*
X504517Y402698D01*
X504237Y403375D01*
X504202Y403436D01*
X504176Y403501D01*
X504124Y403574D01*
X504079Y403652D01*
X504031Y403702D01*
X503990Y403758D01*
X503920Y403815D01*
X503858Y403880D01*
X503798Y403916D01*
X503745Y403961D01*
X503663Y403999D01*
X503587Y404046D01*
X503520Y404067D01*
X503457Y404097D01*
X503369Y404113D01*
X503283Y404140D01*
X503213Y404143D01*
X503144Y404156D01*
X503055Y404151D01*
X502965Y404155D01*
X502897Y404141D01*
X502827Y404137D01*
X502742Y404109D01*
X502654Y404091D01*
X502591Y404060D01*
X502525Y404039D01*
X502449Y403990D01*
X502368Y403951D01*
X502315Y403906D01*
X502256Y403868D01*
X502194Y403803D01*
X502126Y403745D01*
X502086Y403688D01*
X502038Y403637D01*
X501995Y403558D01*
X501943Y403485D01*
X501918Y403419D01*
X501884Y403358D01*
X501862Y403271D01*
X501830Y403187D01*
X501822Y403118D01*
X501805Y403050D01*
X501795Y402890D01*
X501795Y370244D01*
X501795Y370242D01*
X501795Y370240D01*
X501798Y369087D01*
X500983Y368271D01*
X500982Y368270D01*
X500980Y368268D01*
X215282Y80761D01*
X215223Y80684D01*
X215156Y80613D01*
X215126Y80559D01*
X215088Y80509D01*
X215049Y80420D01*
X215002Y80335D01*
X214987Y80274D01*
X214962Y80217D01*
X214947Y80121D01*
X214923Y80027D01*
X214916Y79922D01*
X214913Y79903D01*
X214914Y79891D01*
X214913Y79866D01*
X214913Y78580D01*
X212068Y75735D01*
X74666Y75735D01*
X74568Y75723D01*
X74469Y75720D01*
X74411Y75703D01*
X74351Y75695D01*
X74259Y75659D01*
X74164Y75631D01*
X74111Y75601D01*
X74055Y75578D01*
X73975Y75520D01*
X73890Y75470D01*
X73814Y75404D01*
X73798Y75392D01*
X73790Y75382D01*
X73769Y75364D01*
X71368Y72963D01*
X68404Y71735D01*
X65196Y71735D01*
X62232Y72963D01*
X59963Y75232D01*
X58735Y78196D01*
X58735Y81404D01*
X59963Y84368D01*
X62232Y86637D01*
X65196Y87865D01*
X68404Y87865D01*
X71368Y86637D01*
X73769Y84236D01*
X73847Y84176D01*
X73919Y84108D01*
X73972Y84079D01*
X74020Y84042D01*
X74111Y84002D01*
X74198Y83954D01*
X74256Y83939D01*
X74312Y83915D01*
X74410Y83900D01*
X74506Y83875D01*
X74606Y83869D01*
X74626Y83865D01*
X74638Y83867D01*
X74666Y83865D01*
X208175Y83865D01*
X208273Y83877D01*
X208372Y83880D01*
X208430Y83897D01*
X208490Y83905D01*
X208582Y83941D01*
X208677Y83969D01*
X208729Y83999D01*
X208786Y84022D01*
X208866Y84080D01*
X208951Y84130D01*
X209027Y84196D01*
X209043Y84208D01*
X209051Y84218D01*
X209072Y84236D01*
X209164Y84329D01*
X210419Y84329D01*
X210519Y84341D01*
X210620Y84345D01*
X210677Y84361D01*
X210735Y84369D01*
X210829Y84406D01*
X210926Y84434D01*
X210976Y84464D01*
X211030Y84486D01*
X211112Y84545D01*
X211199Y84597D01*
X211271Y84660D01*
X211288Y84672D01*
X211296Y84683D01*
X211319Y84703D01*
X495836Y371022D01*
X495895Y371099D01*
X495962Y371169D01*
X495992Y371224D01*
X496030Y371274D01*
X496069Y371363D01*
X496116Y371448D01*
X496131Y371508D01*
X496156Y371566D01*
X496171Y371662D01*
X496195Y371756D01*
X496202Y371861D01*
X496205Y371880D01*
X496204Y371891D01*
X496205Y371917D01*
X496205Y374701D01*
X496188Y374838D01*
X496175Y374977D01*
X496168Y374996D01*
X496165Y375016D01*
X496114Y375145D01*
X496067Y375276D01*
X496056Y375293D01*
X496048Y375312D01*
X495967Y375424D01*
X495889Y375539D01*
X495873Y375553D01*
X495862Y375569D01*
X495754Y375658D01*
X495650Y375750D01*
X495632Y375759D01*
X495617Y375772D01*
X495491Y375831D01*
X495367Y375895D01*
X495347Y375899D01*
X495329Y375908D01*
X495193Y375934D01*
X495057Y375964D01*
X495036Y375964D01*
X495017Y375967D01*
X494878Y375959D01*
X494739Y375955D01*
X494719Y375949D01*
X494699Y375948D01*
X494567Y375905D01*
X494433Y375866D01*
X494416Y375856D01*
X494397Y375850D01*
X494279Y375775D01*
X494159Y375705D01*
X494138Y375686D01*
X494128Y375679D01*
X494114Y375665D01*
X494039Y375598D01*
X223318Y104878D01*
X221310Y102869D01*
X75412Y102869D01*
X75383Y102866D01*
X75353Y102868D01*
X75225Y102846D01*
X75096Y102829D01*
X75069Y102819D01*
X75040Y102814D01*
X74921Y102760D01*
X74801Y102712D01*
X74777Y102695D01*
X74750Y102683D01*
X74648Y102602D01*
X74543Y102526D01*
X74524Y102503D01*
X74501Y102484D01*
X74423Y102381D01*
X74341Y102281D01*
X74328Y102254D01*
X74310Y102230D01*
X74239Y102086D01*
X73637Y100632D01*
X71368Y98363D01*
X68404Y97135D01*
X65196Y97135D01*
X62232Y98363D01*
X59963Y100632D01*
X58735Y103596D01*
X58735Y106804D01*
X59963Y109768D01*
X62232Y112037D01*
X65196Y113265D01*
X68404Y113265D01*
X71368Y112037D01*
X73637Y109768D01*
X73855Y109242D01*
X73869Y109217D01*
X73879Y109189D01*
X73948Y109079D01*
X74012Y108966D01*
X74033Y108945D01*
X74049Y108920D01*
X74143Y108831D01*
X74234Y108738D01*
X74259Y108722D01*
X74280Y108702D01*
X74394Y108639D01*
X74505Y108571D01*
X74533Y108563D01*
X74559Y108548D01*
X74684Y108516D01*
X74809Y108478D01*
X74838Y108476D01*
X74867Y108469D01*
X75027Y108459D01*
X218469Y108459D01*
X218567Y108471D01*
X218666Y108474D01*
X218724Y108491D01*
X218784Y108499D01*
X218876Y108535D01*
X218971Y108563D01*
X219024Y108593D01*
X219080Y108616D01*
X219160Y108674D01*
X219245Y108724D01*
X219321Y108790D01*
X219337Y108802D01*
X219345Y108812D01*
X219366Y108830D01*
X488578Y378042D01*
X488638Y378120D01*
X488706Y378192D01*
X488735Y378245D01*
X488772Y378293D01*
X488812Y378384D01*
X488860Y378471D01*
X488875Y378529D01*
X488899Y378585D01*
X488914Y378683D01*
X488939Y378779D01*
X488945Y378879D01*
X488949Y378899D01*
X488947Y378911D01*
X488949Y378939D01*
X488949Y384449D01*
X488943Y384498D01*
X488945Y384548D01*
X488923Y384655D01*
X488909Y384764D01*
X488891Y384810D01*
X488881Y384859D01*
X488833Y384958D01*
X488792Y385060D01*
X488763Y385100D01*
X488741Y385145D01*
X488670Y385228D01*
X488606Y385317D01*
X488567Y385349D01*
X488535Y385387D01*
X488445Y385450D01*
X488361Y385520D01*
X488316Y385541D01*
X488275Y385570D01*
X488172Y385609D01*
X488073Y385656D01*
X488024Y385665D01*
X487978Y385683D01*
X487868Y385695D01*
X487761Y385715D01*
X487711Y385712D01*
X487662Y385718D01*
X487553Y385702D01*
X487443Y385696D01*
X487396Y385680D01*
X487347Y385673D01*
X487194Y385621D01*
X485688Y384997D01*
X483803Y384997D01*
X483705Y384985D01*
X483606Y384982D01*
X483548Y384965D01*
X483488Y384957D01*
X483396Y384921D01*
X483301Y384893D01*
X483248Y384863D01*
X483192Y384840D01*
X483112Y384782D01*
X483027Y384732D01*
X482951Y384666D01*
X482935Y384654D01*
X482927Y384644D01*
X482906Y384626D01*
X475790Y377509D01*
X448563Y377509D01*
X448465Y377497D01*
X448366Y377494D01*
X448308Y377477D01*
X448248Y377469D01*
X448156Y377433D01*
X448061Y377405D01*
X448008Y377375D01*
X447952Y377352D01*
X447872Y377294D01*
X447787Y377244D01*
X447711Y377178D01*
X447695Y377166D01*
X447687Y377156D01*
X447666Y377138D01*
X375742Y305213D01*
X283620Y305213D01*
X283522Y305201D01*
X283423Y305198D01*
X283364Y305181D01*
X283304Y305173D01*
X283212Y305137D01*
X283117Y305109D01*
X283065Y305079D01*
X283009Y305056D01*
X282929Y304998D01*
X282843Y304948D01*
X282768Y304882D01*
X282751Y304870D01*
X282744Y304860D01*
X282722Y304842D01*
X281390Y303509D01*
X279440Y302701D01*
X277328Y302701D01*
X275378Y303509D01*
X273885Y305002D01*
X273077Y306952D01*
X273077Y309064D01*
X273885Y311014D01*
X275378Y312507D01*
X277328Y313315D01*
X279440Y313315D01*
X281390Y312507D01*
X282722Y311174D01*
X282801Y311114D01*
X282873Y311046D01*
X282926Y311017D01*
X282974Y310980D01*
X283065Y310940D01*
X283151Y310892D01*
X283210Y310877D01*
X283266Y310853D01*
X283363Y310838D01*
X283459Y310813D01*
X283559Y310807D01*
X283580Y310803D01*
X283592Y310805D01*
X283620Y310803D01*
X372901Y310803D01*
X372999Y310815D01*
X373098Y310818D01*
X373156Y310835D01*
X373216Y310843D01*
X373308Y310879D01*
X373403Y310907D01*
X373456Y310937D01*
X373512Y310960D01*
X373592Y311018D01*
X373677Y311068D01*
X373753Y311134D01*
X373769Y311146D01*
X373777Y311156D01*
X373798Y311174D01*
X382782Y320159D01*
X382867Y320268D01*
X382956Y320375D01*
X382965Y320394D01*
X382977Y320410D01*
X383033Y320538D01*
X383092Y320663D01*
X383095Y320683D01*
X383103Y320702D01*
X383125Y320840D01*
X383151Y320976D01*
X383150Y320996D01*
X383153Y321016D01*
X383140Y321155D01*
X383132Y321293D01*
X383125Y321312D01*
X383124Y321332D01*
X383076Y321464D01*
X383034Y321595D01*
X383023Y321613D01*
X383016Y321632D01*
X382938Y321747D01*
X382863Y321864D01*
X382849Y321878D01*
X382837Y321895D01*
X382733Y321987D01*
X382632Y322082D01*
X382614Y322092D01*
X382599Y322105D01*
X382475Y322169D01*
X382353Y322236D01*
X382334Y322241D01*
X382316Y322250D01*
X382180Y322280D01*
X382045Y322315D01*
X382017Y322317D01*
X382005Y322320D01*
X381985Y322319D01*
X381885Y322325D01*
X310892Y322325D01*
X310794Y322313D01*
X310695Y322310D01*
X310636Y322293D01*
X310576Y322285D01*
X310484Y322249D01*
X310389Y322221D01*
X310337Y322191D01*
X310281Y322168D01*
X310201Y322110D01*
X310115Y322060D01*
X310040Y321994D01*
X310023Y321982D01*
X310016Y321972D01*
X309994Y321954D01*
X308662Y320621D01*
X306712Y319813D01*
X304600Y319813D01*
X302650Y320621D01*
X301157Y322114D01*
X300349Y324064D01*
X300349Y326176D01*
X301157Y328126D01*
X302650Y329619D01*
X304600Y330427D01*
X306712Y330427D01*
X308662Y329619D01*
X309994Y328286D01*
X310073Y328226D01*
X310145Y328158D01*
X310198Y328129D01*
X310246Y328092D01*
X310337Y328052D01*
X310423Y328004D01*
X310482Y327989D01*
X310538Y327965D01*
X310635Y327950D01*
X310731Y327925D01*
X310831Y327919D01*
X310852Y327915D01*
X310864Y327917D01*
X310892Y327915D01*
X383917Y327915D01*
X384015Y327927D01*
X384114Y327930D01*
X384172Y327947D01*
X384232Y327955D01*
X384324Y327991D01*
X384419Y328019D01*
X384472Y328049D01*
X384528Y328072D01*
X384608Y328130D01*
X384693Y328180D01*
X384769Y328246D01*
X384785Y328258D01*
X384793Y328268D01*
X384814Y328286D01*
X441296Y384769D01*
X441381Y384878D01*
X441470Y384985D01*
X441479Y385004D01*
X441491Y385020D01*
X441547Y385148D01*
X441606Y385273D01*
X441609Y385293D01*
X441617Y385312D01*
X441639Y385450D01*
X441665Y385586D01*
X441664Y385606D01*
X441667Y385626D01*
X441654Y385765D01*
X441646Y385903D01*
X441639Y385922D01*
X441638Y385942D01*
X441590Y386074D01*
X441548Y386205D01*
X441537Y386223D01*
X441530Y386242D01*
X441452Y386357D01*
X441377Y386474D01*
X441363Y386488D01*
X441351Y386505D01*
X441247Y386597D01*
X441146Y386692D01*
X441128Y386702D01*
X441113Y386715D01*
X440989Y386778D01*
X440867Y386846D01*
X440848Y386851D01*
X440830Y386860D01*
X440694Y386890D01*
X440559Y386925D01*
X440531Y386927D01*
X440519Y386930D01*
X440499Y386929D01*
X440399Y386935D01*
X438989Y386935D01*
X438963Y386932D01*
X438937Y386934D01*
X438806Y386912D01*
X438674Y386895D01*
X438649Y386886D01*
X438624Y386881D01*
X438502Y386827D01*
X438378Y386778D01*
X438357Y386763D01*
X438333Y386752D01*
X438201Y386660D01*
X414787Y368091D01*
X414778Y368082D01*
X414768Y368076D01*
X414668Y367969D01*
X414565Y367864D01*
X414559Y367853D01*
X414550Y367844D01*
X414479Y367715D01*
X414406Y367588D01*
X414402Y367576D01*
X414396Y367565D01*
X414360Y367423D01*
X414320Y367282D01*
X414320Y367270D01*
X414317Y367257D01*
X414307Y367097D01*
X414307Y366944D01*
X413499Y364994D01*
X412006Y363501D01*
X410056Y362693D01*
X407944Y362693D01*
X405994Y363501D01*
X404501Y364994D01*
X403693Y366944D01*
X403693Y369056D01*
X404501Y371006D01*
X405994Y372499D01*
X407944Y373307D01*
X409577Y373307D01*
X409603Y373310D01*
X409629Y373308D01*
X409760Y373330D01*
X409892Y373347D01*
X409917Y373356D01*
X409942Y373361D01*
X410064Y373415D01*
X410188Y373464D01*
X410209Y373479D01*
X410233Y373490D01*
X410365Y373582D01*
X433455Y391894D01*
X433464Y391903D01*
X433474Y391910D01*
X433574Y392016D01*
X433677Y392121D01*
X433683Y392132D01*
X433692Y392141D01*
X433763Y392270D01*
X433836Y392397D01*
X433840Y392409D01*
X433846Y392420D01*
X433882Y392562D01*
X433909Y392657D01*
X436316Y395065D01*
X449034Y395065D01*
X449132Y395077D01*
X449231Y395080D01*
X449290Y395097D01*
X449350Y395105D01*
X449442Y395141D01*
X449537Y395169D01*
X449589Y395199D01*
X449645Y395222D01*
X449725Y395280D01*
X449811Y395330D01*
X449886Y395396D01*
X449903Y395408D01*
X449910Y395418D01*
X449932Y395436D01*
X449994Y395499D01*
X451944Y396307D01*
X454056Y396307D01*
X456006Y395499D01*
X457499Y394006D01*
X458397Y391839D01*
X458421Y391796D01*
X458438Y391749D01*
X458500Y391658D01*
X458554Y391563D01*
X458589Y391527D01*
X458617Y391486D01*
X458699Y391413D01*
X458775Y391334D01*
X458818Y391308D01*
X458855Y391275D01*
X458953Y391225D01*
X459046Y391168D01*
X459094Y391153D01*
X459138Y391131D01*
X459245Y391107D01*
X459350Y391074D01*
X459400Y391072D01*
X459449Y391061D01*
X459559Y391064D01*
X459668Y391059D01*
X459717Y391069D01*
X459766Y391071D01*
X459872Y391101D01*
X459980Y391123D01*
X460024Y391145D01*
X460072Y391159D01*
X460166Y391215D01*
X460265Y391263D01*
X460303Y391295D01*
X460346Y391321D01*
X460467Y391427D01*
X483498Y414458D01*
X483558Y414536D01*
X483626Y414608D01*
X483655Y414661D01*
X483692Y414709D01*
X483732Y414800D01*
X483780Y414887D01*
X483795Y414945D01*
X483819Y415001D01*
X483834Y415099D01*
X483859Y415195D01*
X483865Y415295D01*
X483869Y415315D01*
X483867Y415327D01*
X483869Y415355D01*
X483869Y468085D01*
X483857Y468183D01*
X483854Y468282D01*
X483837Y468340D01*
X483829Y468400D01*
X483793Y468492D01*
X483765Y468587D01*
X483735Y468640D01*
X483712Y468696D01*
X483654Y468776D01*
X483604Y468861D01*
X483538Y468937D01*
X483526Y468953D01*
X483516Y468961D01*
X483498Y468982D01*
X477086Y475394D01*
X477015Y475449D01*
X476950Y475511D01*
X476890Y475546D01*
X476835Y475589D01*
X476752Y475624D01*
X476674Y475669D01*
X476607Y475687D01*
X476543Y475715D01*
X476454Y475729D01*
X476367Y475753D01*
X476244Y475762D01*
X476229Y475765D01*
X476222Y475764D01*
X476207Y475765D01*
X454252Y476081D01*
X454144Y476069D01*
X454036Y476065D01*
X453987Y476051D01*
X453935Y476045D01*
X453835Y476007D01*
X453731Y475977D01*
X453686Y475951D01*
X453638Y475933D01*
X453550Y475870D01*
X453457Y475815D01*
X453396Y475762D01*
X453378Y475749D01*
X453367Y475737D01*
X453336Y475709D01*
X452078Y474451D01*
X450128Y473643D01*
X448016Y473643D01*
X446510Y474267D01*
X446462Y474280D01*
X446417Y474302D01*
X446309Y474322D01*
X446203Y474351D01*
X446153Y474352D01*
X446104Y474361D01*
X445995Y474355D01*
X445885Y474356D01*
X445837Y474345D01*
X445787Y474342D01*
X445683Y474308D01*
X445576Y474282D01*
X445532Y474259D01*
X445485Y474244D01*
X445392Y474185D01*
X445295Y474133D01*
X445258Y474100D01*
X445216Y474073D01*
X445141Y473993D01*
X445059Y473920D01*
X445032Y473878D01*
X444998Y473842D01*
X444945Y473746D01*
X444885Y473654D01*
X444868Y473607D01*
X444844Y473563D01*
X444817Y473457D01*
X444781Y473353D01*
X444777Y473303D01*
X444765Y473255D01*
X444755Y473095D01*
X444755Y422514D01*
X396382Y374141D01*
X314611Y374141D01*
X314513Y374129D01*
X314414Y374126D01*
X314356Y374109D01*
X314296Y374101D01*
X314204Y374065D01*
X314109Y374037D01*
X314056Y374007D01*
X314000Y373984D01*
X313920Y373926D01*
X313835Y373876D01*
X313759Y373810D01*
X313743Y373798D01*
X313735Y373788D01*
X313714Y373770D01*
X74669Y134725D01*
X74651Y134701D01*
X74628Y134682D01*
X74553Y134576D01*
X74474Y134473D01*
X74462Y134446D01*
X74445Y134422D01*
X74399Y134301D01*
X74348Y134181D01*
X74343Y134152D01*
X74332Y134125D01*
X74318Y133996D01*
X74298Y133867D01*
X74301Y133838D01*
X74297Y133809D01*
X74315Y133680D01*
X74328Y133551D01*
X74338Y133523D01*
X74342Y133494D01*
X74394Y133341D01*
X74865Y132204D01*
X74865Y128996D01*
X73637Y126032D01*
X71368Y123763D01*
X68404Y122535D01*
X65196Y122535D01*
X62232Y123763D01*
X59963Y126032D01*
X58735Y128996D01*
X58735Y132204D01*
X59963Y135168D01*
X62232Y137437D01*
X65196Y138665D01*
X68404Y138665D01*
X69247Y138316D01*
X69276Y138308D01*
X69302Y138294D01*
X69429Y138266D01*
X69554Y138232D01*
X69583Y138231D01*
X69612Y138225D01*
X69742Y138229D01*
X69872Y138227D01*
X69901Y138233D01*
X69930Y138234D01*
X70055Y138270D01*
X70181Y138301D01*
X70207Y138315D01*
X70236Y138323D01*
X70347Y138389D01*
X70462Y138449D01*
X70484Y138469D01*
X70510Y138484D01*
X70630Y138591D01*
X311126Y379087D01*
X311211Y379196D01*
X311300Y379303D01*
X311309Y379322D01*
X311321Y379338D01*
X311377Y379466D01*
X311436Y379591D01*
X311439Y379611D01*
X311447Y379630D01*
X311469Y379768D01*
X311495Y379904D01*
X311494Y379924D01*
X311497Y379944D01*
X311484Y380083D01*
X311476Y380221D01*
X311469Y380240D01*
X311468Y380260D01*
X311420Y380392D01*
X311378Y380523D01*
X311367Y380541D01*
X311360Y380560D01*
X311282Y380675D01*
X311207Y380792D01*
X311193Y380806D01*
X311181Y380823D01*
X311077Y380915D01*
X310976Y381010D01*
X310958Y381020D01*
X310943Y381033D01*
X310819Y381096D01*
X310697Y381164D01*
X310678Y381169D01*
X310660Y381178D01*
X310524Y381208D01*
X310389Y381243D01*
X310361Y381245D01*
X310349Y381248D01*
X310329Y381247D01*
X310229Y381253D01*
X238411Y381253D01*
X238313Y381241D01*
X238214Y381238D01*
X238156Y381221D01*
X238096Y381213D01*
X238004Y381177D01*
X237909Y381149D01*
X237856Y381119D01*
X237800Y381096D01*
X237720Y381038D01*
X237635Y380988D01*
X237559Y380922D01*
X237543Y380910D01*
X237535Y380900D01*
X237514Y380882D01*
X227166Y370534D01*
X227106Y370456D01*
X227038Y370384D01*
X227009Y370331D01*
X226972Y370283D01*
X226932Y370192D01*
X226884Y370105D01*
X226869Y370047D01*
X226845Y369991D01*
X226830Y369893D01*
X226805Y369797D01*
X226799Y369697D01*
X226795Y369677D01*
X226797Y369665D01*
X226795Y369637D01*
X226795Y367752D01*
X225987Y365802D01*
X224494Y364309D01*
X222544Y363501D01*
X220432Y363501D01*
X218926Y364125D01*
X218878Y364138D01*
X218833Y364160D01*
X218725Y364180D01*
X218619Y364209D01*
X218569Y364210D01*
X218520Y364219D01*
X218411Y364213D01*
X218301Y364214D01*
X218253Y364203D01*
X218203Y364200D01*
X218099Y364166D01*
X217992Y364140D01*
X217948Y364117D01*
X217901Y364102D01*
X217808Y364043D01*
X217711Y363991D01*
X217674Y363958D01*
X217632Y363931D01*
X217557Y363851D01*
X217475Y363778D01*
X217448Y363736D01*
X217414Y363700D01*
X217361Y363604D01*
X217301Y363512D01*
X217284Y363465D01*
X217260Y363421D01*
X217233Y363315D01*
X217197Y363211D01*
X217193Y363161D01*
X217181Y363113D01*
X217171Y362953D01*
X217171Y328026D01*
X74669Y185525D01*
X74651Y185501D01*
X74628Y185482D01*
X74554Y185376D01*
X74474Y185273D01*
X74462Y185246D01*
X74445Y185222D01*
X74399Y185101D01*
X74348Y184981D01*
X74343Y184952D01*
X74332Y184925D01*
X74318Y184796D01*
X74298Y184667D01*
X74301Y184638D01*
X74297Y184609D01*
X74315Y184480D01*
X74328Y184351D01*
X74338Y184323D01*
X74342Y184294D01*
X74394Y184141D01*
X74865Y183004D01*
X74865Y179796D01*
X73637Y176832D01*
X71368Y174563D01*
X68404Y173335D01*
X65196Y173335D01*
X62232Y174563D01*
X59963Y176832D01*
X58735Y179796D01*
X58735Y183004D01*
X59963Y185968D01*
X62232Y188237D01*
X65196Y189465D01*
X68404Y189465D01*
X69247Y189116D01*
X69276Y189108D01*
X69302Y189094D01*
X69429Y189066D01*
X69554Y189032D01*
X69583Y189031D01*
X69612Y189025D01*
X69742Y189029D01*
X69872Y189027D01*
X69901Y189033D01*
X69930Y189034D01*
X70055Y189070D01*
X70181Y189101D01*
X70207Y189115D01*
X70236Y189123D01*
X70347Y189189D01*
X70462Y189249D01*
X70484Y189269D01*
X70510Y189284D01*
X70630Y189391D01*
X211210Y329970D01*
X211270Y330048D01*
X211338Y330120D01*
X211367Y330173D01*
X211404Y330221D01*
X211444Y330312D01*
X211492Y330399D01*
X211507Y330457D01*
X211531Y330513D01*
X211546Y330611D01*
X211571Y330707D01*
X211577Y330807D01*
X211581Y330827D01*
X211579Y330839D01*
X211581Y330867D01*
X211581Y425545D01*
X211564Y425682D01*
X211551Y425821D01*
X211544Y425840D01*
X211541Y425860D01*
X211490Y425989D01*
X211443Y426120D01*
X211432Y426137D01*
X211424Y426156D01*
X211343Y426268D01*
X211265Y426383D01*
X211249Y426397D01*
X211238Y426413D01*
X211130Y426502D01*
X211026Y426594D01*
X211008Y426603D01*
X210993Y426616D01*
X210867Y426675D01*
X210743Y426739D01*
X210723Y426743D01*
X210705Y426752D01*
X210569Y426778D01*
X210433Y426808D01*
X210412Y426808D01*
X210393Y426811D01*
X210254Y426803D01*
X210115Y426799D01*
X210095Y426793D01*
X210075Y426792D01*
X209943Y426749D01*
X209809Y426710D01*
X209792Y426700D01*
X209773Y426694D01*
X209655Y426619D01*
X209535Y426549D01*
X209514Y426530D01*
X209504Y426523D01*
X209490Y426508D01*
X209415Y426442D01*
X203166Y420194D01*
X203106Y420116D01*
X203038Y420044D01*
X203009Y419991D01*
X202972Y419943D01*
X202932Y419852D01*
X202884Y419765D01*
X202869Y419707D01*
X202845Y419651D01*
X202830Y419553D01*
X202805Y419457D01*
X202799Y419357D01*
X202795Y419337D01*
X202797Y419325D01*
X202795Y419297D01*
X202795Y348842D01*
X200786Y346834D01*
X193166Y339214D01*
X193106Y339136D01*
X193038Y339064D01*
X193009Y339011D01*
X192972Y338963D01*
X192932Y338872D01*
X192884Y338785D01*
X192869Y338727D01*
X192845Y338671D01*
X192830Y338573D01*
X192805Y338477D01*
X192799Y338377D01*
X192795Y338357D01*
X192797Y338345D01*
X192795Y338317D01*
X192795Y328842D01*
X190786Y326834D01*
X74730Y210777D01*
X74712Y210754D01*
X74689Y210735D01*
X74615Y210629D01*
X74535Y210526D01*
X74523Y210499D01*
X74506Y210475D01*
X74460Y210354D01*
X74408Y210234D01*
X74404Y210205D01*
X74393Y210178D01*
X74379Y210049D01*
X74359Y209920D01*
X74361Y209891D01*
X74358Y209861D01*
X74376Y209733D01*
X74388Y209604D01*
X74398Y209576D01*
X74403Y209547D01*
X74455Y209394D01*
X74865Y208404D01*
X74865Y205196D01*
X73637Y202232D01*
X71368Y199963D01*
X68404Y198735D01*
X65196Y198735D01*
X62232Y199963D01*
X59963Y202232D01*
X58735Y205196D01*
X58735Y208404D01*
X59963Y211368D01*
X62232Y213637D01*
X65196Y214865D01*
X68404Y214865D01*
X69394Y214455D01*
X69423Y214447D01*
X69449Y214433D01*
X69576Y214405D01*
X69701Y214371D01*
X69730Y214370D01*
X69759Y214364D01*
X69889Y214368D01*
X70019Y214366D01*
X70048Y214373D01*
X70077Y214373D01*
X70202Y214409D01*
X70328Y214440D01*
X70354Y214454D01*
X70383Y214462D01*
X70495Y214528D01*
X70609Y214589D01*
X70631Y214608D01*
X70657Y214623D01*
X70777Y214730D01*
X186834Y330786D01*
X186894Y330864D01*
X186962Y330936D01*
X186991Y330989D01*
X187028Y331037D01*
X187068Y331128D01*
X187116Y331215D01*
X187131Y331273D01*
X187155Y331329D01*
X187170Y331427D01*
X187195Y331523D01*
X187201Y331623D01*
X187205Y331643D01*
X187203Y331655D01*
X187205Y331683D01*
X187205Y341158D01*
X196834Y350786D01*
X196894Y350864D01*
X196962Y350936D01*
X196991Y350989D01*
X197028Y351037D01*
X197068Y351128D01*
X197116Y351215D01*
X197131Y351273D01*
X197155Y351329D01*
X197170Y351427D01*
X197195Y351523D01*
X197201Y351623D01*
X197205Y351643D01*
X197203Y351655D01*
X197205Y351683D01*
X197205Y422138D01*
X204098Y429030D01*
X204158Y429108D01*
X204226Y429180D01*
X204255Y429233D01*
X204292Y429281D01*
X204332Y429372D01*
X204380Y429459D01*
X204395Y429517D01*
X204419Y429573D01*
X204434Y429671D01*
X204459Y429767D01*
X204465Y429867D01*
X204469Y429887D01*
X204467Y429899D01*
X204469Y429927D01*
X204469Y433057D01*
X204463Y433106D01*
X204465Y433156D01*
X204443Y433263D01*
X204429Y433372D01*
X204411Y433418D01*
X204401Y433467D01*
X204353Y433566D01*
X204312Y433668D01*
X204283Y433708D01*
X204261Y433753D01*
X204190Y433836D01*
X204126Y433925D01*
X204087Y433957D01*
X204055Y433995D01*
X203965Y434058D01*
X203881Y434128D01*
X203836Y434149D01*
X203795Y434178D01*
X203692Y434217D01*
X203593Y434264D01*
X203544Y434273D01*
X203498Y434291D01*
X203388Y434303D01*
X203281Y434323D01*
X203231Y434320D01*
X203182Y434326D01*
X203073Y434310D01*
X202963Y434304D01*
X202916Y434288D01*
X202867Y434281D01*
X202714Y434229D01*
X201208Y433605D01*
X199323Y433605D01*
X199225Y433593D01*
X199126Y433590D01*
X199068Y433573D01*
X199008Y433565D01*
X198916Y433529D01*
X198821Y433501D01*
X198768Y433471D01*
X198712Y433448D01*
X198632Y433390D01*
X198547Y433340D01*
X198471Y433274D01*
X198455Y433262D01*
X198447Y433252D01*
X198426Y433234D01*
X193826Y428634D01*
X183318Y418126D01*
X183258Y418048D01*
X183190Y417976D01*
X183161Y417923D01*
X183124Y417875D01*
X183084Y417784D01*
X183036Y417697D01*
X183021Y417639D01*
X182997Y417583D01*
X182982Y417485D01*
X182957Y417389D01*
X182951Y417289D01*
X182947Y417269D01*
X182949Y417257D01*
X182947Y417229D01*
X182947Y344602D01*
X74669Y236325D01*
X74651Y236301D01*
X74628Y236282D01*
X74553Y236176D01*
X74474Y236073D01*
X74462Y236046D01*
X74445Y236022D01*
X74399Y235901D01*
X74348Y235781D01*
X74343Y235752D01*
X74332Y235725D01*
X74318Y235596D01*
X74298Y235467D01*
X74301Y235438D01*
X74297Y235409D01*
X74315Y235280D01*
X74328Y235151D01*
X74338Y235123D01*
X74342Y235094D01*
X74394Y234941D01*
X74865Y233804D01*
X74865Y230596D01*
X73637Y227632D01*
X71368Y225363D01*
X68404Y224135D01*
X65196Y224135D01*
X62232Y225363D01*
X59963Y227632D01*
X58735Y230596D01*
X58735Y233804D01*
X59963Y236768D01*
X62232Y239037D01*
X65196Y240265D01*
X68404Y240265D01*
X69247Y239916D01*
X69276Y239908D01*
X69302Y239894D01*
X69429Y239866D01*
X69554Y239832D01*
X69583Y239831D01*
X69612Y239825D01*
X69742Y239829D01*
X69872Y239827D01*
X69901Y239833D01*
X69930Y239834D01*
X70055Y239870D01*
X70181Y239901D01*
X70207Y239915D01*
X70236Y239923D01*
X70347Y239989D01*
X70462Y240049D01*
X70484Y240069D01*
X70510Y240084D01*
X70630Y240191D01*
X176986Y346546D01*
X177046Y346624D01*
X177114Y346696D01*
X177143Y346749D01*
X177180Y346797D01*
X177220Y346888D01*
X177268Y346975D01*
X177283Y347033D01*
X177307Y347089D01*
X177322Y347187D01*
X177347Y347283D01*
X177353Y347383D01*
X177357Y347403D01*
X177355Y347415D01*
X177357Y347443D01*
X177357Y420070D01*
X189874Y432586D01*
X194474Y437186D01*
X194534Y437264D01*
X194602Y437336D01*
X194631Y437389D01*
X194668Y437437D01*
X194708Y437528D01*
X194756Y437615D01*
X194771Y437673D01*
X194795Y437729D01*
X194810Y437827D01*
X194835Y437923D01*
X194841Y438023D01*
X194845Y438043D01*
X194843Y438055D01*
X194845Y438083D01*
X194845Y439968D01*
X195653Y441918D01*
X197146Y443411D01*
X199096Y444219D01*
X201208Y444219D01*
X202714Y443595D01*
X202762Y443582D01*
X202807Y443560D01*
X202915Y443540D01*
X203021Y443511D01*
X203071Y443510D01*
X203120Y443501D01*
X203229Y443507D01*
X203339Y443506D01*
X203387Y443517D01*
X203437Y443520D01*
X203541Y443554D01*
X203648Y443580D01*
X203692Y443603D01*
X203739Y443618D01*
X203832Y443677D01*
X203929Y443729D01*
X203966Y443762D01*
X204008Y443789D01*
X204083Y443869D01*
X204165Y443942D01*
X204192Y443984D01*
X204226Y444020D01*
X204279Y444116D01*
X204339Y444208D01*
X204356Y444255D01*
X204380Y444299D01*
X204407Y444405D01*
X204443Y444509D01*
X204447Y444559D01*
X204459Y444607D01*
X204469Y444767D01*
X204469Y447900D01*
X204457Y447998D01*
X204454Y448097D01*
X204437Y448156D01*
X204429Y448216D01*
X204393Y448308D01*
X204365Y448403D01*
X204335Y448455D01*
X204312Y448511D01*
X204254Y448591D01*
X204204Y448677D01*
X204138Y448752D01*
X204126Y448769D01*
X204116Y448776D01*
X204098Y448798D01*
X202765Y450130D01*
X201957Y452080D01*
X201957Y454192D01*
X202765Y456142D01*
X204258Y457635D01*
X206208Y458443D01*
X208320Y458443D01*
X209826Y457819D01*
X209874Y457806D01*
X209919Y457784D01*
X210027Y457764D01*
X210133Y457735D01*
X210183Y457734D01*
X210232Y457725D01*
X210341Y457731D01*
X210451Y457730D01*
X210499Y457741D01*
X210549Y457744D01*
X210653Y457778D01*
X210760Y457804D01*
X210804Y457827D01*
X210851Y457842D01*
X210944Y457901D01*
X211041Y457953D01*
X211078Y457986D01*
X211120Y458013D01*
X211195Y458093D01*
X211277Y458166D01*
X211304Y458208D01*
X211338Y458244D01*
X211391Y458340D01*
X211451Y458432D01*
X211468Y458479D01*
X211492Y458523D01*
X211519Y458629D01*
X211555Y458733D01*
X211559Y458783D01*
X211571Y458831D01*
X211581Y458991D01*
X211581Y461108D01*
X211569Y461206D01*
X211566Y461305D01*
X211549Y461364D01*
X211541Y461424D01*
X211505Y461516D01*
X211477Y461611D01*
X211447Y461663D01*
X211424Y461719D01*
X211366Y461799D01*
X211316Y461885D01*
X211250Y461960D01*
X211238Y461977D01*
X211228Y461984D01*
X211210Y462006D01*
X209877Y463338D01*
X209069Y465288D01*
X209069Y467400D01*
X209693Y468906D01*
X209706Y468954D01*
X209728Y468999D01*
X209748Y469107D01*
X209777Y469213D01*
X209778Y469263D01*
X209787Y469312D01*
X209781Y469421D01*
X209782Y469531D01*
X209771Y469579D01*
X209768Y469629D01*
X209734Y469733D01*
X209708Y469840D01*
X209685Y469884D01*
X209670Y469931D01*
X209611Y470024D01*
X209559Y470121D01*
X209526Y470158D01*
X209499Y470200D01*
X209419Y470275D01*
X209346Y470357D01*
X209304Y470384D01*
X209268Y470418D01*
X209172Y470471D01*
X209080Y470531D01*
X209033Y470548D01*
X208989Y470572D01*
X208883Y470599D01*
X208779Y470635D01*
X208729Y470639D01*
X208681Y470651D01*
X208521Y470661D01*
X202089Y470661D01*
X201991Y470649D01*
X201892Y470646D01*
X201834Y470629D01*
X201774Y470621D01*
X201682Y470585D01*
X201587Y470557D01*
X201534Y470527D01*
X201478Y470504D01*
X201398Y470446D01*
X201313Y470396D01*
X201237Y470330D01*
X201221Y470318D01*
X201213Y470308D01*
X201192Y470290D01*
X137786Y406884D01*
X137726Y406806D01*
X137658Y406734D01*
X137629Y406681D01*
X137592Y406633D01*
X137552Y406542D01*
X137504Y406455D01*
X137489Y406397D01*
X137465Y406341D01*
X137450Y406243D01*
X137425Y406147D01*
X137419Y406047D01*
X137415Y406027D01*
X137417Y406014D01*
X137415Y405987D01*
X137415Y353172D01*
X105298Y321055D01*
X55992Y321055D01*
X54101Y322946D01*
X54101Y388254D01*
X58753Y392905D01*
X58771Y392929D01*
X58794Y392948D01*
X58868Y393054D01*
X58948Y393157D01*
X58960Y393184D01*
X58977Y393208D01*
X59023Y393329D01*
X59074Y393449D01*
X59079Y393478D01*
X59089Y393505D01*
X59104Y393634D01*
X59124Y393763D01*
X59121Y393792D01*
X59125Y393821D01*
X59107Y393950D01*
X59094Y394079D01*
X59084Y394107D01*
X59080Y394136D01*
X59028Y394289D01*
X58735Y394996D01*
X58735Y398204D01*
X59963Y401168D01*
X62232Y403437D01*
X65196Y404665D01*
X68404Y404665D01*
X71368Y403437D01*
X73637Y401168D01*
X74865Y398204D01*
X74865Y394996D01*
X73637Y392032D01*
X71368Y389763D01*
X68404Y388535D01*
X65196Y388535D01*
X63923Y389063D01*
X63894Y389070D01*
X63868Y389084D01*
X63741Y389112D01*
X63616Y389146D01*
X63587Y389147D01*
X63558Y389153D01*
X63428Y389149D01*
X63298Y389152D01*
X63269Y389145D01*
X63240Y389144D01*
X63115Y389108D01*
X62989Y389077D01*
X62963Y389064D01*
X62934Y389055D01*
X62823Y388989D01*
X62708Y388929D01*
X62686Y388909D01*
X62661Y388894D01*
X62540Y388787D01*
X60062Y386310D01*
X60002Y386232D01*
X59934Y386160D01*
X59905Y386107D01*
X59868Y386059D01*
X59828Y385968D01*
X59780Y385881D01*
X59765Y385823D01*
X59741Y385767D01*
X59726Y385669D01*
X59701Y385573D01*
X59695Y385473D01*
X59691Y385453D01*
X59693Y385441D01*
X59691Y385413D01*
X59691Y378560D01*
X59708Y378422D01*
X59721Y378284D01*
X59728Y378265D01*
X59731Y378245D01*
X59782Y378115D01*
X59829Y377985D01*
X59840Y377968D01*
X59848Y377949D01*
X59929Y377836D01*
X60007Y377721D01*
X60023Y377708D01*
X60034Y377692D01*
X60142Y377603D01*
X60246Y377511D01*
X60264Y377502D01*
X60279Y377489D01*
X60405Y377430D01*
X60529Y377366D01*
X60549Y377362D01*
X60567Y377353D01*
X60703Y377327D01*
X60839Y377297D01*
X60860Y377297D01*
X60879Y377294D01*
X61018Y377302D01*
X61157Y377306D01*
X61177Y377312D01*
X61197Y377313D01*
X61329Y377356D01*
X61463Y377395D01*
X61480Y377405D01*
X61499Y377411D01*
X61617Y377486D01*
X61737Y377556D01*
X61758Y377575D01*
X61768Y377581D01*
X61782Y377596D01*
X61858Y377663D01*
X62232Y378037D01*
X65196Y379265D01*
X68404Y379265D01*
X71368Y378037D01*
X73637Y375768D01*
X74865Y372804D01*
X74865Y369596D01*
X73637Y366632D01*
X71368Y364363D01*
X68404Y363135D01*
X65196Y363135D01*
X62232Y364363D01*
X61858Y364737D01*
X61748Y364822D01*
X61641Y364911D01*
X61622Y364920D01*
X61606Y364932D01*
X61478Y364988D01*
X61353Y365047D01*
X61333Y365050D01*
X61314Y365059D01*
X61176Y365080D01*
X61040Y365106D01*
X61020Y365105D01*
X61000Y365108D01*
X60861Y365095D01*
X60723Y365087D01*
X60704Y365080D01*
X60684Y365079D01*
X60553Y365032D01*
X60421Y364989D01*
X60403Y364978D01*
X60384Y364971D01*
X60270Y364893D01*
X60152Y364819D01*
X60138Y364804D01*
X60121Y364792D01*
X60029Y364688D01*
X59934Y364587D01*
X59924Y364569D01*
X59911Y364554D01*
X59848Y364430D01*
X59780Y364308D01*
X59775Y364289D01*
X59766Y364271D01*
X59736Y364135D01*
X59701Y364000D01*
X59699Y363972D01*
X59696Y363960D01*
X59697Y363940D01*
X59691Y363840D01*
X59691Y354350D01*
X59696Y354311D01*
X59693Y354271D01*
X59716Y354153D01*
X59731Y354035D01*
X59745Y353998D01*
X59753Y353959D01*
X59804Y353850D01*
X59848Y353739D01*
X59871Y353707D01*
X59888Y353671D01*
X59964Y353578D01*
X60034Y353482D01*
X60065Y353456D01*
X60090Y353426D01*
X60187Y353355D01*
X60279Y353279D01*
X60315Y353262D01*
X60348Y353239D01*
X60459Y353194D01*
X60567Y353143D01*
X60606Y353136D01*
X60643Y353121D01*
X60762Y353106D01*
X60879Y353084D01*
X60919Y353086D01*
X60959Y353081D01*
X61078Y353096D01*
X61197Y353103D01*
X61235Y353116D01*
X61274Y353121D01*
X61386Y353165D01*
X61499Y353201D01*
X61533Y353223D01*
X61570Y353237D01*
X61706Y353323D01*
X62041Y353567D01*
X63314Y354215D01*
X64674Y354657D01*
X64801Y354677D01*
X64801Y346530D01*
X64816Y346412D01*
X64823Y346293D01*
X64835Y346255D01*
X64841Y346215D01*
X64884Y346104D01*
X64921Y345991D01*
X64943Y345957D01*
X64958Y345919D01*
X65027Y345823D01*
X65038Y345806D01*
X65024Y345782D01*
X64999Y345750D01*
X64948Y345643D01*
X64890Y345538D01*
X64880Y345499D01*
X64863Y345463D01*
X64841Y345346D01*
X64811Y345230D01*
X64807Y345170D01*
X64803Y345150D01*
X64805Y345130D01*
X64801Y345070D01*
X64801Y336923D01*
X64674Y336943D01*
X63314Y337385D01*
X62041Y338033D01*
X61706Y338277D01*
X61671Y338296D01*
X61641Y338321D01*
X61532Y338372D01*
X61427Y338430D01*
X61389Y338440D01*
X61353Y338457D01*
X61236Y338479D01*
X61119Y338509D01*
X61079Y338509D01*
X61040Y338516D01*
X60921Y338509D01*
X60801Y338509D01*
X60763Y338499D01*
X60723Y338497D01*
X60609Y338460D01*
X60493Y338430D01*
X60458Y338411D01*
X60421Y338399D01*
X60319Y338335D01*
X60214Y338277D01*
X60185Y338250D01*
X60152Y338228D01*
X60070Y338141D01*
X59983Y338059D01*
X59961Y338026D01*
X59934Y337997D01*
X59876Y337892D01*
X59812Y337791D01*
X59800Y337753D01*
X59780Y337718D01*
X59751Y337602D01*
X59713Y337489D01*
X59711Y337449D01*
X59701Y337410D01*
X59691Y337250D01*
X59691Y327914D01*
X59706Y327796D01*
X59713Y327677D01*
X59726Y327639D01*
X59731Y327598D01*
X59774Y327488D01*
X59811Y327375D01*
X59833Y327340D01*
X59848Y327303D01*
X59917Y327207D01*
X59981Y327106D01*
X60011Y327078D01*
X60034Y327045D01*
X60126Y326969D01*
X60213Y326888D01*
X60248Y326868D01*
X60279Y326843D01*
X60387Y326792D01*
X60491Y326734D01*
X60531Y326724D01*
X60567Y326707D01*
X60684Y326685D01*
X60799Y326655D01*
X60859Y326651D01*
X60879Y326647D01*
X60900Y326649D01*
X60960Y326645D01*
X102457Y326645D01*
X102555Y326657D01*
X102654Y326660D01*
X102712Y326677D01*
X102772Y326685D01*
X102864Y326721D01*
X102959Y326749D01*
X103012Y326779D01*
X103068Y326802D01*
X103148Y326860D01*
X103233Y326910D01*
X103309Y326976D01*
X103325Y326988D01*
X103333Y326998D01*
X103354Y327016D01*
X131454Y355116D01*
X131514Y355194D01*
X131582Y355266D01*
X131611Y355319D01*
X131648Y355367D01*
X131688Y355458D01*
X131736Y355545D01*
X131751Y355603D01*
X131775Y355659D01*
X131790Y355757D01*
X131815Y355853D01*
X131821Y355953D01*
X131825Y355973D01*
X131823Y355985D01*
X131825Y356013D01*
X131825Y408828D01*
X199248Y476251D01*
X213709Y476251D01*
X213846Y476268D01*
X213985Y476281D01*
X214004Y476288D01*
X214024Y476291D01*
X214153Y476342D01*
X214284Y476389D01*
X214301Y476400D01*
X214320Y476408D01*
X214432Y476489D01*
X214547Y476567D01*
X214561Y476583D01*
X214577Y476594D01*
X214666Y476702D01*
X214758Y476806D01*
X214767Y476824D01*
X214780Y476839D01*
X214839Y476965D01*
X214903Y477089D01*
X214907Y477109D01*
X214916Y477127D01*
X214942Y477263D01*
X214972Y477399D01*
X214972Y477420D01*
X214975Y477439D01*
X214967Y477578D01*
X214963Y477717D01*
X214957Y477737D01*
X214956Y477757D01*
X214913Y477889D01*
X214874Y478023D01*
X214864Y478040D01*
X214858Y478059D01*
X214783Y478177D01*
X214713Y478297D01*
X214694Y478318D01*
X214687Y478328D01*
X214672Y478342D01*
X214606Y478417D01*
X198350Y494674D01*
X198272Y494734D01*
X198200Y494802D01*
X198147Y494831D01*
X198099Y494868D01*
X198008Y494908D01*
X197921Y494956D01*
X197863Y494971D01*
X197807Y494995D01*
X197709Y495010D01*
X197613Y495035D01*
X197513Y495041D01*
X197493Y495045D01*
X197481Y495043D01*
X197453Y495045D01*
X76134Y495045D01*
X76016Y495030D01*
X75897Y495023D01*
X75859Y495010D01*
X75818Y495005D01*
X75708Y494962D01*
X75595Y494925D01*
X75560Y494903D01*
X75523Y494888D01*
X75427Y494819D01*
X75326Y494755D01*
X75298Y494725D01*
X75265Y494702D01*
X75189Y494610D01*
X75108Y494523D01*
X75088Y494488D01*
X75063Y494457D01*
X75012Y494349D01*
X74954Y494245D01*
X74944Y494205D01*
X74927Y494169D01*
X74905Y494052D01*
X74875Y493937D01*
X74871Y493877D01*
X74867Y493857D01*
X74869Y493836D01*
X74868Y493830D01*
X74867Y493825D01*
X74868Y493821D01*
X74865Y493776D01*
X74865Y491028D01*
X73972Y490135D01*
X59628Y490135D01*
X58735Y491028D01*
X58735Y505372D01*
X59628Y506265D01*
X73972Y506265D01*
X74865Y505372D01*
X74865Y501904D01*
X74880Y501786D01*
X74887Y501667D01*
X74900Y501629D01*
X74905Y501588D01*
X74948Y501478D01*
X74985Y501365D01*
X75007Y501330D01*
X75022Y501293D01*
X75091Y501197D01*
X75155Y501096D01*
X75185Y501068D01*
X75208Y501035D01*
X75300Y500959D01*
X75387Y500878D01*
X75422Y500858D01*
X75453Y500833D01*
X75561Y500782D01*
X75665Y500724D01*
X75705Y500714D01*
X75741Y500697D01*
X75858Y500675D01*
X75973Y500645D01*
X76033Y500641D01*
X76053Y500637D01*
X76074Y500639D01*
X76134Y500635D01*
X200294Y500635D01*
X202302Y498626D01*
X281486Y419442D01*
X281580Y419369D01*
X281670Y419290D01*
X281706Y419272D01*
X281738Y419247D01*
X281847Y419200D01*
X281953Y419146D01*
X281992Y419137D01*
X282029Y419121D01*
X282147Y419102D01*
X282263Y419076D01*
X282304Y419077D01*
X282343Y419071D01*
X282462Y419082D01*
X282581Y419086D01*
X282620Y419097D01*
X282660Y419101D01*
X282772Y419141D01*
X282887Y419174D01*
X282921Y419195D01*
X282959Y419208D01*
X283058Y419275D01*
X283161Y419336D01*
X283162Y419337D01*
X285177Y420171D01*
X285182Y420172D01*
X285321Y420185D01*
X285340Y420192D01*
X285360Y420195D01*
X285489Y420246D01*
X285620Y420293D01*
X285637Y420304D01*
X285656Y420312D01*
X285768Y420393D01*
X285883Y420471D01*
X285897Y420487D01*
X285913Y420498D01*
X286002Y420606D01*
X286094Y420710D01*
X286103Y420728D01*
X286116Y420743D01*
X286175Y420869D01*
X286239Y420993D01*
X286243Y421013D01*
X286252Y421031D01*
X286278Y421167D01*
X286308Y421303D01*
X286308Y421324D01*
X286311Y421343D01*
X286303Y421482D01*
X286299Y421621D01*
X286293Y421641D01*
X286292Y421661D01*
X286249Y421793D01*
X286210Y421927D01*
X286200Y421944D01*
X286194Y421963D01*
X286119Y422081D01*
X286049Y422201D01*
X286030Y422222D01*
X286023Y422232D01*
X286009Y422246D01*
X285942Y422321D01*
X115038Y593226D01*
X113605Y594658D01*
X113566Y594689D01*
X113533Y594725D01*
X113441Y594786D01*
X113354Y594853D01*
X113308Y594873D01*
X113267Y594900D01*
X113163Y594936D01*
X113062Y594980D01*
X113013Y594987D01*
X112966Y595003D01*
X112857Y595012D01*
X112748Y595029D01*
X112699Y595025D01*
X112649Y595029D01*
X112541Y595010D01*
X112432Y595000D01*
X112385Y594983D01*
X112336Y594974D01*
X112236Y594929D01*
X112132Y594892D01*
X112091Y594864D01*
X112046Y594844D01*
X111960Y594775D01*
X111869Y594713D01*
X111836Y594676D01*
X111797Y594645D01*
X111731Y594557D01*
X111659Y594475D01*
X111636Y594431D01*
X111606Y594391D01*
X111535Y594246D01*
X111179Y593386D01*
X109686Y591893D01*
X107736Y591085D01*
X107647Y591085D01*
X107549Y591073D01*
X107450Y591070D01*
X107392Y591053D01*
X107332Y591045D01*
X107240Y591009D01*
X107145Y590981D01*
X107092Y590951D01*
X107036Y590928D01*
X106956Y590870D01*
X106871Y590820D01*
X106795Y590754D01*
X106779Y590742D01*
X106771Y590732D01*
X106750Y590714D01*
X34916Y518880D01*
X34856Y518802D01*
X34788Y518730D01*
X34759Y518677D01*
X34722Y518629D01*
X34682Y518538D01*
X34634Y518451D01*
X34619Y518393D01*
X34595Y518337D01*
X34580Y518239D01*
X34555Y518143D01*
X34549Y518043D01*
X34545Y518023D01*
X34547Y518011D01*
X34545Y517983D01*
X34545Y506935D01*
X34550Y506895D01*
X34547Y506856D01*
X34570Y506738D01*
X34585Y506619D01*
X34599Y506582D01*
X34607Y506543D01*
X34658Y506435D01*
X34702Y506324D01*
X34725Y506291D01*
X34742Y506255D01*
X34818Y506163D01*
X34888Y506066D01*
X34919Y506041D01*
X34945Y506010D01*
X35041Y505940D01*
X35133Y505863D01*
X35169Y505846D01*
X35202Y505823D01*
X35313Y505779D01*
X35421Y505728D01*
X35460Y505720D01*
X35497Y505706D01*
X35616Y505691D01*
X35733Y505668D01*
X35773Y505671D01*
X35813Y505666D01*
X35932Y505680D01*
X36051Y505688D01*
X36089Y505700D01*
X36128Y505705D01*
X36240Y505749D01*
X36353Y505786D01*
X36387Y505807D01*
X36424Y505822D01*
X36560Y505908D01*
X36641Y505967D01*
X37914Y506615D01*
X39274Y507057D01*
X39401Y507077D01*
X39401Y498930D01*
X39416Y498812D01*
X39423Y498693D01*
X39435Y498655D01*
X39441Y498615D01*
X39484Y498504D01*
X39521Y498391D01*
X39543Y498357D01*
X39558Y498319D01*
X39627Y498223D01*
X39638Y498206D01*
X39624Y498182D01*
X39599Y498150D01*
X39548Y498043D01*
X39490Y497938D01*
X39480Y497899D01*
X39463Y497863D01*
X39441Y497746D01*
X39411Y497630D01*
X39407Y497570D01*
X39403Y497550D01*
X39405Y497530D01*
X39401Y497470D01*
X39401Y489323D01*
X39274Y489343D01*
X37914Y489785D01*
X36641Y490433D01*
X36560Y490492D01*
X36525Y490511D01*
X36495Y490537D01*
X36386Y490588D01*
X36281Y490645D01*
X36243Y490655D01*
X36207Y490672D01*
X36090Y490695D01*
X35973Y490724D01*
X35934Y490724D01*
X35894Y490732D01*
X35775Y490724D01*
X35655Y490725D01*
X35617Y490715D01*
X35577Y490712D01*
X35463Y490675D01*
X35347Y490646D01*
X35312Y490626D01*
X35275Y490614D01*
X35173Y490550D01*
X35069Y490493D01*
X35040Y490465D01*
X35006Y490444D01*
X34924Y490357D01*
X34837Y490275D01*
X34815Y490241D01*
X34788Y490212D01*
X34730Y490107D01*
X34666Y490007D01*
X34654Y489969D01*
X34634Y489934D01*
X34605Y489818D01*
X34567Y489704D01*
X34565Y489664D01*
X34555Y489626D01*
X34545Y489465D01*
X34545Y480414D01*
X34562Y480276D01*
X34575Y480138D01*
X34582Y480119D01*
X34585Y480099D01*
X34636Y479969D01*
X34683Y479839D01*
X34694Y479822D01*
X34702Y479803D01*
X34783Y479691D01*
X34861Y479575D01*
X34877Y479562D01*
X34888Y479546D01*
X34996Y479457D01*
X35100Y479365D01*
X35118Y479356D01*
X35133Y479343D01*
X35259Y479284D01*
X35383Y479220D01*
X35403Y479216D01*
X35421Y479207D01*
X35557Y479181D01*
X35693Y479151D01*
X35714Y479151D01*
X35733Y479148D01*
X35872Y479156D01*
X36011Y479160D01*
X36031Y479166D01*
X36051Y479167D01*
X36183Y479210D01*
X36317Y479249D01*
X36334Y479259D01*
X36353Y479265D01*
X36471Y479340D01*
X36591Y479410D01*
X36612Y479429D01*
X36622Y479435D01*
X36636Y479450D01*
X36712Y479517D01*
X36832Y479637D01*
X39796Y480865D01*
X43004Y480865D01*
X45968Y479637D01*
X48237Y477368D01*
X49465Y474404D01*
X49465Y471196D01*
X48237Y468232D01*
X45968Y465963D01*
X43004Y464735D01*
X42933Y464735D01*
X42796Y464718D01*
X42657Y464705D01*
X42638Y464698D01*
X42618Y464695D01*
X42489Y464644D01*
X42358Y464597D01*
X42341Y464586D01*
X42322Y464578D01*
X42210Y464497D01*
X42095Y464419D01*
X42081Y464403D01*
X42065Y464392D01*
X41976Y464284D01*
X41884Y464180D01*
X41875Y464162D01*
X41862Y464147D01*
X41803Y464021D01*
X41740Y463897D01*
X41735Y463877D01*
X41726Y463859D01*
X41700Y463723D01*
X41670Y463587D01*
X41670Y463566D01*
X41667Y463547D01*
X41675Y463408D01*
X41680Y463269D01*
X41685Y463249D01*
X41686Y463229D01*
X41729Y463097D01*
X41768Y462963D01*
X41778Y462946D01*
X41784Y462927D01*
X41859Y462809D01*
X41929Y462689D01*
X41948Y462668D01*
X41955Y462658D01*
X41970Y462644D01*
X42036Y462569D01*
X44705Y459900D01*
X44705Y455608D01*
X44708Y455579D01*
X44706Y455550D01*
X44728Y455422D01*
X44745Y455293D01*
X44755Y455265D01*
X44761Y455236D01*
X44814Y455118D01*
X44862Y454997D01*
X44879Y454973D01*
X44891Y454946D01*
X44972Y454845D01*
X45048Y454740D01*
X45071Y454721D01*
X45090Y454698D01*
X45193Y454620D01*
X45293Y454537D01*
X45320Y454524D01*
X45344Y454507D01*
X45488Y454436D01*
X45968Y454237D01*
X48237Y451968D01*
X49465Y449004D01*
X49465Y445796D01*
X48237Y442832D01*
X45968Y440563D01*
X43004Y439335D01*
X39796Y439335D01*
X36832Y440563D01*
X34563Y442832D01*
X33335Y445796D01*
X33335Y449004D01*
X34563Y451968D01*
X36204Y453609D01*
X36264Y453687D01*
X36332Y453759D01*
X36361Y453812D01*
X36398Y453860D01*
X36438Y453951D01*
X36486Y454038D01*
X36501Y454096D01*
X36525Y454152D01*
X36540Y454250D01*
X36565Y454346D01*
X36571Y454446D01*
X36575Y454466D01*
X36573Y454478D01*
X36575Y454506D01*
X36575Y456007D01*
X36563Y456105D01*
X36560Y456204D01*
X36543Y456262D01*
X36535Y456322D01*
X36499Y456414D01*
X36471Y456509D01*
X36441Y456561D01*
X36418Y456618D01*
X36360Y456698D01*
X36310Y456783D01*
X36244Y456859D01*
X36232Y456875D01*
X36222Y456883D01*
X36204Y456904D01*
X26415Y466692D01*
X26415Y521876D01*
X101002Y596462D01*
X101062Y596540D01*
X101130Y596612D01*
X101159Y596665D01*
X101196Y596713D01*
X101236Y596804D01*
X101284Y596891D01*
X101299Y596949D01*
X101323Y597005D01*
X101338Y597103D01*
X101363Y597199D01*
X101369Y597299D01*
X101373Y597319D01*
X101371Y597331D01*
X101373Y597359D01*
X101373Y597448D01*
X102181Y599398D01*
X103674Y600891D01*
X105624Y601699D01*
X107736Y601699D01*
X109686Y600891D01*
X110863Y599714D01*
X110972Y599629D01*
X111079Y599540D01*
X111098Y599532D01*
X111114Y599519D01*
X111241Y599464D01*
X111367Y599405D01*
X111387Y599401D01*
X111406Y599393D01*
X111544Y599371D01*
X111680Y599345D01*
X111700Y599346D01*
X111720Y599343D01*
X111859Y599356D01*
X111997Y599365D01*
X112016Y599371D01*
X112036Y599373D01*
X112168Y599420D01*
X112299Y599463D01*
X112317Y599474D01*
X112336Y599481D01*
X112451Y599559D01*
X112568Y599633D01*
X112582Y599648D01*
X112599Y599659D01*
X112691Y599763D01*
X112786Y599865D01*
X112796Y599882D01*
X112809Y599898D01*
X112873Y600022D01*
X112940Y600143D01*
X112945Y600163D01*
X112954Y600181D01*
X112984Y600317D01*
X113019Y600451D01*
X113021Y600479D01*
X113024Y600491D01*
X113023Y600512D01*
X113029Y600612D01*
X113029Y691121D01*
X113023Y691170D01*
X113025Y691220D01*
X113003Y691327D01*
X112989Y691436D01*
X112971Y691482D01*
X112961Y691531D01*
X112913Y691630D01*
X112872Y691732D01*
X112843Y691772D01*
X112821Y691817D01*
X112750Y691900D01*
X112686Y691989D01*
X112647Y692021D01*
X112615Y692059D01*
X112525Y692122D01*
X112441Y692192D01*
X112396Y692213D01*
X112355Y692242D01*
X112252Y692281D01*
X112153Y692328D01*
X112104Y692337D01*
X112058Y692355D01*
X111948Y692367D01*
X111841Y692387D01*
X111791Y692384D01*
X111742Y692390D01*
X111633Y692374D01*
X111523Y692368D01*
X111476Y692352D01*
X111427Y692345D01*
X111274Y692293D01*
X109768Y691669D01*
X107883Y691669D01*
X107785Y691657D01*
X107686Y691654D01*
X107628Y691637D01*
X107568Y691629D01*
X107476Y691593D01*
X107381Y691565D01*
X107328Y691535D01*
X107272Y691512D01*
X107192Y691454D01*
X107107Y691404D01*
X107031Y691338D01*
X107015Y691326D01*
X107007Y691316D01*
X106986Y691298D01*
X101878Y686190D01*
X101818Y686112D01*
X101750Y686040D01*
X101721Y685987D01*
X101684Y685939D01*
X101644Y685848D01*
X101596Y685761D01*
X101581Y685703D01*
X101557Y685647D01*
X101542Y685549D01*
X101517Y685453D01*
X101511Y685353D01*
X101507Y685333D01*
X101509Y685321D01*
X101507Y685293D01*
X101507Y656172D01*
X101519Y656074D01*
X101522Y655975D01*
X101539Y655916D01*
X101547Y655856D01*
X101583Y655764D01*
X101611Y655669D01*
X101641Y655617D01*
X101664Y655561D01*
X101722Y655481D01*
X101772Y655395D01*
X101838Y655320D01*
X101850Y655303D01*
X101860Y655296D01*
X101878Y655274D01*
X103211Y653942D01*
X104019Y651992D01*
X104019Y649880D01*
X103211Y647930D01*
X101718Y646437D01*
X99768Y645629D01*
X97656Y645629D01*
X95706Y646437D01*
X94213Y647930D01*
X93405Y649880D01*
X93405Y651992D01*
X94213Y653942D01*
X95546Y655274D01*
X95606Y655353D01*
X95674Y655425D01*
X95703Y655478D01*
X95740Y655526D01*
X95780Y655617D01*
X95828Y655703D01*
X95843Y655762D01*
X95867Y655818D01*
X95882Y655915D01*
X95907Y656011D01*
X95913Y656111D01*
X95917Y656132D01*
X95915Y656144D01*
X95917Y656172D01*
X95917Y688134D01*
X97926Y690142D01*
X103034Y695250D01*
X103094Y695328D01*
X103162Y695400D01*
X103191Y695453D01*
X103228Y695501D01*
X103268Y695592D01*
X103316Y695679D01*
X103331Y695737D01*
X103355Y695793D01*
X103370Y695891D01*
X103395Y695987D01*
X103401Y696087D01*
X103405Y696107D01*
X103403Y696119D01*
X103405Y696147D01*
X103405Y698032D01*
X104213Y699982D01*
X105706Y701475D01*
X107656Y702283D01*
X109757Y702283D01*
X109894Y702300D01*
X110033Y702313D01*
X110052Y702320D01*
X110072Y702323D01*
X110201Y702374D01*
X110332Y702421D01*
X110349Y702432D01*
X110368Y702440D01*
X110480Y702521D01*
X110595Y702599D01*
X110609Y702615D01*
X110625Y702626D01*
X110714Y702734D01*
X110806Y702838D01*
X110815Y702856D01*
X110828Y702871D01*
X110887Y702997D01*
X110951Y703121D01*
X110955Y703141D01*
X110964Y703159D01*
X110990Y703295D01*
X111020Y703431D01*
X111020Y703452D01*
X111023Y703471D01*
X111015Y703610D01*
X111011Y703749D01*
X111005Y703769D01*
X111004Y703789D01*
X110961Y703921D01*
X110922Y704055D01*
X110912Y704072D01*
X110906Y704091D01*
X110831Y704209D01*
X110761Y704329D01*
X110742Y704350D01*
X110735Y704360D01*
X110721Y704374D01*
X110654Y704449D01*
X55254Y759850D01*
X55176Y759910D01*
X55104Y759978D01*
X55051Y760007D01*
X55003Y760044D01*
X54912Y760084D01*
X54825Y760132D01*
X54767Y760147D01*
X54711Y760171D01*
X54613Y760186D01*
X54517Y760211D01*
X54417Y760217D01*
X54397Y760221D01*
X54385Y760219D01*
X54357Y760221D01*
X52472Y760221D01*
X50522Y761029D01*
X49029Y762522D01*
X48221Y764472D01*
X48221Y766584D01*
X49029Y768534D01*
X50522Y770027D01*
X52472Y770835D01*
X54584Y770835D01*
X56534Y770027D01*
X58027Y768534D01*
X58835Y766584D01*
X58835Y764699D01*
X58847Y764601D01*
X58850Y764502D01*
X58867Y764444D01*
X58875Y764384D01*
X58911Y764292D01*
X58939Y764197D01*
X58969Y764144D01*
X58992Y764088D01*
X59050Y764008D01*
X59100Y763923D01*
X59166Y763847D01*
X59178Y763831D01*
X59188Y763823D01*
X59206Y763802D01*
X118619Y704390D01*
X118619Y598075D01*
X118631Y597977D01*
X118634Y597878D01*
X118651Y597820D01*
X118659Y597760D01*
X118695Y597668D01*
X118723Y597573D01*
X118753Y597520D01*
X118776Y597464D01*
X118834Y597384D01*
X118884Y597299D01*
X118950Y597223D01*
X118962Y597207D01*
X118972Y597199D01*
X118990Y597178D01*
X178935Y537234D01*
X179026Y537163D01*
X179047Y537143D01*
X179060Y537136D01*
X179151Y537060D01*
X179170Y537051D01*
X179186Y537039D01*
X179314Y536983D01*
X179439Y536924D01*
X179459Y536921D01*
X179478Y536913D01*
X179616Y536891D01*
X179752Y536865D01*
X179772Y536866D01*
X179792Y536863D01*
X179931Y536876D01*
X180069Y536884D01*
X180088Y536891D01*
X180108Y536892D01*
X180240Y536940D01*
X180371Y536982D01*
X180389Y536993D01*
X180408Y537000D01*
X180523Y537078D01*
X180640Y537153D01*
X180654Y537167D01*
X180671Y537179D01*
X180763Y537283D01*
X180858Y537384D01*
X180868Y537402D01*
X180881Y537417D01*
X180945Y537541D01*
X181012Y537663D01*
X181017Y537682D01*
X181026Y537700D01*
X181056Y537836D01*
X181091Y537971D01*
X181093Y537999D01*
X181096Y538011D01*
X181095Y538031D01*
X181098Y538087D01*
X181099Y538088D01*
X181099Y538090D01*
X181101Y538131D01*
X181101Y649573D01*
X181089Y649671D01*
X181086Y649770D01*
X181069Y649828D01*
X181061Y649888D01*
X181025Y649980D01*
X180997Y650075D01*
X180967Y650128D01*
X180944Y650184D01*
X180886Y650264D01*
X180836Y650349D01*
X180770Y650425D01*
X180758Y650441D01*
X180748Y650449D01*
X180730Y650470D01*
X41909Y789290D01*
X41909Y798124D01*
X41894Y798242D01*
X41887Y798361D01*
X41874Y798399D01*
X41869Y798440D01*
X41826Y798550D01*
X41789Y798663D01*
X41767Y798698D01*
X41752Y798735D01*
X41683Y798831D01*
X41619Y798932D01*
X41589Y798960D01*
X41566Y798993D01*
X41474Y799069D01*
X41387Y799150D01*
X41352Y799170D01*
X41321Y799195D01*
X41213Y799246D01*
X41109Y799304D01*
X41069Y799314D01*
X41033Y799331D01*
X40916Y799353D01*
X40801Y799383D01*
X40741Y799387D01*
X40721Y799391D01*
X40700Y799389D01*
X40640Y799393D01*
X34247Y799393D01*
X30606Y800901D01*
X27819Y803688D01*
X26311Y807329D01*
X26311Y811271D01*
X27819Y814912D01*
X30606Y817699D01*
X34247Y819207D01*
X54953Y819207D01*
X58594Y817699D01*
X61381Y814912D01*
X62889Y811271D01*
X62889Y807329D01*
X61381Y803688D01*
X58594Y800901D01*
X54953Y799393D01*
X48768Y799393D01*
X48650Y799378D01*
X48531Y799371D01*
X48493Y799358D01*
X48452Y799353D01*
X48342Y799310D01*
X48229Y799273D01*
X48194Y799251D01*
X48157Y799236D01*
X48061Y799167D01*
X47960Y799103D01*
X47932Y799073D01*
X47899Y799050D01*
X47823Y798958D01*
X47742Y798871D01*
X47722Y798836D01*
X47697Y798805D01*
X47646Y798697D01*
X47588Y798593D01*
X47578Y798553D01*
X47561Y798517D01*
X47539Y798400D01*
X47509Y798285D01*
X47505Y798225D01*
X47501Y798205D01*
X47503Y798184D01*
X47499Y798124D01*
X47499Y792131D01*
X47511Y792033D01*
X47514Y791934D01*
X47531Y791876D01*
X47539Y791816D01*
X47575Y791724D01*
X47603Y791629D01*
X47633Y791576D01*
X47656Y791520D01*
X47714Y791440D01*
X47764Y791355D01*
X47830Y791279D01*
X47842Y791263D01*
X47852Y791255D01*
X47870Y791234D01*
X186691Y652414D01*
X186691Y536099D01*
X186703Y536001D01*
X186706Y535902D01*
X186723Y535844D01*
X186731Y535784D01*
X186767Y535692D01*
X186795Y535597D01*
X186825Y535544D01*
X186848Y535488D01*
X186906Y535408D01*
X186956Y535323D01*
X187022Y535247D01*
X187034Y535231D01*
X187044Y535223D01*
X187062Y535202D01*
X223385Y498880D01*
X223494Y498795D01*
X223601Y498706D01*
X223620Y498697D01*
X223636Y498685D01*
X223764Y498629D01*
X223889Y498570D01*
X223909Y498567D01*
X223928Y498559D01*
X224066Y498537D01*
X224202Y498511D01*
X224222Y498512D01*
X224242Y498509D01*
X224381Y498522D01*
X224519Y498530D01*
X224538Y498537D01*
X224558Y498538D01*
X224690Y498586D01*
X224821Y498628D01*
X224839Y498639D01*
X224858Y498646D01*
X224973Y498724D01*
X225090Y498799D01*
X225104Y498813D01*
X225121Y498825D01*
X225213Y498929D01*
X225308Y499030D01*
X225318Y499048D01*
X225331Y499063D01*
X225395Y499187D01*
X225462Y499309D01*
X225467Y499328D01*
X225476Y499346D01*
X225506Y499482D01*
X225541Y499617D01*
X225543Y499645D01*
X225546Y499657D01*
X225545Y499677D01*
X225551Y499777D01*
X225551Y774506D01*
X225536Y774624D01*
X225529Y774743D01*
X225516Y774781D01*
X225511Y774822D01*
X225468Y774932D01*
X225431Y775045D01*
X225409Y775080D01*
X225394Y775117D01*
X225325Y775213D01*
X225261Y775314D01*
X225231Y775342D01*
X225208Y775375D01*
X225116Y775451D01*
X225029Y775532D01*
X224994Y775552D01*
X224963Y775577D01*
X224855Y775628D01*
X224751Y775686D01*
X224711Y775696D01*
X224675Y775713D01*
X224558Y775735D01*
X224443Y775765D01*
X224383Y775769D01*
X224363Y775773D01*
X224342Y775771D01*
X224282Y775775D01*
X223108Y775775D01*
X214775Y784108D01*
X214775Y795892D01*
X223108Y804225D01*
X230159Y804225D01*
X230296Y804242D01*
X230435Y804255D01*
X230454Y804262D01*
X230474Y804265D01*
X230603Y804316D01*
X230734Y804363D01*
X230751Y804374D01*
X230770Y804382D01*
X230882Y804463D01*
X230997Y804541D01*
X231011Y804557D01*
X231027Y804568D01*
X231116Y804676D01*
X231208Y804780D01*
X231217Y804798D01*
X231230Y804813D01*
X231289Y804939D01*
X231353Y805063D01*
X231357Y805083D01*
X231366Y805101D01*
X231392Y805237D01*
X231422Y805373D01*
X231422Y805394D01*
X231425Y805413D01*
X231417Y805552D01*
X231413Y805691D01*
X231407Y805711D01*
X231406Y805731D01*
X231363Y805863D01*
X231324Y805997D01*
X231314Y806014D01*
X231308Y806033D01*
X231233Y806151D01*
X231163Y806271D01*
X231144Y806292D01*
X231137Y806302D01*
X231123Y806316D01*
X231056Y806391D01*
X169140Y868308D01*
X169062Y868368D01*
X168990Y868436D01*
X168937Y868465D01*
X168889Y868502D01*
X168798Y868542D01*
X168711Y868590D01*
X168653Y868605D01*
X168597Y868629D01*
X168499Y868644D01*
X168403Y868669D01*
X168303Y868675D01*
X168283Y868679D01*
X168271Y868677D01*
X168243Y868679D01*
X110900Y868679D01*
X110802Y868667D01*
X110703Y868664D01*
X110644Y868647D01*
X110584Y868639D01*
X110492Y868603D01*
X110397Y868575D01*
X110345Y868545D01*
X110289Y868522D01*
X110209Y868464D01*
X110123Y868414D01*
X110048Y868348D01*
X110031Y868336D01*
X110024Y868326D01*
X110002Y868308D01*
X108670Y866975D01*
X106720Y866167D01*
X104608Y866167D01*
X102658Y866975D01*
X101165Y868468D01*
X100357Y870418D01*
X100357Y872530D01*
X101165Y874480D01*
X102658Y875973D01*
X104608Y876781D01*
X106720Y876781D01*
X108670Y875973D01*
X110002Y874640D01*
X110081Y874580D01*
X110153Y874512D01*
X110206Y874483D01*
X110254Y874446D01*
X110345Y874406D01*
X110431Y874358D01*
X110490Y874343D01*
X110546Y874319D01*
X110643Y874304D01*
X110739Y874279D01*
X110839Y874273D01*
X110860Y874269D01*
X110872Y874271D01*
X110900Y874269D01*
X166447Y874269D01*
X166584Y874286D01*
X166723Y874299D01*
X166742Y874306D01*
X166762Y874309D01*
X166891Y874360D01*
X167022Y874407D01*
X167039Y874418D01*
X167058Y874426D01*
X167170Y874507D01*
X167285Y874585D01*
X167299Y874601D01*
X167315Y874612D01*
X167404Y874720D01*
X167496Y874824D01*
X167505Y874842D01*
X167518Y874857D01*
X167577Y874983D01*
X167640Y875107D01*
X167645Y875127D01*
X167654Y875145D01*
X167680Y875281D01*
X167710Y875417D01*
X167710Y875438D01*
X167713Y875457D01*
X167705Y875596D01*
X167700Y875735D01*
X167695Y875755D01*
X167694Y875775D01*
X167651Y875907D01*
X167612Y876041D01*
X167602Y876058D01*
X167596Y876077D01*
X167521Y876195D01*
X167451Y876315D01*
X167432Y876336D01*
X167425Y876346D01*
X167410Y876360D01*
X167344Y876435D01*
X159216Y884564D01*
X159138Y884624D01*
X159066Y884692D01*
X159013Y884721D01*
X158965Y884758D01*
X158874Y884798D01*
X158787Y884846D01*
X158729Y884861D01*
X158673Y884885D01*
X158575Y884900D01*
X158479Y884925D01*
X158379Y884931D01*
X158359Y884935D01*
X158347Y884933D01*
X158319Y884935D01*
X104498Y884935D01*
X104375Y884920D01*
X104252Y884911D01*
X104201Y884898D01*
X104182Y884895D01*
X104162Y884888D01*
X104096Y884870D01*
X103320Y884611D01*
X103221Y884661D01*
X103151Y884686D01*
X103084Y884720D01*
X103001Y884738D01*
X102921Y884767D01*
X102847Y884773D01*
X102774Y884789D01*
X102689Y884787D01*
X102604Y884794D01*
X102531Y884782D01*
X102456Y884780D01*
X102374Y884756D01*
X102290Y884742D01*
X102222Y884712D01*
X102151Y884691D01*
X102077Y884648D01*
X101999Y884614D01*
X101941Y884568D01*
X101877Y884530D01*
X101756Y884423D01*
X60410Y843077D01*
X60337Y842983D01*
X60258Y842894D01*
X60240Y842858D01*
X60215Y842826D01*
X60167Y842717D01*
X60113Y842611D01*
X60105Y842571D01*
X60089Y842534D01*
X60070Y842416D01*
X60044Y842301D01*
X60045Y842260D01*
X60039Y842220D01*
X60050Y842102D01*
X60053Y841983D01*
X60065Y841944D01*
X60068Y841904D01*
X60109Y841792D01*
X60142Y841677D01*
X60162Y841642D01*
X60176Y841604D01*
X60243Y841506D01*
X60303Y841403D01*
X60343Y841358D01*
X60355Y841341D01*
X60370Y841328D01*
X60410Y841282D01*
X61381Y840312D01*
X62889Y836671D01*
X62889Y832729D01*
X61381Y829088D01*
X58594Y826301D01*
X54953Y824793D01*
X34247Y824793D01*
X30606Y826301D01*
X30271Y826637D01*
X30177Y826710D01*
X30087Y826789D01*
X30051Y826807D01*
X30019Y826832D01*
X29910Y826879D01*
X29804Y826934D01*
X29765Y826942D01*
X29727Y826958D01*
X29610Y826977D01*
X29494Y827003D01*
X29453Y827002D01*
X29413Y827008D01*
X29295Y826997D01*
X29176Y826994D01*
X29137Y826982D01*
X29097Y826979D01*
X28985Y826938D01*
X28870Y826905D01*
X28836Y826885D01*
X28797Y826871D01*
X28699Y826804D01*
X28596Y826744D01*
X28551Y826704D01*
X28534Y826692D01*
X28521Y826677D01*
X28476Y826637D01*
X18406Y816568D01*
X18346Y816490D01*
X18278Y816418D01*
X18249Y816365D01*
X18212Y816317D01*
X18172Y816226D01*
X18124Y816139D01*
X18109Y816081D01*
X18085Y816025D01*
X18070Y815927D01*
X18045Y815831D01*
X18039Y815731D01*
X18035Y815711D01*
X18037Y815699D01*
X18035Y815671D01*
X18035Y769094D01*
X18050Y768976D01*
X18057Y768857D01*
X18070Y768819D01*
X18075Y768778D01*
X18118Y768668D01*
X18155Y768555D01*
X18177Y768520D01*
X18192Y768483D01*
X18261Y768387D01*
X18325Y768286D01*
X18355Y768258D01*
X18378Y768225D01*
X18470Y768149D01*
X18557Y768068D01*
X18592Y768048D01*
X18623Y768023D01*
X18731Y767972D01*
X18835Y767914D01*
X18875Y767904D01*
X18911Y767887D01*
X19028Y767865D01*
X19143Y767835D01*
X19203Y767831D01*
X19223Y767827D01*
X19244Y767829D01*
X19304Y767825D01*
X29292Y767825D01*
X37625Y759492D01*
X37625Y747708D01*
X29292Y739375D01*
X17508Y739375D01*
X12327Y744556D01*
X12218Y744641D01*
X12111Y744730D01*
X12092Y744738D01*
X12076Y744751D01*
X11948Y744806D01*
X11823Y744865D01*
X11803Y744869D01*
X11784Y744877D01*
X11646Y744899D01*
X11510Y744925D01*
X11490Y744924D01*
X11470Y744927D01*
X11331Y744914D01*
X11193Y744905D01*
X11174Y744899D01*
X11154Y744897D01*
X11022Y744850D01*
X10891Y744807D01*
X10873Y744796D01*
X10854Y744789D01*
X10739Y744711D01*
X10622Y744637D01*
X10608Y744622D01*
X10591Y744611D01*
X10499Y744507D01*
X10404Y744405D01*
X10394Y744388D01*
X10381Y744372D01*
X10317Y744248D01*
X10250Y744127D01*
X10245Y744107D01*
X10236Y744089D01*
X10206Y743953D01*
X10171Y743819D01*
X10169Y743791D01*
X10166Y743779D01*
X10167Y743758D01*
X10161Y743658D01*
X10161Y11430D01*
X10176Y11312D01*
X10183Y11193D01*
X10196Y11155D01*
X10201Y11114D01*
X10244Y11004D01*
X10281Y10891D01*
X10303Y10856D01*
X10318Y10819D01*
X10387Y10723D01*
X10451Y10622D01*
X10481Y10594D01*
X10504Y10561D01*
X10596Y10485D01*
X10683Y10404D01*
X10718Y10384D01*
X10749Y10359D01*
X10857Y10308D01*
X10961Y10250D01*
X11001Y10240D01*
X11037Y10223D01*
X11154Y10201D01*
X11269Y10171D01*
X11329Y10167D01*
X11349Y10163D01*
X11370Y10165D01*
X11430Y10161D01*
X254077Y10161D01*
X254214Y10178D01*
G37*
G36*
X280728Y794955D02*
X280728Y794955D01*
X280867Y794960D01*
X280887Y794965D01*
X280907Y794966D01*
X281039Y795009D01*
X281173Y795048D01*
X281190Y795058D01*
X281209Y795064D01*
X281327Y795139D01*
X281447Y795209D01*
X281468Y795228D01*
X281478Y795235D01*
X281492Y795249D01*
X281567Y795316D01*
X354932Y868681D01*
X456769Y868681D01*
X456867Y868693D01*
X456966Y868696D01*
X457024Y868713D01*
X457084Y868721D01*
X457176Y868757D01*
X457271Y868785D01*
X457323Y868815D01*
X457380Y868838D01*
X457460Y868896D01*
X457545Y868946D01*
X457621Y869012D01*
X457637Y869024D01*
X457645Y869034D01*
X457666Y869052D01*
X503870Y915257D01*
X631814Y915257D01*
X631912Y915269D01*
X632011Y915272D01*
X632070Y915289D01*
X632130Y915297D01*
X632222Y915333D01*
X632317Y915361D01*
X632369Y915391D01*
X632425Y915414D01*
X632506Y915472D01*
X632591Y915522D01*
X632666Y915588D01*
X632683Y915600D01*
X632691Y915610D01*
X632712Y915628D01*
X634108Y917025D01*
X645892Y917025D01*
X646287Y916630D01*
X646381Y916557D01*
X646470Y916478D01*
X646506Y916460D01*
X646538Y916435D01*
X646647Y916388D01*
X646753Y916334D01*
X646793Y916325D01*
X646830Y916309D01*
X646948Y916290D01*
X647064Y916264D01*
X647104Y916265D01*
X647144Y916259D01*
X647263Y916270D01*
X647381Y916274D01*
X647420Y916285D01*
X647461Y916289D01*
X647573Y916329D01*
X647687Y916362D01*
X647722Y916383D01*
X647760Y916396D01*
X647858Y916463D01*
X647961Y916524D01*
X648006Y916564D01*
X648023Y916575D01*
X648036Y916590D01*
X648082Y916630D01*
X665355Y933903D01*
X665355Y933904D01*
X668108Y936656D01*
X839978Y936656D01*
X840096Y936671D01*
X840215Y936679D01*
X840253Y936691D01*
X840294Y936696D01*
X840404Y936740D01*
X840517Y936777D01*
X840552Y936798D01*
X840589Y936813D01*
X840685Y936883D01*
X840786Y936947D01*
X840814Y936976D01*
X840847Y937000D01*
X840923Y937092D01*
X841004Y937178D01*
X841024Y937214D01*
X841049Y937245D01*
X841100Y937353D01*
X841158Y937457D01*
X841168Y937496D01*
X841185Y937533D01*
X841207Y937650D01*
X841237Y937765D01*
X841241Y937825D01*
X841245Y937845D01*
X841243Y937865D01*
X841247Y937926D01*
X841247Y944506D01*
X841232Y944624D01*
X841225Y944743D01*
X841212Y944781D01*
X841207Y944822D01*
X841164Y944932D01*
X841127Y945045D01*
X841105Y945080D01*
X841090Y945117D01*
X841021Y945213D01*
X840957Y945314D01*
X840927Y945342D01*
X840904Y945375D01*
X840812Y945451D01*
X840725Y945532D01*
X840690Y945552D01*
X840659Y945577D01*
X840551Y945628D01*
X840447Y945686D01*
X840407Y945696D01*
X840371Y945713D01*
X840254Y945735D01*
X840139Y945765D01*
X840117Y945766D01*
X831775Y954108D01*
X831775Y965892D01*
X840108Y974225D01*
X851892Y974225D01*
X860225Y965892D01*
X860225Y954108D01*
X851892Y945775D01*
X850646Y945775D01*
X850528Y945760D01*
X850409Y945753D01*
X850371Y945740D01*
X850330Y945735D01*
X850220Y945692D01*
X850107Y945655D01*
X850072Y945633D01*
X850035Y945618D01*
X849939Y945549D01*
X849838Y945485D01*
X849810Y945455D01*
X849777Y945432D01*
X849701Y945340D01*
X849620Y945253D01*
X849600Y945218D01*
X849575Y945187D01*
X849524Y945079D01*
X849466Y944975D01*
X849456Y944935D01*
X849439Y944899D01*
X849417Y944782D01*
X849387Y944667D01*
X849383Y944607D01*
X849379Y944587D01*
X849381Y944566D01*
X849377Y944506D01*
X849377Y858106D01*
X810124Y818854D01*
X810064Y818776D01*
X809996Y818704D01*
X809967Y818651D01*
X809930Y818603D01*
X809890Y818512D01*
X809842Y818425D01*
X809827Y818367D01*
X809803Y818311D01*
X809788Y818213D01*
X809763Y818117D01*
X809757Y818017D01*
X809753Y817997D01*
X809755Y817985D01*
X809753Y817957D01*
X809753Y812702D01*
X809765Y812604D01*
X809768Y812505D01*
X809785Y812446D01*
X809793Y812386D01*
X809829Y812294D01*
X809857Y812199D01*
X809887Y812147D01*
X809910Y812091D01*
X809968Y812011D01*
X810018Y811925D01*
X810084Y811850D01*
X810096Y811833D01*
X810106Y811826D01*
X810124Y811804D01*
X810187Y811742D01*
X810841Y810163D01*
X810865Y810120D01*
X810882Y810073D01*
X810944Y809982D01*
X810998Y809887D01*
X811033Y809851D01*
X811061Y809810D01*
X811143Y809737D01*
X811220Y809658D01*
X811262Y809632D01*
X811299Y809600D01*
X811397Y809550D01*
X811491Y809492D01*
X811538Y809478D01*
X811583Y809455D01*
X811690Y809431D01*
X811795Y809399D01*
X811844Y809396D01*
X811893Y809385D01*
X812003Y809389D01*
X812112Y809383D01*
X812161Y809393D01*
X812211Y809395D01*
X812316Y809425D01*
X812424Y809448D01*
X812469Y809470D01*
X812516Y809483D01*
X812611Y809539D01*
X812710Y809587D01*
X812747Y809620D01*
X812790Y809645D01*
X812911Y809751D01*
X886826Y883667D01*
X931005Y883667D01*
X931142Y883684D01*
X931281Y883697D01*
X931300Y883704D01*
X931320Y883707D01*
X931449Y883758D01*
X931580Y883805D01*
X931597Y883816D01*
X931616Y883824D01*
X931728Y883905D01*
X931843Y883983D01*
X931857Y883999D01*
X931873Y884010D01*
X931962Y884118D01*
X932054Y884222D01*
X932063Y884240D01*
X932076Y884255D01*
X932135Y884381D01*
X932199Y884505D01*
X932203Y884525D01*
X932212Y884543D01*
X932238Y884679D01*
X932268Y884815D01*
X932268Y884836D01*
X932271Y884855D01*
X932263Y884994D01*
X932259Y885133D01*
X932253Y885153D01*
X932252Y885173D01*
X932209Y885305D01*
X932170Y885439D01*
X932160Y885456D01*
X932154Y885475D01*
X932079Y885593D01*
X932009Y885713D01*
X931990Y885734D01*
X931983Y885744D01*
X931968Y885758D01*
X931902Y885833D01*
X929372Y888364D01*
X929294Y888424D01*
X929222Y888492D01*
X929169Y888521D01*
X929121Y888558D01*
X929030Y888598D01*
X928943Y888646D01*
X928885Y888661D01*
X928829Y888685D01*
X928731Y888700D01*
X928635Y888725D01*
X928535Y888731D01*
X928515Y888735D01*
X928503Y888733D01*
X928475Y888735D01*
X928396Y888735D01*
X925432Y889963D01*
X923163Y892232D01*
X921935Y895196D01*
X921935Y898404D01*
X923163Y901368D01*
X925432Y903637D01*
X928396Y904865D01*
X931604Y904865D01*
X934568Y903637D01*
X936837Y901368D01*
X938065Y898404D01*
X938065Y895196D01*
X936837Y892232D01*
X936020Y891415D01*
X935947Y891321D01*
X935869Y891232D01*
X935850Y891196D01*
X935825Y891164D01*
X935778Y891055D01*
X935724Y890949D01*
X935715Y890909D01*
X935699Y890872D01*
X935680Y890754D01*
X935654Y890638D01*
X935656Y890598D01*
X935649Y890558D01*
X935660Y890439D01*
X935664Y890320D01*
X935675Y890281D01*
X935679Y890241D01*
X935719Y890129D01*
X935752Y890015D01*
X935773Y889980D01*
X935787Y889942D01*
X935853Y889843D01*
X935914Y889741D01*
X935954Y889696D01*
X935965Y889679D01*
X935980Y889665D01*
X936020Y889620D01*
X948220Y877420D01*
X948302Y877357D01*
X948360Y877302D01*
X948375Y877294D01*
X948403Y877269D01*
X948439Y877250D01*
X948471Y877225D01*
X948581Y877178D01*
X948637Y877149D01*
X948639Y877148D01*
X948687Y877124D01*
X948726Y877115D01*
X948763Y877099D01*
X948881Y877080D01*
X948997Y877054D01*
X949037Y877056D01*
X949077Y877049D01*
X949196Y877060D01*
X949315Y877064D01*
X949354Y877075D01*
X949394Y877079D01*
X949506Y877119D01*
X949620Y877152D01*
X949655Y877173D01*
X949693Y877187D01*
X949731Y877212D01*
X949739Y877215D01*
X949784Y877248D01*
X949792Y877253D01*
X949894Y877314D01*
X949939Y877354D01*
X949956Y877365D01*
X949970Y877381D01*
X949987Y877396D01*
X949996Y877402D01*
X950000Y877407D01*
X950015Y877420D01*
X950832Y878237D01*
X953796Y879465D01*
X957004Y879465D01*
X959968Y878237D01*
X962237Y875968D01*
X963465Y873004D01*
X963465Y869577D01*
X963477Y869479D01*
X963480Y869380D01*
X963497Y869322D01*
X963505Y869262D01*
X963541Y869170D01*
X963569Y869075D01*
X963599Y869022D01*
X963622Y868966D01*
X963680Y868886D01*
X963730Y868801D01*
X963796Y868725D01*
X963808Y868709D01*
X963818Y868701D01*
X963836Y868680D01*
X987673Y844844D01*
X987782Y844759D01*
X987889Y844670D01*
X987908Y844661D01*
X987924Y844649D01*
X988052Y844593D01*
X988177Y844534D01*
X988197Y844531D01*
X988216Y844523D01*
X988354Y844501D01*
X988490Y844475D01*
X988510Y844476D01*
X988530Y844473D01*
X988669Y844486D01*
X988807Y844494D01*
X988826Y844501D01*
X988846Y844503D01*
X988978Y844550D01*
X989109Y844592D01*
X989127Y844603D01*
X989146Y844610D01*
X989261Y844688D01*
X989378Y844763D01*
X989392Y844777D01*
X989409Y844789D01*
X989501Y844893D01*
X989596Y844994D01*
X989606Y845012D01*
X989619Y845027D01*
X989683Y845151D01*
X989750Y845273D01*
X989755Y845292D01*
X989764Y845310D01*
X989794Y845446D01*
X989829Y845581D01*
X989831Y845609D01*
X989834Y845621D01*
X989833Y845641D01*
X989839Y845741D01*
X989839Y988570D01*
X989824Y988688D01*
X989817Y988807D01*
X989804Y988845D01*
X989799Y988886D01*
X989756Y988996D01*
X989719Y989109D01*
X989697Y989144D01*
X989682Y989181D01*
X989613Y989277D01*
X989549Y989378D01*
X989519Y989406D01*
X989496Y989439D01*
X989404Y989515D01*
X989317Y989596D01*
X989282Y989616D01*
X989251Y989641D01*
X989143Y989692D01*
X989039Y989750D01*
X988999Y989760D01*
X988963Y989777D01*
X988846Y989799D01*
X988731Y989829D01*
X988671Y989833D01*
X988651Y989837D01*
X988630Y989835D01*
X988570Y989839D01*
X11430Y989839D01*
X11312Y989824D01*
X11193Y989817D01*
X11155Y989804D01*
X11114Y989799D01*
X11004Y989756D01*
X10891Y989719D01*
X10856Y989697D01*
X10819Y989682D01*
X10723Y989613D01*
X10622Y989549D01*
X10594Y989519D01*
X10561Y989496D01*
X10485Y989404D01*
X10404Y989317D01*
X10384Y989282D01*
X10359Y989251D01*
X10308Y989143D01*
X10250Y989039D01*
X10240Y988999D01*
X10223Y988963D01*
X10201Y988846D01*
X10171Y988731D01*
X10167Y988671D01*
X10163Y988651D01*
X10165Y988630D01*
X10161Y988570D01*
X10161Y822883D01*
X10178Y822746D01*
X10191Y822607D01*
X10198Y822588D01*
X10201Y822568D01*
X10252Y822439D01*
X10299Y822308D01*
X10310Y822291D01*
X10318Y822272D01*
X10399Y822160D01*
X10477Y822045D01*
X10493Y822031D01*
X10504Y822015D01*
X10612Y821926D01*
X10716Y821834D01*
X10734Y821825D01*
X10749Y821812D01*
X10875Y821753D01*
X10999Y821690D01*
X11019Y821685D01*
X11037Y821676D01*
X11173Y821650D01*
X11309Y821620D01*
X11330Y821620D01*
X11349Y821617D01*
X11488Y821625D01*
X11627Y821630D01*
X11647Y821635D01*
X11667Y821636D01*
X11799Y821679D01*
X11933Y821718D01*
X11950Y821728D01*
X11969Y821734D01*
X12087Y821809D01*
X12207Y821879D01*
X12228Y821898D01*
X12238Y821905D01*
X12252Y821920D01*
X12327Y821986D01*
X25940Y835598D01*
X26000Y835676D01*
X26068Y835748D01*
X26097Y835801D01*
X26134Y835849D01*
X26174Y835940D01*
X26222Y836027D01*
X26237Y836085D01*
X26261Y836141D01*
X26276Y836239D01*
X26301Y836335D01*
X26307Y836435D01*
X26311Y836455D01*
X26309Y836467D01*
X26311Y836495D01*
X26311Y836671D01*
X27819Y840312D01*
X30606Y843099D01*
X34247Y844607D01*
X49917Y844607D01*
X50015Y844619D01*
X50114Y844622D01*
X50172Y844639D01*
X50232Y844647D01*
X50324Y844683D01*
X50419Y844711D01*
X50471Y844741D01*
X50528Y844764D01*
X50608Y844822D01*
X50693Y844872D01*
X50769Y844938D01*
X50785Y844950D01*
X50793Y844960D01*
X50814Y844978D01*
X52846Y847011D01*
X52931Y847120D01*
X53020Y847227D01*
X53029Y847246D01*
X53041Y847262D01*
X53097Y847390D01*
X53156Y847515D01*
X53159Y847535D01*
X53167Y847554D01*
X53189Y847692D01*
X53215Y847828D01*
X53214Y847848D01*
X53217Y847868D01*
X53204Y848007D01*
X53196Y848145D01*
X53189Y848164D01*
X53187Y848184D01*
X53140Y848316D01*
X53098Y848447D01*
X53087Y848465D01*
X53080Y848484D01*
X53002Y848599D01*
X52927Y848716D01*
X52913Y848730D01*
X52901Y848747D01*
X52797Y848839D01*
X52696Y848934D01*
X52678Y848944D01*
X52663Y848957D01*
X52539Y849021D01*
X52417Y849088D01*
X52398Y849093D01*
X52380Y849102D01*
X52244Y849132D01*
X52109Y849167D01*
X52081Y849169D01*
X52069Y849172D01*
X52049Y849171D01*
X51949Y849177D01*
X46599Y849177D01*
X46599Y859370D01*
X46584Y859488D01*
X46577Y859607D01*
X46564Y859645D01*
X46559Y859685D01*
X46516Y859796D01*
X46479Y859909D01*
X46457Y859943D01*
X46442Y859981D01*
X46373Y860077D01*
X46362Y860094D01*
X46376Y860118D01*
X46401Y860150D01*
X46452Y860257D01*
X46510Y860362D01*
X46520Y860401D01*
X46537Y860437D01*
X46559Y860554D01*
X46589Y860670D01*
X46593Y860730D01*
X46597Y860750D01*
X46595Y860770D01*
X46599Y860830D01*
X46599Y871023D01*
X53842Y871023D01*
X55540Y870754D01*
X57175Y870223D01*
X58707Y869442D01*
X60098Y868431D01*
X61313Y867216D01*
X62324Y865825D01*
X63105Y864293D01*
X63636Y862658D01*
X63910Y860925D01*
X63921Y860887D01*
X63925Y860847D01*
X63966Y860734D01*
X63999Y860619D01*
X64019Y860585D01*
X64033Y860548D01*
X64100Y860448D01*
X64161Y860346D01*
X64189Y860318D01*
X64211Y860284D01*
X64301Y860205D01*
X64386Y860121D01*
X64420Y860100D01*
X64450Y860074D01*
X64556Y860020D01*
X64659Y859959D01*
X64698Y859947D01*
X64733Y859929D01*
X64850Y859903D01*
X64965Y859870D01*
X65004Y859868D01*
X65043Y859860D01*
X65163Y859863D01*
X65283Y859860D01*
X65321Y859868D01*
X65361Y859869D01*
X65476Y859903D01*
X65593Y859929D01*
X65628Y859947D01*
X65667Y859958D01*
X65770Y860019D01*
X65876Y860073D01*
X65906Y860099D01*
X65941Y860119D01*
X66061Y860226D01*
X97164Y891328D01*
X97224Y891406D01*
X97292Y891478D01*
X97321Y891531D01*
X97358Y891579D01*
X97398Y891670D01*
X97446Y891757D01*
X97461Y891815D01*
X97485Y891871D01*
X97500Y891969D01*
X97525Y892065D01*
X97531Y892165D01*
X97535Y892185D01*
X97533Y892197D01*
X97535Y892225D01*
X97535Y944506D01*
X97520Y944624D01*
X97513Y944743D01*
X97500Y944781D01*
X97495Y944822D01*
X97452Y944932D01*
X97415Y945045D01*
X97393Y945080D01*
X97378Y945117D01*
X97309Y945213D01*
X97245Y945314D01*
X97215Y945342D01*
X97192Y945375D01*
X97100Y945451D01*
X97013Y945532D01*
X96978Y945552D01*
X96947Y945577D01*
X96870Y945614D01*
X88375Y954108D01*
X88375Y965892D01*
X96708Y974225D01*
X108492Y974225D01*
X116825Y965892D01*
X116825Y954108D01*
X108492Y945775D01*
X106934Y945775D01*
X106816Y945760D01*
X106697Y945753D01*
X106659Y945740D01*
X106618Y945735D01*
X106508Y945692D01*
X106395Y945655D01*
X106360Y945633D01*
X106323Y945618D01*
X106227Y945549D01*
X106126Y945485D01*
X106098Y945455D01*
X106065Y945432D01*
X105989Y945340D01*
X105908Y945253D01*
X105888Y945218D01*
X105863Y945187D01*
X105812Y945079D01*
X105754Y944975D01*
X105744Y944935D01*
X105727Y944899D01*
X105705Y944782D01*
X105675Y944667D01*
X105671Y944607D01*
X105667Y944587D01*
X105669Y944566D01*
X105665Y944506D01*
X105665Y894334D01*
X105680Y894216D01*
X105687Y894097D01*
X105700Y894059D01*
X105705Y894018D01*
X105748Y893908D01*
X105785Y893795D01*
X105807Y893760D01*
X105822Y893723D01*
X105891Y893627D01*
X105955Y893526D01*
X105985Y893498D01*
X106008Y893465D01*
X106100Y893389D01*
X106187Y893308D01*
X106222Y893288D01*
X106253Y893263D01*
X106361Y893212D01*
X106465Y893154D01*
X106505Y893144D01*
X106541Y893127D01*
X106658Y893105D01*
X106773Y893075D01*
X106833Y893071D01*
X106853Y893067D01*
X106874Y893069D01*
X106934Y893065D01*
X162212Y893065D01*
X205409Y849868D01*
X205518Y849783D01*
X205625Y849694D01*
X205644Y849685D01*
X205660Y849673D01*
X205788Y849617D01*
X205913Y849558D01*
X205933Y849555D01*
X205952Y849547D01*
X206090Y849525D01*
X206226Y849499D01*
X206246Y849500D01*
X206266Y849497D01*
X206405Y849510D01*
X206543Y849518D01*
X206562Y849525D01*
X206582Y849527D01*
X206714Y849574D01*
X206845Y849616D01*
X206863Y849627D01*
X206882Y849634D01*
X206997Y849712D01*
X207114Y849787D01*
X207128Y849801D01*
X207145Y849813D01*
X207237Y849917D01*
X207332Y850018D01*
X207342Y850036D01*
X207355Y850051D01*
X207419Y850175D01*
X207486Y850297D01*
X207491Y850316D01*
X207500Y850334D01*
X207530Y850470D01*
X207565Y850605D01*
X207567Y850633D01*
X207570Y850645D01*
X207569Y850665D01*
X207575Y850765D01*
X207575Y859492D01*
X215908Y867825D01*
X227692Y867825D01*
X236025Y859492D01*
X236025Y847708D01*
X235542Y847225D01*
X235457Y847116D01*
X235368Y847009D01*
X235360Y846990D01*
X235347Y846974D01*
X235292Y846846D01*
X235233Y846721D01*
X235229Y846701D01*
X235221Y846682D01*
X235199Y846544D01*
X235173Y846408D01*
X235174Y846388D01*
X235171Y846368D01*
X235184Y846229D01*
X235193Y846091D01*
X235199Y846072D01*
X235201Y846052D01*
X235248Y845921D01*
X235291Y845789D01*
X235302Y845771D01*
X235309Y845752D01*
X235386Y845638D01*
X235461Y845520D01*
X235476Y845506D01*
X235487Y845489D01*
X235591Y845397D01*
X235693Y845302D01*
X235710Y845292D01*
X235726Y845279D01*
X235849Y845216D01*
X235971Y845148D01*
X235991Y845143D01*
X236009Y845134D01*
X236145Y845104D01*
X236279Y845069D01*
X236307Y845067D01*
X236319Y845064D01*
X236340Y845065D01*
X236440Y845059D01*
X244508Y845059D01*
X279401Y810166D01*
X279401Y796213D01*
X279418Y796076D01*
X279431Y795937D01*
X279438Y795918D01*
X279441Y795898D01*
X279492Y795769D01*
X279539Y795638D01*
X279550Y795621D01*
X279558Y795602D01*
X279639Y795490D01*
X279717Y795375D01*
X279733Y795361D01*
X279744Y795345D01*
X279852Y795256D01*
X279956Y795164D01*
X279974Y795155D01*
X279989Y795142D01*
X280115Y795083D01*
X280239Y795020D01*
X280259Y795015D01*
X280277Y795006D01*
X280413Y794980D01*
X280549Y794950D01*
X280570Y794950D01*
X280589Y794947D01*
X280728Y794955D01*
G37*
G36*
X389468Y406810D02*
X389468Y406810D01*
X389592Y406819D01*
X389626Y406830D01*
X389660Y406835D01*
X389776Y406880D01*
X389894Y406920D01*
X389924Y406939D01*
X389956Y406952D01*
X390057Y407025D01*
X390161Y407092D01*
X390185Y407118D01*
X390214Y407138D01*
X390293Y407234D01*
X390377Y407326D01*
X390394Y407356D01*
X390416Y407383D01*
X390469Y407496D01*
X390528Y407605D01*
X390537Y407639D01*
X390552Y407671D01*
X390575Y407793D01*
X390605Y407914D01*
X390605Y407949D01*
X390612Y407983D01*
X390604Y408107D01*
X390603Y408232D01*
X390594Y408266D01*
X390592Y408301D01*
X390554Y408419D01*
X390522Y408539D01*
X390505Y408570D01*
X390494Y408603D01*
X390427Y408708D01*
X390367Y408817D01*
X390334Y408856D01*
X390324Y408872D01*
X390308Y408887D01*
X390263Y408940D01*
X389217Y410036D01*
X389210Y410042D01*
X389196Y410057D01*
X388211Y411042D01*
X388205Y411051D01*
X388164Y411125D01*
X388073Y411233D01*
X388068Y411240D01*
X388065Y411243D01*
X388060Y411248D01*
X315809Y486940D01*
X315759Y486980D01*
X315716Y487028D01*
X315637Y487080D01*
X315563Y487140D01*
X315504Y487167D01*
X315450Y487203D01*
X315360Y487234D01*
X315274Y487274D01*
X315210Y487285D01*
X315150Y487306D01*
X315055Y487314D01*
X314961Y487331D01*
X314897Y487326D01*
X314833Y487331D01*
X314739Y487315D01*
X314644Y487308D01*
X314583Y487288D01*
X314519Y487277D01*
X314432Y487238D01*
X314342Y487208D01*
X314288Y487173D01*
X314229Y487146D01*
X314155Y487087D01*
X314075Y487035D01*
X314031Y486988D01*
X313981Y486948D01*
X313923Y486871D01*
X313859Y486802D01*
X313828Y486745D01*
X313790Y486694D01*
X313719Y486549D01*
X313363Y485690D01*
X311870Y484197D01*
X309920Y483389D01*
X307808Y483389D01*
X305858Y484197D01*
X304526Y485530D01*
X304447Y485590D01*
X304375Y485658D01*
X304322Y485687D01*
X304274Y485724D01*
X304183Y485764D01*
X304097Y485812D01*
X304038Y485827D01*
X303982Y485851D01*
X303885Y485866D01*
X303789Y485891D01*
X303689Y485897D01*
X303668Y485901D01*
X303656Y485899D01*
X303628Y485901D01*
X300754Y485901D01*
X235847Y550808D01*
X235738Y550893D01*
X235631Y550982D01*
X235612Y550991D01*
X235596Y551003D01*
X235468Y551059D01*
X235343Y551118D01*
X235323Y551121D01*
X235304Y551129D01*
X235166Y551151D01*
X235030Y551177D01*
X235010Y551176D01*
X234990Y551179D01*
X234851Y551166D01*
X234713Y551158D01*
X234694Y551151D01*
X234674Y551150D01*
X234542Y551102D01*
X234411Y551060D01*
X234393Y551049D01*
X234374Y551042D01*
X234259Y550964D01*
X234142Y550889D01*
X234128Y550875D01*
X234111Y550863D01*
X234019Y550759D01*
X233924Y550658D01*
X233914Y550640D01*
X233901Y550625D01*
X233837Y550501D01*
X233770Y550379D01*
X233765Y550360D01*
X233756Y550342D01*
X233726Y550206D01*
X233691Y550071D01*
X233689Y550043D01*
X233686Y550031D01*
X233687Y550011D01*
X233681Y549911D01*
X233681Y501065D01*
X233693Y500967D01*
X233696Y500868D01*
X233713Y500810D01*
X233721Y500750D01*
X233757Y500658D01*
X233785Y500563D01*
X233815Y500511D01*
X233838Y500454D01*
X233896Y500374D01*
X233946Y500289D01*
X234012Y500213D01*
X234024Y500197D01*
X234034Y500189D01*
X234052Y500168D01*
X256102Y478118D01*
X256180Y478058D01*
X256252Y477990D01*
X256305Y477961D01*
X256353Y477924D01*
X256444Y477884D01*
X256531Y477836D01*
X256589Y477821D01*
X256645Y477797D01*
X256743Y477782D01*
X256839Y477757D01*
X256939Y477751D01*
X256959Y477747D01*
X256971Y477749D01*
X256999Y477747D01*
X257088Y477747D01*
X259038Y476939D01*
X260531Y475446D01*
X261339Y473496D01*
X261339Y471384D01*
X260531Y469434D01*
X259038Y467941D01*
X257459Y467287D01*
X257416Y467263D01*
X257369Y467246D01*
X257278Y467184D01*
X257183Y467130D01*
X257147Y467095D01*
X257106Y467067D01*
X257033Y466985D01*
X256954Y466908D01*
X256928Y466866D01*
X256896Y466829D01*
X256846Y466731D01*
X256788Y466637D01*
X256774Y466590D01*
X256751Y466545D01*
X256727Y466438D01*
X256695Y466333D01*
X256692Y466284D01*
X256681Y466235D01*
X256685Y466125D01*
X256679Y466016D01*
X256689Y465967D01*
X256691Y465917D01*
X256721Y465812D01*
X256744Y465704D01*
X256766Y465659D01*
X256779Y465612D01*
X256835Y465517D01*
X256883Y465418D01*
X256916Y465381D01*
X256941Y465338D01*
X257047Y465217D01*
X299490Y422774D01*
X299568Y422714D01*
X299640Y422646D01*
X299693Y422617D01*
X299741Y422580D01*
X299832Y422540D01*
X299919Y422492D01*
X299977Y422477D01*
X300033Y422453D01*
X300131Y422438D01*
X300227Y422413D01*
X300327Y422407D01*
X300347Y422403D01*
X300359Y422405D01*
X300387Y422403D01*
X324964Y422403D01*
X325062Y422415D01*
X325161Y422418D01*
X325220Y422435D01*
X325280Y422443D01*
X325372Y422479D01*
X325467Y422507D01*
X325519Y422537D01*
X325575Y422560D01*
X325655Y422618D01*
X325741Y422668D01*
X325816Y422734D01*
X325833Y422746D01*
X325840Y422756D01*
X325862Y422774D01*
X327194Y424107D01*
X329144Y424915D01*
X331256Y424915D01*
X333206Y424107D01*
X334699Y422614D01*
X335507Y420664D01*
X335507Y418566D01*
X335522Y418448D01*
X335529Y418329D01*
X335542Y418290D01*
X335547Y418250D01*
X335590Y418139D01*
X335627Y418026D01*
X335649Y417992D01*
X335664Y417955D01*
X335733Y417858D01*
X335797Y417758D01*
X335827Y417730D01*
X335850Y417697D01*
X335942Y417621D01*
X336029Y417540D01*
X336064Y417520D01*
X336095Y417494D01*
X336203Y417444D01*
X336307Y417386D01*
X336347Y417376D01*
X336383Y417359D01*
X336500Y417337D01*
X336615Y417307D01*
X336675Y417303D01*
X336695Y417299D01*
X336716Y417300D01*
X336776Y417297D01*
X336871Y417297D01*
X336876Y417296D01*
X336897Y417293D01*
X336909Y417294D01*
X336938Y417292D01*
X368775Y417208D01*
X368874Y417221D01*
X368975Y417224D01*
X369032Y417240D01*
X369090Y417247D01*
X369184Y417284D01*
X369281Y417312D01*
X369331Y417342D01*
X369386Y417364D01*
X369468Y417423D01*
X369555Y417474D01*
X369627Y417538D01*
X369644Y417550D01*
X369652Y417560D01*
X369675Y417580D01*
X370994Y418899D01*
X372944Y419707D01*
X375056Y419707D01*
X377006Y418899D01*
X378499Y417406D01*
X379307Y415456D01*
X379307Y413344D01*
X378499Y411394D01*
X377006Y409901D01*
X375402Y409237D01*
X375341Y409202D01*
X375276Y409176D01*
X375203Y409124D01*
X375125Y409079D01*
X375075Y409031D01*
X375019Y408990D01*
X374961Y408920D01*
X374897Y408858D01*
X374861Y408798D01*
X374816Y408745D01*
X374778Y408663D01*
X374731Y408587D01*
X374710Y408520D01*
X374680Y408457D01*
X374664Y408369D01*
X374637Y408283D01*
X374634Y408213D01*
X374621Y408144D01*
X374626Y408055D01*
X374622Y407965D01*
X374636Y407897D01*
X374640Y407827D01*
X374668Y407742D01*
X374686Y407654D01*
X374717Y407591D01*
X374738Y407525D01*
X374786Y407449D01*
X374826Y407368D01*
X374871Y407315D01*
X374909Y407256D01*
X374974Y407194D01*
X375032Y407126D01*
X375089Y407086D01*
X375140Y407038D01*
X375219Y406995D01*
X375292Y406943D01*
X375358Y406918D01*
X375419Y406884D01*
X375506Y406862D01*
X375590Y406830D01*
X375659Y406822D01*
X375727Y406805D01*
X375887Y406795D01*
X389345Y406795D01*
X389468Y406810D01*
G37*
%LPC*%
G36*
X682356Y180847D02*
X682356Y180847D01*
X673805Y189398D01*
X673805Y216487D01*
X673802Y216516D01*
X673804Y216546D01*
X673782Y216674D01*
X673765Y216802D01*
X673755Y216830D01*
X673750Y216859D01*
X673696Y216977D01*
X673648Y217098D01*
X673631Y217122D01*
X673619Y217149D01*
X673538Y217250D01*
X673462Y217355D01*
X673439Y217374D01*
X673420Y217397D01*
X673317Y217475D01*
X673217Y217558D01*
X673190Y217571D01*
X673166Y217589D01*
X673022Y217659D01*
X670413Y218740D01*
X667340Y221813D01*
X665677Y225827D01*
X665677Y230173D01*
X666653Y232527D01*
X666660Y232556D01*
X666674Y232582D01*
X666702Y232709D01*
X666736Y232834D01*
X666737Y232863D01*
X666743Y232892D01*
X666739Y233022D01*
X666742Y233152D01*
X666735Y233181D01*
X666734Y233210D01*
X666698Y233335D01*
X666667Y233461D01*
X666654Y233487D01*
X666645Y233516D01*
X666579Y233627D01*
X666519Y233742D01*
X666499Y233764D01*
X666484Y233789D01*
X666377Y233910D01*
X541717Y358570D01*
X541717Y485116D01*
X541705Y485214D01*
X541702Y485313D01*
X541685Y485372D01*
X541677Y485432D01*
X541641Y485524D01*
X541613Y485619D01*
X541583Y485671D01*
X541560Y485727D01*
X541502Y485807D01*
X541452Y485893D01*
X541386Y485968D01*
X541374Y485985D01*
X541364Y485992D01*
X541346Y486014D01*
X540013Y487346D01*
X539205Y489296D01*
X539205Y491408D01*
X540013Y493358D01*
X541506Y494851D01*
X543456Y495659D01*
X545568Y495659D01*
X547518Y494851D01*
X549011Y493358D01*
X549819Y491408D01*
X549819Y489296D01*
X549011Y487346D01*
X547678Y486014D01*
X547618Y485935D01*
X547550Y485863D01*
X547521Y485810D01*
X547484Y485762D01*
X547444Y485671D01*
X547396Y485585D01*
X547381Y485526D01*
X547357Y485470D01*
X547342Y485373D01*
X547317Y485277D01*
X547311Y485177D01*
X547307Y485156D01*
X547309Y485144D01*
X547307Y485116D01*
X547307Y361411D01*
X547319Y361313D01*
X547322Y361214D01*
X547339Y361156D01*
X547347Y361096D01*
X547383Y361004D01*
X547411Y360909D01*
X547441Y360856D01*
X547464Y360800D01*
X547522Y360720D01*
X547572Y360635D01*
X547638Y360559D01*
X547650Y360543D01*
X547660Y360535D01*
X547678Y360514D01*
X670181Y238012D01*
X670204Y237994D01*
X670223Y237971D01*
X670329Y237897D01*
X670432Y237817D01*
X670459Y237805D01*
X670483Y237788D01*
X670604Y237742D01*
X670724Y237690D01*
X670753Y237686D01*
X670780Y237675D01*
X670909Y237661D01*
X671038Y237641D01*
X671067Y237643D01*
X671097Y237640D01*
X671225Y237658D01*
X671354Y237670D01*
X671382Y237680D01*
X671411Y237685D01*
X671564Y237737D01*
X674427Y238923D01*
X678773Y238923D01*
X682787Y237260D01*
X685860Y234187D01*
X687523Y230173D01*
X687523Y225827D01*
X685860Y221813D01*
X682787Y218740D01*
X680178Y217659D01*
X680153Y217645D01*
X680125Y217636D01*
X680015Y217566D01*
X679902Y217502D01*
X679881Y217481D01*
X679856Y217466D01*
X679767Y217371D01*
X679674Y217281D01*
X679658Y217255D01*
X679638Y217234D01*
X679575Y217120D01*
X679507Y217010D01*
X679499Y216981D01*
X679484Y216955D01*
X679452Y216830D01*
X679414Y216706D01*
X679412Y216676D01*
X679405Y216648D01*
X679395Y216487D01*
X679395Y192239D01*
X679407Y192141D01*
X679410Y192042D01*
X679427Y191984D01*
X679435Y191924D01*
X679471Y191832D01*
X679499Y191737D01*
X679529Y191684D01*
X679552Y191628D01*
X679610Y191548D01*
X679660Y191463D01*
X679726Y191387D01*
X679738Y191371D01*
X679748Y191363D01*
X679766Y191342D01*
X684300Y186808D01*
X684378Y186748D01*
X684450Y186680D01*
X684503Y186651D01*
X684551Y186614D01*
X684642Y186574D01*
X684729Y186526D01*
X684787Y186511D01*
X684843Y186487D01*
X684941Y186472D01*
X685037Y186447D01*
X685137Y186441D01*
X685157Y186437D01*
X685169Y186439D01*
X685197Y186437D01*
X840073Y186437D01*
X840171Y186449D01*
X840270Y186452D01*
X840328Y186469D01*
X840388Y186477D01*
X840480Y186513D01*
X840575Y186541D01*
X840628Y186571D01*
X840684Y186594D01*
X840764Y186652D01*
X840849Y186702D01*
X840925Y186768D01*
X840941Y186780D01*
X840949Y186790D01*
X840970Y186808D01*
X856734Y202572D01*
X856794Y202650D01*
X856862Y202722D01*
X856891Y202775D01*
X856928Y202823D01*
X856968Y202914D01*
X857016Y203001D01*
X857031Y203059D01*
X857055Y203115D01*
X857070Y203213D01*
X857095Y203309D01*
X857101Y203409D01*
X857105Y203429D01*
X857103Y203441D01*
X857105Y203469D01*
X857105Y219027D01*
X857102Y219056D01*
X857104Y219086D01*
X857082Y219214D01*
X857065Y219342D01*
X857055Y219370D01*
X857050Y219399D01*
X856996Y219517D01*
X856948Y219638D01*
X856931Y219662D01*
X856919Y219689D01*
X856838Y219790D01*
X856762Y219895D01*
X856739Y219914D01*
X856720Y219937D01*
X856617Y220015D01*
X856517Y220098D01*
X856490Y220111D01*
X856466Y220129D01*
X856322Y220199D01*
X853713Y221280D01*
X850640Y224353D01*
X848977Y228367D01*
X848977Y232713D01*
X850640Y236727D01*
X853713Y239800D01*
X857727Y241463D01*
X862073Y241463D01*
X866087Y239800D01*
X869160Y236727D01*
X870823Y232713D01*
X870823Y228367D01*
X869160Y224353D01*
X866087Y221280D01*
X863478Y220199D01*
X863453Y220185D01*
X863425Y220176D01*
X863315Y220106D01*
X863202Y220042D01*
X863181Y220021D01*
X863156Y220006D01*
X863067Y219911D01*
X862974Y219821D01*
X862958Y219795D01*
X862938Y219774D01*
X862875Y219660D01*
X862807Y219550D01*
X862799Y219521D01*
X862784Y219495D01*
X862752Y219370D01*
X862714Y219246D01*
X862712Y219216D01*
X862705Y219188D01*
X862695Y219027D01*
X862695Y200628D01*
X842914Y180847D01*
X682356Y180847D01*
G37*
%LPD*%
%LPC*%
G36*
X699827Y217077D02*
X699827Y217077D01*
X695813Y218740D01*
X692740Y221813D01*
X691077Y225827D01*
X691077Y230173D01*
X692740Y234187D01*
X695813Y237260D01*
X697462Y237943D01*
X697487Y237957D01*
X697515Y237967D01*
X697625Y238036D01*
X697738Y238100D01*
X697759Y238121D01*
X697784Y238137D01*
X697873Y238231D01*
X697966Y238322D01*
X697982Y238347D01*
X698002Y238368D01*
X698065Y238482D01*
X698133Y238593D01*
X698141Y238621D01*
X698156Y238647D01*
X698188Y238773D01*
X698226Y238897D01*
X698228Y238926D01*
X698235Y238955D01*
X698245Y239115D01*
X698245Y354214D01*
X698236Y354287D01*
X698237Y354360D01*
X698216Y354444D01*
X698205Y354530D01*
X698178Y354598D01*
X698161Y354669D01*
X698120Y354745D01*
X698088Y354825D01*
X698045Y354885D01*
X698010Y354949D01*
X697909Y355075D01*
X562774Y501589D01*
X562679Y501669D01*
X562588Y501754D01*
X562557Y501771D01*
X562530Y501793D01*
X562418Y501847D01*
X562309Y501908D01*
X562275Y501916D01*
X562244Y501931D01*
X562122Y501956D01*
X562001Y501987D01*
X561950Y501990D01*
X561932Y501994D01*
X561911Y501993D01*
X561841Y501997D01*
X560248Y501997D01*
X558298Y502805D01*
X556805Y504298D01*
X555997Y506248D01*
X555997Y508360D01*
X556805Y510310D01*
X558298Y511803D01*
X560248Y512611D01*
X562360Y512611D01*
X564310Y511803D01*
X565803Y510310D01*
X566611Y508360D01*
X566611Y506169D01*
X566620Y506096D01*
X566619Y506022D01*
X566640Y505938D01*
X566651Y505853D01*
X566678Y505785D01*
X566695Y505713D01*
X566736Y505637D01*
X566768Y505557D01*
X566811Y505498D01*
X566846Y505433D01*
X566947Y505308D01*
X703039Y357757D01*
X703050Y357747D01*
X703074Y357720D01*
X703882Y356913D01*
X703836Y355771D01*
X703837Y355756D01*
X703835Y355720D01*
X703835Y281178D01*
X703850Y281060D01*
X703857Y280941D01*
X703870Y280903D01*
X703875Y280862D01*
X703918Y280752D01*
X703955Y280639D01*
X703977Y280604D01*
X703992Y280567D01*
X704061Y280471D01*
X704125Y280370D01*
X704155Y280342D01*
X704178Y280309D01*
X704270Y280233D01*
X704357Y280152D01*
X704392Y280132D01*
X704423Y280107D01*
X704531Y280056D01*
X704635Y279998D01*
X704675Y279988D01*
X704711Y279971D01*
X704828Y279949D01*
X704943Y279919D01*
X705003Y279915D01*
X705023Y279911D01*
X705044Y279913D01*
X705104Y279909D01*
X859170Y279909D01*
X888095Y250984D01*
X888095Y239513D01*
X888098Y239484D01*
X888096Y239454D01*
X888118Y239326D01*
X888135Y239198D01*
X888145Y239170D01*
X888150Y239141D01*
X888204Y239023D01*
X888252Y238902D01*
X888269Y238878D01*
X888281Y238851D01*
X888362Y238750D01*
X888438Y238645D01*
X888461Y238626D01*
X888480Y238603D01*
X888583Y238525D01*
X888683Y238442D01*
X888710Y238429D01*
X888734Y238411D01*
X888878Y238341D01*
X891487Y237260D01*
X894560Y234187D01*
X896223Y230173D01*
X896223Y225827D01*
X894560Y221813D01*
X891487Y218740D01*
X887473Y217077D01*
X883127Y217077D01*
X879113Y218740D01*
X876040Y221813D01*
X874377Y225827D01*
X874377Y230173D01*
X876040Y234187D01*
X879113Y237260D01*
X881722Y238341D01*
X881747Y238355D01*
X881775Y238364D01*
X881885Y238434D01*
X881998Y238498D01*
X882019Y238519D01*
X882044Y238534D01*
X882133Y238629D01*
X882226Y238719D01*
X882242Y238745D01*
X882262Y238766D01*
X882325Y238880D01*
X882393Y238990D01*
X882401Y239019D01*
X882416Y239045D01*
X882448Y239170D01*
X882486Y239294D01*
X882488Y239324D01*
X882495Y239352D01*
X882505Y239513D01*
X882505Y248143D01*
X882493Y248241D01*
X882490Y248340D01*
X882473Y248398D01*
X882465Y248458D01*
X882429Y248550D01*
X882401Y248645D01*
X882371Y248698D01*
X882348Y248754D01*
X882290Y248834D01*
X882240Y248919D01*
X882174Y248995D01*
X882162Y249011D01*
X882152Y249019D01*
X882134Y249040D01*
X857226Y273948D01*
X857148Y274008D01*
X857076Y274076D01*
X857023Y274105D01*
X856975Y274142D01*
X856884Y274182D01*
X856797Y274230D01*
X856739Y274245D01*
X856683Y274269D01*
X856585Y274284D01*
X856489Y274309D01*
X856389Y274315D01*
X856369Y274319D01*
X856357Y274317D01*
X856329Y274319D01*
X705104Y274319D01*
X704986Y274304D01*
X704867Y274297D01*
X704829Y274284D01*
X704788Y274279D01*
X704678Y274236D01*
X704565Y274199D01*
X704530Y274177D01*
X704493Y274162D01*
X704397Y274093D01*
X704296Y274029D01*
X704268Y273999D01*
X704235Y273976D01*
X704159Y273884D01*
X704078Y273797D01*
X704058Y273762D01*
X704033Y273731D01*
X703982Y273623D01*
X703924Y273519D01*
X703914Y273479D01*
X703897Y273443D01*
X703875Y273326D01*
X703845Y273211D01*
X703841Y273151D01*
X703837Y273131D01*
X703839Y273110D01*
X703835Y273050D01*
X703835Y239911D01*
X703838Y239882D01*
X703836Y239852D01*
X703858Y239724D01*
X703875Y239595D01*
X703885Y239568D01*
X703890Y239539D01*
X703944Y239420D01*
X703992Y239300D01*
X704009Y239276D01*
X704021Y239249D01*
X704102Y239147D01*
X704178Y239042D01*
X704201Y239023D01*
X704220Y239000D01*
X704323Y238922D01*
X704423Y238839D01*
X704450Y238827D01*
X704474Y238809D01*
X704618Y238738D01*
X708187Y237260D01*
X711260Y234187D01*
X712923Y230173D01*
X712923Y225827D01*
X711260Y221813D01*
X708187Y218740D01*
X704173Y217077D01*
X699827Y217077D01*
G37*
%LPD*%
%LPC*%
G36*
X634108Y945775D02*
X634108Y945775D01*
X625775Y954108D01*
X625775Y965892D01*
X634108Y974225D01*
X645892Y974225D01*
X654225Y965892D01*
X654225Y954108D01*
X645892Y945775D01*
X634108Y945775D01*
G37*
%LPD*%
%LPC*%
G36*
X219608Y945775D02*
X219608Y945775D01*
X211275Y954108D01*
X211275Y965892D01*
X219608Y974225D01*
X231392Y974225D01*
X239725Y965892D01*
X239725Y954108D01*
X231392Y945775D01*
X219608Y945775D01*
G37*
%LPD*%
%LPC*%
G36*
X34247Y900993D02*
X34247Y900993D01*
X30606Y902501D01*
X27819Y905288D01*
X26311Y908929D01*
X26311Y912871D01*
X27819Y916512D01*
X30606Y919299D01*
X34247Y920807D01*
X54953Y920807D01*
X58594Y919299D01*
X61381Y916512D01*
X62889Y912871D01*
X62889Y908929D01*
X61381Y905288D01*
X58594Y902501D01*
X54953Y900993D01*
X34247Y900993D01*
G37*
%LPD*%
%LPC*%
G36*
X34247Y875593D02*
X34247Y875593D01*
X30606Y877101D01*
X27819Y879888D01*
X26311Y883529D01*
X26311Y887471D01*
X27819Y891112D01*
X30606Y893899D01*
X34247Y895407D01*
X54953Y895407D01*
X58594Y893899D01*
X61381Y891112D01*
X62889Y887471D01*
X62889Y883529D01*
X61381Y879888D01*
X58594Y877101D01*
X54953Y875593D01*
X34247Y875593D01*
G37*
%LPD*%
%LPC*%
G36*
X34247Y926393D02*
X34247Y926393D01*
X30606Y927901D01*
X27819Y930688D01*
X26311Y934329D01*
X26311Y938271D01*
X27819Y941912D01*
X30606Y944699D01*
X34247Y946207D01*
X54953Y946207D01*
X58594Y944699D01*
X61381Y941912D01*
X62889Y938271D01*
X62889Y934329D01*
X61381Y930688D01*
X58594Y927901D01*
X54953Y926393D01*
X34247Y926393D01*
G37*
%LPD*%
%LPC*%
G36*
X966442Y27729D02*
X966442Y27729D01*
X961697Y29695D01*
X958065Y33327D01*
X956099Y38072D01*
X956099Y43208D01*
X958065Y47953D01*
X961697Y51585D01*
X966442Y53551D01*
X971578Y53551D01*
X976323Y51585D01*
X979955Y47953D01*
X981921Y43208D01*
X981921Y38072D01*
X979955Y33327D01*
X976323Y29695D01*
X971578Y27729D01*
X966442Y27729D01*
G37*
%LPD*%
%LPC*%
G36*
X228572Y178859D02*
X228572Y178859D01*
X223827Y180825D01*
X220195Y184457D01*
X218229Y189202D01*
X218229Y194338D01*
X220195Y199083D01*
X223827Y202715D01*
X228572Y204681D01*
X233708Y204681D01*
X238453Y202715D01*
X242085Y199083D01*
X244051Y194338D01*
X244051Y189202D01*
X242085Y184457D01*
X238453Y180825D01*
X233708Y178859D01*
X228572Y178859D01*
G37*
%LPD*%
%LPC*%
G36*
X540992Y937049D02*
X540992Y937049D01*
X536247Y939015D01*
X532615Y942647D01*
X530649Y947392D01*
X530649Y952528D01*
X532615Y957273D01*
X536247Y960905D01*
X540992Y962871D01*
X546128Y962871D01*
X550873Y960905D01*
X554505Y957273D01*
X556471Y952528D01*
X556471Y947392D01*
X554505Y942647D01*
X550873Y939015D01*
X546128Y937049D01*
X540992Y937049D01*
G37*
%LPD*%
%LPC*%
G36*
X304440Y339813D02*
X304440Y339813D01*
X302490Y340621D01*
X300997Y342114D01*
X300189Y344064D01*
X300189Y346176D01*
X300997Y348126D01*
X302490Y349619D01*
X304440Y350427D01*
X306325Y350427D01*
X306423Y350439D01*
X306522Y350442D01*
X306580Y350459D01*
X306640Y350467D01*
X306732Y350503D01*
X306827Y350531D01*
X306880Y350561D01*
X306936Y350584D01*
X307016Y350642D01*
X307101Y350692D01*
X307177Y350758D01*
X307193Y350770D01*
X307201Y350780D01*
X307222Y350798D01*
X324978Y368555D01*
X364588Y368555D01*
X364686Y368567D01*
X364785Y368570D01*
X364844Y368587D01*
X364904Y368595D01*
X364996Y368631D01*
X365091Y368659D01*
X365143Y368689D01*
X365199Y368712D01*
X365279Y368770D01*
X365365Y368820D01*
X365440Y368886D01*
X365457Y368898D01*
X365464Y368908D01*
X365486Y368926D01*
X366818Y370259D01*
X368768Y371067D01*
X370880Y371067D01*
X372830Y370259D01*
X374323Y368766D01*
X375131Y366816D01*
X375131Y364704D01*
X374323Y362754D01*
X372830Y361261D01*
X370880Y360453D01*
X368768Y360453D01*
X366818Y361261D01*
X365486Y362594D01*
X365407Y362654D01*
X365335Y362722D01*
X365282Y362751D01*
X365234Y362788D01*
X365143Y362828D01*
X365057Y362876D01*
X364998Y362891D01*
X364942Y362915D01*
X364845Y362930D01*
X364749Y362955D01*
X364649Y362961D01*
X364628Y362965D01*
X364616Y362963D01*
X364588Y362965D01*
X327819Y362965D01*
X327721Y362953D01*
X327622Y362950D01*
X327564Y362933D01*
X327504Y362925D01*
X327412Y362889D01*
X327317Y362861D01*
X327264Y362831D01*
X327208Y362808D01*
X327128Y362750D01*
X327043Y362700D01*
X326967Y362634D01*
X326951Y362622D01*
X326943Y362612D01*
X326922Y362594D01*
X311174Y346846D01*
X311114Y346768D01*
X311046Y346696D01*
X311017Y346643D01*
X310980Y346595D01*
X310940Y346504D01*
X310892Y346417D01*
X310877Y346359D01*
X310853Y346303D01*
X310838Y346205D01*
X310813Y346109D01*
X310807Y346009D01*
X310803Y345989D01*
X310805Y345977D01*
X310803Y345949D01*
X310803Y344064D01*
X309995Y342114D01*
X308502Y340621D01*
X306552Y339813D01*
X304440Y339813D01*
G37*
%LPD*%
%LPC*%
G36*
X209952Y635629D02*
X209952Y635629D01*
X208002Y636437D01*
X206509Y637930D01*
X205701Y639880D01*
X205701Y641992D01*
X206509Y643942D01*
X207842Y645274D01*
X207902Y645353D01*
X207970Y645425D01*
X207999Y645478D01*
X208036Y645526D01*
X208076Y645617D01*
X208124Y645703D01*
X208139Y645762D01*
X208163Y645818D01*
X208178Y645915D01*
X208203Y646011D01*
X208209Y646111D01*
X208213Y646132D01*
X208211Y646144D01*
X208213Y646172D01*
X208213Y677325D01*
X208201Y677423D01*
X208198Y677522D01*
X208181Y677580D01*
X208173Y677640D01*
X208137Y677732D01*
X208109Y677827D01*
X208079Y677880D01*
X208056Y677936D01*
X207998Y678016D01*
X207948Y678101D01*
X207882Y678177D01*
X207870Y678193D01*
X207860Y678201D01*
X207842Y678222D01*
X192734Y693330D01*
X192656Y693390D01*
X192584Y693458D01*
X192531Y693487D01*
X192483Y693524D01*
X192392Y693564D01*
X192305Y693612D01*
X192247Y693627D01*
X192191Y693651D01*
X192093Y693666D01*
X191997Y693691D01*
X191897Y693697D01*
X191877Y693701D01*
X191865Y693699D01*
X191837Y693701D01*
X189952Y693701D01*
X188002Y694509D01*
X186509Y696002D01*
X185701Y697952D01*
X185701Y700064D01*
X186509Y702014D01*
X188002Y703507D01*
X189952Y704315D01*
X192064Y704315D01*
X194014Y703507D01*
X195507Y702014D01*
X196315Y700064D01*
X196315Y698179D01*
X196327Y698081D01*
X196330Y697982D01*
X196347Y697924D01*
X196355Y697864D01*
X196391Y697772D01*
X196419Y697677D01*
X196449Y697624D01*
X196472Y697568D01*
X196530Y697488D01*
X196580Y697403D01*
X196646Y697327D01*
X196658Y697311D01*
X196668Y697303D01*
X196686Y697282D01*
X211794Y682174D01*
X213803Y680166D01*
X213803Y646172D01*
X213815Y646074D01*
X213818Y645975D01*
X213835Y645916D01*
X213843Y645856D01*
X213879Y645764D01*
X213907Y645669D01*
X213937Y645617D01*
X213960Y645561D01*
X214018Y645481D01*
X214068Y645395D01*
X214134Y645320D01*
X214146Y645303D01*
X214156Y645296D01*
X214174Y645274D01*
X215507Y643942D01*
X216315Y641992D01*
X216315Y639880D01*
X215507Y637930D01*
X214014Y636437D01*
X212064Y635629D01*
X209952Y635629D01*
G37*
%LPD*%
%LPC*%
G36*
X947608Y512375D02*
X947608Y512375D01*
X943189Y514206D01*
X939806Y517589D01*
X937975Y522008D01*
X937975Y526792D01*
X939806Y531211D01*
X943189Y534594D01*
X947608Y536425D01*
X952392Y536425D01*
X956811Y534594D01*
X960194Y531211D01*
X962025Y526792D01*
X962025Y522008D01*
X960194Y517589D01*
X956811Y514206D01*
X952392Y512375D01*
X947608Y512375D01*
G37*
%LPD*%
%LPC*%
G36*
X80064Y645629D02*
X80064Y645629D01*
X78114Y646437D01*
X76621Y647930D01*
X75813Y649880D01*
X75813Y651992D01*
X76621Y653942D01*
X77954Y655274D01*
X78014Y655353D01*
X78082Y655425D01*
X78111Y655478D01*
X78148Y655526D01*
X78188Y655617D01*
X78236Y655703D01*
X78251Y655762D01*
X78275Y655818D01*
X78290Y655915D01*
X78315Y656011D01*
X78321Y656111D01*
X78325Y656132D01*
X78323Y656144D01*
X78325Y656172D01*
X78325Y701740D01*
X78313Y701838D01*
X78310Y701937D01*
X78293Y701996D01*
X78285Y702056D01*
X78249Y702148D01*
X78221Y702243D01*
X78191Y702295D01*
X78168Y702351D01*
X78110Y702431D01*
X78060Y702517D01*
X77994Y702592D01*
X77982Y702609D01*
X77972Y702616D01*
X77954Y702638D01*
X76621Y703970D01*
X75813Y705920D01*
X75813Y708032D01*
X76621Y709982D01*
X78114Y711475D01*
X80064Y712283D01*
X82176Y712283D01*
X84126Y711475D01*
X85619Y709982D01*
X86427Y708032D01*
X86427Y705920D01*
X85619Y703970D01*
X84286Y702638D01*
X84226Y702559D01*
X84158Y702487D01*
X84129Y702434D01*
X84092Y702386D01*
X84052Y702295D01*
X84004Y702209D01*
X83989Y702150D01*
X83965Y702094D01*
X83950Y701997D01*
X83925Y701901D01*
X83919Y701801D01*
X83915Y701780D01*
X83917Y701768D01*
X83915Y701740D01*
X83915Y656172D01*
X83927Y656074D01*
X83930Y655975D01*
X83947Y655916D01*
X83955Y655856D01*
X83991Y655764D01*
X84019Y655669D01*
X84049Y655617D01*
X84072Y655561D01*
X84130Y655481D01*
X84180Y655395D01*
X84246Y655320D01*
X84258Y655303D01*
X84268Y655296D01*
X84286Y655274D01*
X85619Y653942D01*
X86427Y651992D01*
X86427Y649880D01*
X85619Y647930D01*
X84126Y646437D01*
X82176Y645629D01*
X80064Y645629D01*
G37*
%LPD*%
%LPC*%
G36*
X750627Y217077D02*
X750627Y217077D01*
X746613Y218740D01*
X743540Y221813D01*
X741877Y225827D01*
X741877Y230173D01*
X743540Y234187D01*
X746613Y237260D01*
X750627Y238923D01*
X754973Y238923D01*
X758987Y237260D01*
X762060Y234187D01*
X763723Y230173D01*
X763723Y225827D01*
X762060Y221813D01*
X758987Y218740D01*
X754973Y217077D01*
X750627Y217077D01*
G37*
%LPD*%
%LPC*%
G36*
X157827Y949077D02*
X157827Y949077D01*
X153813Y950740D01*
X150740Y953813D01*
X149077Y957827D01*
X149077Y962173D01*
X150740Y966187D01*
X153813Y969260D01*
X157827Y970923D01*
X162173Y970923D01*
X166187Y969260D01*
X169260Y966187D01*
X170923Y962173D01*
X170923Y957827D01*
X169260Y953813D01*
X166187Y950740D01*
X162173Y949077D01*
X157827Y949077D01*
G37*
%LPD*%
%LPC*%
G36*
X183227Y949077D02*
X183227Y949077D01*
X179213Y950740D01*
X176140Y953813D01*
X174477Y957827D01*
X174477Y962173D01*
X176140Y966187D01*
X179213Y969260D01*
X183227Y970923D01*
X187573Y970923D01*
X191587Y969260D01*
X194660Y966187D01*
X196323Y962173D01*
X196323Y957827D01*
X194660Y953813D01*
X191587Y950740D01*
X187573Y949077D01*
X183227Y949077D01*
G37*
%LPD*%
%LPC*%
G36*
X522027Y217077D02*
X522027Y217077D01*
X518013Y218740D01*
X514940Y221813D01*
X513277Y225827D01*
X513277Y230173D01*
X514940Y234187D01*
X518013Y237260D01*
X522027Y238923D01*
X526373Y238923D01*
X530387Y237260D01*
X533460Y234187D01*
X535123Y230173D01*
X535123Y225827D01*
X533460Y221813D01*
X530387Y218740D01*
X526373Y217077D01*
X522027Y217077D01*
G37*
%LPD*%
%LPC*%
G36*
X933927Y217077D02*
X933927Y217077D01*
X929913Y218740D01*
X926840Y221813D01*
X925177Y225827D01*
X925177Y230173D01*
X926840Y234187D01*
X929913Y237260D01*
X933927Y238923D01*
X938273Y238923D01*
X942287Y237260D01*
X945360Y234187D01*
X947023Y230173D01*
X947023Y225827D01*
X945360Y221813D01*
X942287Y218740D01*
X938273Y217077D01*
X933927Y217077D01*
G37*
%LPD*%
%LPC*%
G36*
X547427Y217077D02*
X547427Y217077D01*
X543413Y218740D01*
X540340Y221813D01*
X538677Y225827D01*
X538677Y230173D01*
X540340Y234187D01*
X543413Y237260D01*
X547427Y238923D01*
X551773Y238923D01*
X555787Y237260D01*
X558860Y234187D01*
X560523Y230173D01*
X560523Y225827D01*
X558860Y221813D01*
X555787Y218740D01*
X551773Y217077D01*
X547427Y217077D01*
G37*
%LPD*%
%LPC*%
G36*
X572827Y217077D02*
X572827Y217077D01*
X568813Y218740D01*
X565740Y221813D01*
X564077Y225827D01*
X564077Y230173D01*
X565740Y234187D01*
X568813Y237260D01*
X572827Y238923D01*
X577173Y238923D01*
X581187Y237260D01*
X584260Y234187D01*
X585923Y230173D01*
X585923Y225827D01*
X584260Y221813D01*
X581187Y218740D01*
X577173Y217077D01*
X572827Y217077D01*
G37*
%LPD*%
%LPC*%
G36*
X623627Y217077D02*
X623627Y217077D01*
X619613Y218740D01*
X616540Y221813D01*
X614877Y225827D01*
X614877Y230173D01*
X616540Y234187D01*
X619613Y237260D01*
X623627Y238923D01*
X627973Y238923D01*
X631987Y237260D01*
X635060Y234187D01*
X636723Y230173D01*
X636723Y225827D01*
X635060Y221813D01*
X631987Y218740D01*
X627973Y217077D01*
X623627Y217077D01*
G37*
%LPD*%
%LPC*%
G36*
X832327Y217077D02*
X832327Y217077D01*
X828313Y218740D01*
X825240Y221813D01*
X823577Y225827D01*
X823577Y230173D01*
X825240Y234187D01*
X828313Y237260D01*
X832327Y238923D01*
X836673Y238923D01*
X840687Y237260D01*
X843760Y234187D01*
X845423Y230173D01*
X845423Y225827D01*
X843760Y221813D01*
X840687Y218740D01*
X836673Y217077D01*
X832327Y217077D01*
G37*
%LPD*%
%LPC*%
G36*
X649027Y217077D02*
X649027Y217077D01*
X645013Y218740D01*
X641940Y221813D01*
X640277Y225827D01*
X640277Y230173D01*
X641940Y234187D01*
X645013Y237260D01*
X649027Y238923D01*
X653373Y238923D01*
X657387Y237260D01*
X660460Y234187D01*
X662123Y230173D01*
X662123Y225827D01*
X660460Y221813D01*
X657387Y218740D01*
X653373Y217077D01*
X649027Y217077D01*
G37*
%LPD*%
%LPC*%
G36*
X908527Y219617D02*
X908527Y219617D01*
X904513Y221280D01*
X901440Y224353D01*
X899777Y228367D01*
X899777Y232713D01*
X901440Y236727D01*
X904513Y239800D01*
X908527Y241463D01*
X912873Y241463D01*
X916887Y239800D01*
X919960Y236727D01*
X921623Y232713D01*
X921623Y228367D01*
X919960Y224353D01*
X916887Y221280D01*
X912873Y219617D01*
X908527Y219617D01*
G37*
%LPD*%
%LPC*%
G36*
X218628Y50535D02*
X218628Y50535D01*
X217735Y51428D01*
X217735Y65772D01*
X218628Y66665D01*
X232972Y66665D01*
X233865Y65772D01*
X233865Y51428D01*
X232972Y50535D01*
X218628Y50535D01*
G37*
%LPD*%
%LPC*%
G36*
X39796Y388535D02*
X39796Y388535D01*
X36832Y389763D01*
X34563Y392032D01*
X33335Y394996D01*
X33335Y398204D01*
X34563Y401168D01*
X36832Y403437D01*
X39796Y404665D01*
X43004Y404665D01*
X45968Y403437D01*
X48237Y401168D01*
X49465Y398204D01*
X49465Y394996D01*
X48237Y392032D01*
X45968Y389763D01*
X43004Y388535D01*
X39796Y388535D01*
G37*
%LPD*%
%LPC*%
G36*
X368396Y951935D02*
X368396Y951935D01*
X365432Y953163D01*
X363163Y955432D01*
X361935Y958396D01*
X361935Y961604D01*
X363163Y964568D01*
X365432Y966837D01*
X368396Y968065D01*
X371604Y968065D01*
X374568Y966837D01*
X376837Y964568D01*
X378065Y961604D01*
X378065Y958396D01*
X376837Y955432D01*
X374568Y953163D01*
X371604Y951935D01*
X368396Y951935D01*
G37*
%LPD*%
%LPC*%
G36*
X39796Y337735D02*
X39796Y337735D01*
X36832Y338963D01*
X34563Y341232D01*
X33335Y344196D01*
X33335Y347404D01*
X34563Y350368D01*
X36832Y352637D01*
X39796Y353865D01*
X43004Y353865D01*
X45968Y352637D01*
X48237Y350368D01*
X49465Y347404D01*
X49465Y344196D01*
X48237Y341232D01*
X45968Y338963D01*
X43004Y337735D01*
X39796Y337735D01*
G37*
%LPD*%
%LPC*%
G36*
X39796Y363135D02*
X39796Y363135D01*
X36832Y364363D01*
X34563Y366632D01*
X33335Y369596D01*
X33335Y372804D01*
X34563Y375768D01*
X36832Y378037D01*
X39796Y379265D01*
X43004Y379265D01*
X45968Y378037D01*
X48237Y375768D01*
X49465Y372804D01*
X49465Y369596D01*
X48237Y366632D01*
X45968Y364363D01*
X43004Y363135D01*
X39796Y363135D01*
G37*
%LPD*%
%LPC*%
G36*
X224196Y25135D02*
X224196Y25135D01*
X221232Y26363D01*
X218963Y28632D01*
X217735Y31596D01*
X217735Y34804D01*
X218963Y37768D01*
X221232Y40037D01*
X224196Y41265D01*
X227404Y41265D01*
X230368Y40037D01*
X232637Y37768D01*
X233865Y34804D01*
X233865Y31596D01*
X232637Y28632D01*
X230368Y26363D01*
X227404Y25135D01*
X224196Y25135D01*
G37*
%LPD*%
%LPC*%
G36*
X65196Y147935D02*
X65196Y147935D01*
X62232Y149163D01*
X59963Y151432D01*
X58735Y154396D01*
X58735Y157604D01*
X59963Y160568D01*
X62232Y162837D01*
X65196Y164065D01*
X68404Y164065D01*
X71368Y162837D01*
X73637Y160568D01*
X74865Y157604D01*
X74865Y154396D01*
X73637Y151432D01*
X71368Y149163D01*
X68404Y147935D01*
X65196Y147935D01*
G37*
%LPD*%
%LPC*%
G36*
X328396Y951935D02*
X328396Y951935D01*
X325432Y953163D01*
X323163Y955432D01*
X321935Y958396D01*
X321935Y961604D01*
X323163Y964568D01*
X325432Y966837D01*
X328396Y968065D01*
X331604Y968065D01*
X334568Y966837D01*
X336837Y964568D01*
X338065Y961604D01*
X338065Y958396D01*
X336837Y955432D01*
X334568Y953163D01*
X331604Y951935D01*
X328396Y951935D01*
G37*
%LPD*%
%LPC*%
G36*
X308396Y951935D02*
X308396Y951935D01*
X305432Y953163D01*
X303163Y955432D01*
X301935Y958396D01*
X301935Y961604D01*
X303163Y964568D01*
X305432Y966837D01*
X308396Y968065D01*
X311604Y968065D01*
X314568Y966837D01*
X316837Y964568D01*
X318065Y961604D01*
X318065Y958396D01*
X316837Y955432D01*
X314568Y953163D01*
X311604Y951935D01*
X308396Y951935D01*
G37*
%LPD*%
%LPC*%
G36*
X348396Y951935D02*
X348396Y951935D01*
X345432Y953163D01*
X343163Y955432D01*
X341935Y958396D01*
X341935Y961604D01*
X343163Y964568D01*
X345432Y966837D01*
X348396Y968065D01*
X351604Y968065D01*
X354568Y966837D01*
X356837Y964568D01*
X358065Y961604D01*
X358065Y958396D01*
X356837Y955432D01*
X354568Y953163D01*
X351604Y951935D01*
X348396Y951935D01*
G37*
%LPD*%
%LPC*%
G36*
X428396Y951935D02*
X428396Y951935D01*
X425432Y953163D01*
X423163Y955432D01*
X421935Y958396D01*
X421935Y961604D01*
X423163Y964568D01*
X425432Y966837D01*
X428396Y968065D01*
X431604Y968065D01*
X434568Y966837D01*
X436837Y964568D01*
X438065Y961604D01*
X438065Y958396D01*
X436837Y955432D01*
X434568Y953163D01*
X431604Y951935D01*
X428396Y951935D01*
G37*
%LPD*%
%LPC*%
G36*
X268396Y951935D02*
X268396Y951935D01*
X265432Y953163D01*
X263163Y955432D01*
X261935Y958396D01*
X261935Y961604D01*
X263163Y964568D01*
X265432Y966837D01*
X268396Y968065D01*
X271604Y968065D01*
X274568Y966837D01*
X276837Y964568D01*
X278065Y961604D01*
X278065Y958396D01*
X276837Y955432D01*
X274568Y953163D01*
X271604Y951935D01*
X268396Y951935D01*
G37*
%LPD*%
%LPC*%
G36*
X288396Y951935D02*
X288396Y951935D01*
X285432Y953163D01*
X283163Y955432D01*
X281935Y958396D01*
X281935Y961604D01*
X283163Y964568D01*
X285432Y966837D01*
X288396Y968065D01*
X291604Y968065D01*
X294568Y966837D01*
X296837Y964568D01*
X298065Y961604D01*
X298065Y958396D01*
X296837Y955432D01*
X294568Y953163D01*
X291604Y951935D01*
X288396Y951935D01*
G37*
%LPD*%
%LPC*%
G36*
X388396Y951935D02*
X388396Y951935D01*
X385432Y953163D01*
X383163Y955432D01*
X381935Y958396D01*
X381935Y961604D01*
X383163Y964568D01*
X385432Y966837D01*
X388396Y968065D01*
X391604Y968065D01*
X394568Y966837D01*
X396837Y964568D01*
X398065Y961604D01*
X398065Y958396D01*
X396837Y955432D01*
X394568Y953163D01*
X391604Y951935D01*
X388396Y951935D01*
G37*
%LPD*%
%LPC*%
G36*
X408396Y951935D02*
X408396Y951935D01*
X405432Y953163D01*
X403163Y955432D01*
X401935Y958396D01*
X401935Y961604D01*
X403163Y964568D01*
X405432Y966837D01*
X408396Y968065D01*
X411604Y968065D01*
X414568Y966837D01*
X416837Y964568D01*
X418065Y961604D01*
X418065Y958396D01*
X416837Y955432D01*
X414568Y953163D01*
X411604Y951935D01*
X408396Y951935D01*
G37*
%LPD*%
%LPC*%
G36*
X351196Y50535D02*
X351196Y50535D01*
X348232Y51763D01*
X345963Y54032D01*
X344735Y56996D01*
X344735Y60204D01*
X345963Y63168D01*
X348232Y65437D01*
X351196Y66665D01*
X354404Y66665D01*
X357368Y65437D01*
X359637Y63168D01*
X360865Y60204D01*
X360865Y56996D01*
X359637Y54032D01*
X357368Y51763D01*
X354404Y50535D01*
X351196Y50535D01*
G37*
%LPD*%
%LPC*%
G36*
X249596Y50535D02*
X249596Y50535D01*
X246632Y51763D01*
X244363Y54032D01*
X243135Y56996D01*
X243135Y60204D01*
X244363Y63168D01*
X246632Y65437D01*
X249596Y66665D01*
X252804Y66665D01*
X255768Y65437D01*
X258037Y63168D01*
X259265Y60204D01*
X259265Y56996D01*
X258037Y54032D01*
X255768Y51763D01*
X252804Y50535D01*
X249596Y50535D01*
G37*
%LPD*%
%LPC*%
G36*
X376596Y25135D02*
X376596Y25135D01*
X373632Y26363D01*
X371363Y28632D01*
X370135Y31596D01*
X370135Y34804D01*
X371363Y37768D01*
X373632Y40037D01*
X376596Y41265D01*
X379804Y41265D01*
X382768Y40037D01*
X385037Y37768D01*
X386265Y34804D01*
X386265Y31596D01*
X385037Y28632D01*
X382768Y26363D01*
X379804Y25135D01*
X376596Y25135D01*
G37*
%LPD*%
%LPC*%
G36*
X351196Y25135D02*
X351196Y25135D01*
X348232Y26363D01*
X345963Y28632D01*
X344735Y31596D01*
X344735Y34804D01*
X345963Y37768D01*
X348232Y40037D01*
X351196Y41265D01*
X354404Y41265D01*
X357368Y40037D01*
X359637Y37768D01*
X360865Y34804D01*
X360865Y31596D01*
X359637Y28632D01*
X357368Y26363D01*
X354404Y25135D01*
X351196Y25135D01*
G37*
%LPD*%
%LPC*%
G36*
X325796Y25135D02*
X325796Y25135D01*
X322832Y26363D01*
X320563Y28632D01*
X319335Y31596D01*
X319335Y34804D01*
X320563Y37768D01*
X322832Y40037D01*
X325796Y41265D01*
X329004Y41265D01*
X331968Y40037D01*
X334237Y37768D01*
X335465Y34804D01*
X335465Y31596D01*
X334237Y28632D01*
X331968Y26363D01*
X329004Y25135D01*
X325796Y25135D01*
G37*
%LPD*%
%LPC*%
G36*
X274996Y25135D02*
X274996Y25135D01*
X272032Y26363D01*
X269763Y28632D01*
X268535Y31596D01*
X268535Y34804D01*
X269763Y37768D01*
X272032Y40037D01*
X274996Y41265D01*
X278204Y41265D01*
X281168Y40037D01*
X283437Y37768D01*
X284665Y34804D01*
X284665Y31596D01*
X283437Y28632D01*
X281168Y26363D01*
X278204Y25135D01*
X274996Y25135D01*
G37*
%LPD*%
%LPC*%
G36*
X953796Y914135D02*
X953796Y914135D01*
X950832Y915363D01*
X948563Y917632D01*
X947335Y920596D01*
X947335Y923804D01*
X948563Y926768D01*
X950832Y929037D01*
X953796Y930265D01*
X957004Y930265D01*
X959968Y929037D01*
X962237Y926768D01*
X963465Y923804D01*
X963465Y920596D01*
X962237Y917632D01*
X959968Y915363D01*
X957004Y914135D01*
X953796Y914135D01*
G37*
%LPD*%
%LPC*%
G36*
X928396Y914135D02*
X928396Y914135D01*
X925432Y915363D01*
X923163Y917632D01*
X921935Y920596D01*
X921935Y923804D01*
X923163Y926768D01*
X925432Y929037D01*
X928396Y930265D01*
X931604Y930265D01*
X934568Y929037D01*
X936837Y926768D01*
X938065Y923804D01*
X938065Y920596D01*
X936837Y917632D01*
X934568Y915363D01*
X931604Y914135D01*
X928396Y914135D01*
G37*
%LPD*%
%LPC*%
G36*
X65196Y464735D02*
X65196Y464735D01*
X62232Y465963D01*
X59963Y468232D01*
X58735Y471196D01*
X58735Y474404D01*
X59963Y477368D01*
X62232Y479637D01*
X65196Y480865D01*
X68404Y480865D01*
X71368Y479637D01*
X73637Y477368D01*
X74865Y474404D01*
X74865Y471196D01*
X73637Y468232D01*
X71368Y465963D01*
X68404Y464735D01*
X65196Y464735D01*
G37*
%LPD*%
%LPC*%
G36*
X65196Y439335D02*
X65196Y439335D01*
X62232Y440563D01*
X59963Y442832D01*
X58735Y445796D01*
X58735Y449004D01*
X59963Y451968D01*
X62232Y454237D01*
X65196Y455465D01*
X68404Y455465D01*
X71368Y454237D01*
X73637Y451968D01*
X74865Y449004D01*
X74865Y445796D01*
X73637Y442832D01*
X71368Y440563D01*
X68404Y439335D01*
X65196Y439335D01*
G37*
%LPD*%
%LPC*%
G36*
X953796Y888735D02*
X953796Y888735D01*
X950832Y889963D01*
X948563Y892232D01*
X947335Y895196D01*
X947335Y898404D01*
X948563Y901368D01*
X950832Y903637D01*
X953796Y904865D01*
X957004Y904865D01*
X959968Y903637D01*
X962237Y901368D01*
X963465Y898404D01*
X963465Y895196D01*
X962237Y892232D01*
X959968Y889963D01*
X957004Y888735D01*
X953796Y888735D01*
G37*
%LPD*%
%LPC*%
G36*
X65196Y413935D02*
X65196Y413935D01*
X62232Y415163D01*
X59963Y417432D01*
X58735Y420396D01*
X58735Y423604D01*
X59963Y426568D01*
X62232Y428837D01*
X65196Y430065D01*
X68404Y430065D01*
X71368Y428837D01*
X73637Y426568D01*
X74865Y423604D01*
X74865Y420396D01*
X73637Y417432D01*
X71368Y415163D01*
X68404Y413935D01*
X65196Y413935D01*
G37*
%LPD*%
%LPC*%
G36*
X722031Y962031D02*
X722031Y962031D01*
X722031Y975241D01*
X726313Y975241D01*
X735241Y966313D01*
X735241Y962031D01*
X722031Y962031D01*
G37*
%LPD*%
%LPC*%
G36*
X780831Y962031D02*
X780831Y962031D01*
X780831Y975241D01*
X785113Y975241D01*
X794041Y966313D01*
X794041Y962031D01*
X780831Y962031D01*
G37*
%LPD*%
%LPC*%
G36*
X617031Y612031D02*
X617031Y612031D01*
X617031Y625241D01*
X621313Y625241D01*
X630241Y616313D01*
X630241Y612031D01*
X617031Y612031D01*
G37*
%LPD*%
%LPC*%
G36*
X544531Y60631D02*
X544531Y60631D01*
X544531Y73841D01*
X548813Y73841D01*
X557741Y64913D01*
X557741Y60631D01*
X544531Y60631D01*
G37*
%LPD*%
%LPC*%
G36*
X460531Y904831D02*
X460531Y904831D01*
X460531Y918041D01*
X464813Y918041D01*
X473741Y909113D01*
X473741Y904831D01*
X460531Y904831D01*
G37*
%LPD*%
%LPC*%
G36*
X964631Y414831D02*
X964631Y414831D01*
X964631Y428041D01*
X968913Y428041D01*
X977841Y419113D01*
X977841Y414831D01*
X964631Y414831D01*
G37*
%LPD*%
%LPC*%
G36*
X476231Y60631D02*
X476231Y60631D01*
X476231Y73841D01*
X480513Y73841D01*
X489441Y64913D01*
X489441Y60631D01*
X476231Y60631D01*
G37*
%LPD*%
%LPC*%
G36*
X704759Y962031D02*
X704759Y962031D01*
X704759Y966313D01*
X713687Y975241D01*
X717969Y975241D01*
X717969Y962031D01*
X704759Y962031D01*
G37*
%LPD*%
%LPC*%
G36*
X763559Y962031D02*
X763559Y962031D01*
X763559Y966313D01*
X772487Y975241D01*
X776769Y975241D01*
X776769Y962031D01*
X763559Y962031D01*
G37*
%LPD*%
%LPC*%
G36*
X527259Y60631D02*
X527259Y60631D01*
X527259Y64913D01*
X536187Y73841D01*
X540469Y73841D01*
X540469Y60631D01*
X527259Y60631D01*
G37*
%LPD*%
%LPC*%
G36*
X964631Y397559D02*
X964631Y397559D01*
X964631Y410769D01*
X977841Y410769D01*
X977841Y406487D01*
X968913Y397559D01*
X964631Y397559D01*
G37*
%LPD*%
%LPC*%
G36*
X443259Y904831D02*
X443259Y904831D01*
X443259Y909113D01*
X452187Y918041D01*
X456469Y918041D01*
X456469Y904831D01*
X443259Y904831D01*
G37*
%LPD*%
%LPC*%
G36*
X599759Y612031D02*
X599759Y612031D01*
X599759Y616313D01*
X608687Y625241D01*
X612969Y625241D01*
X612969Y612031D01*
X599759Y612031D01*
G37*
%LPD*%
%LPC*%
G36*
X722031Y944759D02*
X722031Y944759D01*
X722031Y957969D01*
X735241Y957969D01*
X735241Y953687D01*
X726313Y944759D01*
X722031Y944759D01*
G37*
%LPD*%
%LPC*%
G36*
X780831Y944759D02*
X780831Y944759D01*
X780831Y957969D01*
X794041Y957969D01*
X794041Y953687D01*
X785113Y944759D01*
X780831Y944759D01*
G37*
%LPD*%
%LPC*%
G36*
X947359Y414831D02*
X947359Y414831D01*
X947359Y419113D01*
X956287Y428041D01*
X960569Y428041D01*
X960569Y414831D01*
X947359Y414831D01*
G37*
%LPD*%
%LPC*%
G36*
X460531Y887559D02*
X460531Y887559D01*
X460531Y900769D01*
X473741Y900769D01*
X473741Y896487D01*
X464813Y887559D01*
X460531Y887559D01*
G37*
%LPD*%
%LPC*%
G36*
X458959Y60631D02*
X458959Y60631D01*
X458959Y64913D01*
X467887Y73841D01*
X472169Y73841D01*
X472169Y60631D01*
X458959Y60631D01*
G37*
%LPD*%
%LPC*%
G36*
X544531Y43359D02*
X544531Y43359D01*
X544531Y56569D01*
X557741Y56569D01*
X557741Y52287D01*
X548813Y43359D01*
X544531Y43359D01*
G37*
%LPD*%
%LPC*%
G36*
X476231Y43359D02*
X476231Y43359D01*
X476231Y56569D01*
X489441Y56569D01*
X489441Y52287D01*
X480513Y43359D01*
X476231Y43359D01*
G37*
%LPD*%
%LPC*%
G36*
X617031Y594759D02*
X617031Y594759D01*
X617031Y607969D01*
X630241Y607969D01*
X630241Y603687D01*
X621313Y594759D01*
X617031Y594759D01*
G37*
%LPD*%
%LPC*%
G36*
X467887Y43359D02*
X467887Y43359D01*
X458959Y52287D01*
X458959Y56569D01*
X472169Y56569D01*
X472169Y43359D01*
X467887Y43359D01*
G37*
%LPD*%
%LPC*%
G36*
X713687Y944759D02*
X713687Y944759D01*
X704759Y953687D01*
X704759Y957969D01*
X717969Y957969D01*
X717969Y944759D01*
X713687Y944759D01*
G37*
%LPD*%
%LPC*%
G36*
X772487Y944759D02*
X772487Y944759D01*
X763559Y953687D01*
X763559Y957969D01*
X776769Y957969D01*
X776769Y944759D01*
X772487Y944759D01*
G37*
%LPD*%
%LPC*%
G36*
X452187Y887559D02*
X452187Y887559D01*
X443259Y896487D01*
X443259Y900769D01*
X456469Y900769D01*
X456469Y887559D01*
X452187Y887559D01*
G37*
%LPD*%
%LPC*%
G36*
X536187Y43359D02*
X536187Y43359D01*
X527259Y52287D01*
X527259Y56569D01*
X540469Y56569D01*
X540469Y43359D01*
X536187Y43359D01*
G37*
%LPD*%
%LPC*%
G36*
X956287Y397559D02*
X956287Y397559D01*
X947359Y406487D01*
X947359Y410769D01*
X960569Y410769D01*
X960569Y397559D01*
X956287Y397559D01*
G37*
%LPD*%
%LPC*%
G36*
X608687Y594759D02*
X608687Y594759D01*
X599759Y603687D01*
X599759Y607969D01*
X612969Y607969D01*
X612969Y594759D01*
X608687Y594759D01*
G37*
%LPD*%
%LPC*%
G36*
X25476Y862099D02*
X25476Y862099D01*
X25564Y862658D01*
X26095Y864293D01*
X26876Y865825D01*
X27887Y867216D01*
X29102Y868431D01*
X30493Y869442D01*
X32025Y870223D01*
X33660Y870754D01*
X35358Y871023D01*
X42601Y871023D01*
X42601Y862099D01*
X25476Y862099D01*
G37*
%LPD*%
%LPC*%
G36*
X35358Y849177D02*
X35358Y849177D01*
X33660Y849446D01*
X32025Y849977D01*
X30493Y850758D01*
X29102Y851769D01*
X27887Y852984D01*
X26876Y854375D01*
X26095Y855907D01*
X25564Y857542D01*
X25476Y858101D01*
X42601Y858101D01*
X42601Y849177D01*
X35358Y849177D01*
G37*
%LPD*%
%LPC*%
G36*
X952539Y491939D02*
X952539Y491939D01*
X952539Y502201D01*
X953054Y502120D01*
X955006Y501485D01*
X956835Y500553D01*
X958495Y499347D01*
X959947Y497895D01*
X961153Y496235D01*
X962085Y494406D01*
X962720Y492454D01*
X962801Y491939D01*
X952539Y491939D01*
G37*
%LPD*%
%LPC*%
G36*
X952539Y666639D02*
X952539Y666639D01*
X952539Y676901D01*
X953054Y676820D01*
X955006Y676185D01*
X956835Y675253D01*
X958495Y674047D01*
X959947Y672595D01*
X961153Y670935D01*
X962085Y669106D01*
X962720Y667154D01*
X962801Y666639D01*
X952539Y666639D01*
G37*
%LPD*%
%LPC*%
G36*
X937199Y491939D02*
X937199Y491939D01*
X937280Y492454D01*
X937915Y494406D01*
X938847Y496235D01*
X940053Y497895D01*
X941505Y499347D01*
X943165Y500553D01*
X944994Y501485D01*
X946946Y502120D01*
X947461Y502201D01*
X947461Y491939D01*
X937199Y491939D01*
G37*
%LPD*%
%LPC*%
G36*
X952539Y661561D02*
X952539Y661561D01*
X962801Y661561D01*
X962720Y661046D01*
X962085Y659094D01*
X961153Y657265D01*
X959947Y655605D01*
X958495Y654153D01*
X956835Y652947D01*
X955006Y652015D01*
X953054Y651380D01*
X952539Y651299D01*
X952539Y661561D01*
G37*
%LPD*%
%LPC*%
G36*
X937199Y666639D02*
X937199Y666639D01*
X937280Y667154D01*
X937915Y669106D01*
X938847Y670935D01*
X940053Y672595D01*
X941505Y674047D01*
X943165Y675253D01*
X944994Y676185D01*
X946946Y676820D01*
X947461Y676901D01*
X947461Y666639D01*
X937199Y666639D01*
G37*
%LPD*%
%LPC*%
G36*
X952539Y486861D02*
X952539Y486861D01*
X962801Y486861D01*
X962720Y486346D01*
X962085Y484394D01*
X961153Y482565D01*
X959947Y480905D01*
X958495Y479453D01*
X956835Y478247D01*
X955006Y477315D01*
X953054Y476680D01*
X952539Y476599D01*
X952539Y486861D01*
G37*
%LPD*%
%LPC*%
G36*
X946946Y651380D02*
X946946Y651380D01*
X944994Y652015D01*
X943165Y652947D01*
X941505Y654153D01*
X940053Y655605D01*
X938847Y657265D01*
X937915Y659094D01*
X937280Y661046D01*
X937199Y661561D01*
X947461Y661561D01*
X947461Y651299D01*
X946946Y651380D01*
G37*
%LPD*%
%LPC*%
G36*
X946946Y476680D02*
X946946Y476680D01*
X944994Y477315D01*
X943165Y478247D01*
X941505Y479453D01*
X940053Y480905D01*
X938847Y482565D01*
X937915Y484394D01*
X937280Y486346D01*
X937199Y486861D01*
X947461Y486861D01*
X947461Y476599D01*
X946946Y476680D01*
G37*
%LPD*%
%LPC*%
G36*
X811639Y233079D02*
X811639Y233079D01*
X811639Y242225D01*
X811896Y242185D01*
X813683Y241604D01*
X815357Y240751D01*
X816878Y239646D01*
X818206Y238318D01*
X819311Y236797D01*
X820164Y235123D01*
X820745Y233336D01*
X820785Y233079D01*
X811639Y233079D01*
G37*
%LPD*%
%LPC*%
G36*
X729939Y230539D02*
X729939Y230539D01*
X729939Y239685D01*
X730196Y239645D01*
X731983Y239064D01*
X733657Y238211D01*
X735178Y237106D01*
X736506Y235778D01*
X737611Y234257D01*
X738464Y232583D01*
X739045Y230796D01*
X739085Y230539D01*
X729939Y230539D01*
G37*
%LPD*%
%LPC*%
G36*
X797415Y233079D02*
X797415Y233079D01*
X797455Y233336D01*
X798036Y235123D01*
X798889Y236797D01*
X799994Y238318D01*
X801322Y239646D01*
X802843Y240751D01*
X804517Y241604D01*
X806304Y242185D01*
X806561Y242225D01*
X806561Y233079D01*
X797415Y233079D01*
G37*
%LPD*%
%LPC*%
G36*
X811639Y228001D02*
X811639Y228001D01*
X820785Y228001D01*
X820745Y227744D01*
X820164Y225957D01*
X819311Y224283D01*
X818206Y222762D01*
X816878Y221434D01*
X815357Y220329D01*
X813683Y219476D01*
X811896Y218895D01*
X811639Y218855D01*
X811639Y228001D01*
G37*
%LPD*%
%LPC*%
G36*
X729939Y225461D02*
X729939Y225461D01*
X739085Y225461D01*
X739045Y225204D01*
X738464Y223417D01*
X737611Y221743D01*
X736506Y220222D01*
X735178Y218894D01*
X733657Y217789D01*
X731983Y216936D01*
X730196Y216355D01*
X729939Y216315D01*
X729939Y225461D01*
G37*
%LPD*%
%LPC*%
G36*
X715715Y230539D02*
X715715Y230539D01*
X715755Y230796D01*
X716336Y232583D01*
X717189Y234257D01*
X718294Y235778D01*
X719622Y237106D01*
X721143Y238211D01*
X722817Y239064D01*
X724604Y239645D01*
X724861Y239685D01*
X724861Y230539D01*
X715715Y230539D01*
G37*
%LPD*%
%LPC*%
G36*
X806304Y218895D02*
X806304Y218895D01*
X804517Y219476D01*
X802843Y220329D01*
X801322Y221434D01*
X799994Y222762D01*
X798889Y224283D01*
X798036Y225957D01*
X797455Y227744D01*
X797415Y228001D01*
X806561Y228001D01*
X806561Y218855D01*
X806304Y218895D01*
G37*
%LPD*%
%LPC*%
G36*
X724604Y216355D02*
X724604Y216355D01*
X722817Y216936D01*
X721143Y217789D01*
X719622Y218894D01*
X718294Y220222D01*
X717189Y221743D01*
X716336Y223417D01*
X715755Y225204D01*
X715715Y225461D01*
X724861Y225461D01*
X724861Y216315D01*
X724604Y216355D01*
G37*
%LPD*%
%LPC*%
G36*
X451999Y961999D02*
X451999Y961999D01*
X451999Y969081D01*
X456874Y969081D01*
X457521Y968908D01*
X458100Y968573D01*
X458573Y968100D01*
X458908Y967521D01*
X459081Y966874D01*
X459081Y961999D01*
X451999Y961999D01*
G37*
%LPD*%
%LPC*%
G36*
X43399Y81799D02*
X43399Y81799D01*
X43399Y88881D01*
X48274Y88881D01*
X48921Y88708D01*
X49500Y88373D01*
X49973Y87900D01*
X50308Y87321D01*
X50481Y86674D01*
X50481Y81799D01*
X43399Y81799D01*
G37*
%LPD*%
%LPC*%
G36*
X451999Y950919D02*
X451999Y950919D01*
X451999Y958001D01*
X459081Y958001D01*
X459081Y953126D01*
X458908Y952479D01*
X458573Y951900D01*
X458100Y951427D01*
X457521Y951092D01*
X456874Y950919D01*
X451999Y950919D01*
G37*
%LPD*%
%LPC*%
G36*
X43399Y70719D02*
X43399Y70719D01*
X43399Y77801D01*
X50481Y77801D01*
X50481Y72926D01*
X50308Y72279D01*
X49973Y71700D01*
X49500Y71227D01*
X48921Y70892D01*
X48274Y70719D01*
X43399Y70719D01*
G37*
%LPD*%
%LPC*%
G36*
X440919Y961999D02*
X440919Y961999D01*
X440919Y966874D01*
X441092Y967521D01*
X441427Y968100D01*
X441900Y968573D01*
X442479Y968908D01*
X443126Y969081D01*
X448001Y969081D01*
X448001Y961999D01*
X440919Y961999D01*
G37*
%LPD*%
%LPC*%
G36*
X32319Y81799D02*
X32319Y81799D01*
X32319Y86674D01*
X32492Y87321D01*
X32827Y87900D01*
X33300Y88373D01*
X33879Y88708D01*
X34526Y88881D01*
X39401Y88881D01*
X39401Y81799D01*
X32319Y81799D01*
G37*
%LPD*%
%LPC*%
G36*
X34526Y70719D02*
X34526Y70719D01*
X33879Y70892D01*
X33300Y71227D01*
X32827Y71700D01*
X32492Y72279D01*
X32319Y72926D01*
X32319Y77801D01*
X39401Y77801D01*
X39401Y70719D01*
X34526Y70719D01*
G37*
%LPD*%
%LPC*%
G36*
X443126Y950919D02*
X443126Y950919D01*
X442479Y951092D01*
X441900Y951427D01*
X441427Y951900D01*
X441092Y952479D01*
X440919Y953126D01*
X440919Y958001D01*
X448001Y958001D01*
X448001Y950919D01*
X443126Y950919D01*
G37*
%LPD*%
%LPC*%
G36*
X43399Y500199D02*
X43399Y500199D01*
X43399Y507077D01*
X43526Y507057D01*
X44886Y506615D01*
X46159Y505967D01*
X47316Y505126D01*
X48326Y504116D01*
X49167Y502959D01*
X49815Y501686D01*
X50257Y500326D01*
X50277Y500199D01*
X43399Y500199D01*
G37*
%LPD*%
%LPC*%
G36*
X43399Y132599D02*
X43399Y132599D01*
X43399Y139477D01*
X43526Y139457D01*
X44886Y139015D01*
X46159Y138367D01*
X47316Y137526D01*
X48326Y136516D01*
X49167Y135359D01*
X49815Y134086D01*
X50257Y132726D01*
X50277Y132599D01*
X43399Y132599D01*
G37*
%LPD*%
%LPC*%
G36*
X43399Y107199D02*
X43399Y107199D01*
X43399Y114077D01*
X43526Y114057D01*
X44886Y113615D01*
X46159Y112967D01*
X47316Y112126D01*
X48326Y111116D01*
X49167Y109959D01*
X49815Y108686D01*
X50257Y107326D01*
X50277Y107199D01*
X43399Y107199D01*
G37*
%LPD*%
%LPC*%
G36*
X957399Y847999D02*
X957399Y847999D01*
X957399Y854877D01*
X957526Y854857D01*
X958886Y854415D01*
X960159Y853767D01*
X961316Y852926D01*
X962326Y851916D01*
X963167Y850759D01*
X963815Y849486D01*
X964257Y848126D01*
X964277Y847999D01*
X957399Y847999D01*
G37*
%LPD*%
%LPC*%
G36*
X68799Y347799D02*
X68799Y347799D01*
X68799Y354677D01*
X68926Y354657D01*
X70286Y354215D01*
X71559Y353567D01*
X72716Y352726D01*
X73726Y351716D01*
X74567Y350559D01*
X75215Y349286D01*
X75657Y347926D01*
X75677Y347799D01*
X68799Y347799D01*
G37*
%LPD*%
%LPC*%
G36*
X43399Y208799D02*
X43399Y208799D01*
X43399Y215677D01*
X43526Y215657D01*
X44886Y215215D01*
X46159Y214567D01*
X47316Y213726D01*
X48326Y212716D01*
X49167Y211559D01*
X49815Y210286D01*
X50257Y208926D01*
X50277Y208799D01*
X43399Y208799D01*
G37*
%LPD*%
%LPC*%
G36*
X43399Y183399D02*
X43399Y183399D01*
X43399Y190277D01*
X43526Y190257D01*
X44886Y189815D01*
X46159Y189167D01*
X47316Y188326D01*
X48326Y187316D01*
X49167Y186159D01*
X49815Y184886D01*
X50257Y183526D01*
X50277Y183399D01*
X43399Y183399D01*
G37*
%LPD*%
%LPC*%
G36*
X43399Y234199D02*
X43399Y234199D01*
X43399Y241077D01*
X43526Y241057D01*
X44886Y240615D01*
X46159Y239967D01*
X47316Y239126D01*
X48326Y238116D01*
X49167Y236959D01*
X49815Y235686D01*
X50257Y234326D01*
X50277Y234199D01*
X43399Y234199D01*
G37*
%LPD*%
%LPC*%
G36*
X43399Y157999D02*
X43399Y157999D01*
X43399Y164877D01*
X43526Y164857D01*
X44886Y164415D01*
X46159Y163767D01*
X47316Y162926D01*
X48326Y161916D01*
X49167Y160759D01*
X49815Y159486D01*
X50257Y158126D01*
X50277Y157999D01*
X43399Y157999D01*
G37*
%LPD*%
%LPC*%
G36*
X43399Y103201D02*
X43399Y103201D01*
X50277Y103201D01*
X50257Y103074D01*
X49815Y101714D01*
X49167Y100441D01*
X48326Y99284D01*
X47316Y98274D01*
X46159Y97433D01*
X44886Y96785D01*
X43526Y96343D01*
X43399Y96323D01*
X43399Y103201D01*
G37*
%LPD*%
%LPC*%
G36*
X43399Y496201D02*
X43399Y496201D01*
X50277Y496201D01*
X50257Y496074D01*
X49815Y494714D01*
X49167Y493441D01*
X48326Y492284D01*
X47316Y491274D01*
X46159Y490433D01*
X44886Y489785D01*
X43526Y489343D01*
X43399Y489323D01*
X43399Y496201D01*
G37*
%LPD*%
%LPC*%
G36*
X32523Y208799D02*
X32523Y208799D01*
X32543Y208926D01*
X32985Y210286D01*
X33633Y211559D01*
X34474Y212716D01*
X35484Y213726D01*
X36641Y214567D01*
X37914Y215215D01*
X39274Y215657D01*
X39401Y215677D01*
X39401Y208799D01*
X32523Y208799D01*
G37*
%LPD*%
%LPC*%
G36*
X32523Y183399D02*
X32523Y183399D01*
X32543Y183526D01*
X32985Y184886D01*
X33633Y186159D01*
X34474Y187316D01*
X35484Y188326D01*
X36641Y189167D01*
X37914Y189815D01*
X39274Y190257D01*
X39401Y190277D01*
X39401Y183399D01*
X32523Y183399D01*
G37*
%LPD*%
%LPC*%
G36*
X43399Y230201D02*
X43399Y230201D01*
X50277Y230201D01*
X50257Y230074D01*
X49815Y228714D01*
X49167Y227441D01*
X48326Y226284D01*
X47316Y225274D01*
X46159Y224433D01*
X44886Y223785D01*
X43526Y223343D01*
X43399Y223323D01*
X43399Y230201D01*
G37*
%LPD*%
%LPC*%
G36*
X32523Y157999D02*
X32523Y157999D01*
X32543Y158126D01*
X32985Y159486D01*
X33633Y160759D01*
X34474Y161916D01*
X35484Y162926D01*
X36641Y163767D01*
X37914Y164415D01*
X39274Y164857D01*
X39401Y164877D01*
X39401Y157999D01*
X32523Y157999D01*
G37*
%LPD*%
%LPC*%
G36*
X68799Y343801D02*
X68799Y343801D01*
X75677Y343801D01*
X75657Y343674D01*
X75215Y342314D01*
X74567Y341041D01*
X73726Y339884D01*
X72716Y338874D01*
X71559Y338033D01*
X70286Y337385D01*
X68926Y336943D01*
X68799Y336923D01*
X68799Y343801D01*
G37*
%LPD*%
%LPC*%
G36*
X43399Y154001D02*
X43399Y154001D01*
X50277Y154001D01*
X50257Y153874D01*
X49815Y152514D01*
X49167Y151241D01*
X48326Y150084D01*
X47316Y149074D01*
X46159Y148233D01*
X44886Y147585D01*
X43526Y147143D01*
X43399Y147123D01*
X43399Y154001D01*
G37*
%LPD*%
%LPC*%
G36*
X32523Y132599D02*
X32523Y132599D01*
X32543Y132726D01*
X32985Y134086D01*
X33633Y135359D01*
X34474Y136516D01*
X35484Y137526D01*
X36641Y138367D01*
X37914Y139015D01*
X39274Y139457D01*
X39401Y139477D01*
X39401Y132599D01*
X32523Y132599D01*
G37*
%LPD*%
%LPC*%
G36*
X43399Y204801D02*
X43399Y204801D01*
X50277Y204801D01*
X50257Y204674D01*
X49815Y203314D01*
X49167Y202041D01*
X48326Y200884D01*
X47316Y199874D01*
X46159Y199033D01*
X44886Y198385D01*
X43526Y197943D01*
X43399Y197923D01*
X43399Y204801D01*
G37*
%LPD*%
%LPC*%
G36*
X43399Y128601D02*
X43399Y128601D01*
X50277Y128601D01*
X50257Y128474D01*
X49815Y127114D01*
X49167Y125841D01*
X48326Y124684D01*
X47316Y123674D01*
X46159Y122833D01*
X44886Y122185D01*
X43526Y121743D01*
X43399Y121723D01*
X43399Y128601D01*
G37*
%LPD*%
%LPC*%
G36*
X32523Y234199D02*
X32523Y234199D01*
X32543Y234326D01*
X32985Y235686D01*
X33633Y236959D01*
X34474Y238116D01*
X35484Y239126D01*
X36641Y239967D01*
X37914Y240615D01*
X39274Y241057D01*
X39401Y241077D01*
X39401Y234199D01*
X32523Y234199D01*
G37*
%LPD*%
%LPC*%
G36*
X32523Y107199D02*
X32523Y107199D01*
X32543Y107326D01*
X32985Y108686D01*
X33633Y109959D01*
X34474Y111116D01*
X35484Y112126D01*
X36641Y112967D01*
X37914Y113615D01*
X39274Y114057D01*
X39401Y114077D01*
X39401Y107199D01*
X32523Y107199D01*
G37*
%LPD*%
%LPC*%
G36*
X43399Y179401D02*
X43399Y179401D01*
X50277Y179401D01*
X50257Y179274D01*
X49815Y177914D01*
X49167Y176641D01*
X48326Y175484D01*
X47316Y174474D01*
X46159Y173633D01*
X44886Y172985D01*
X43526Y172543D01*
X43399Y172523D01*
X43399Y179401D01*
G37*
%LPD*%
%LPC*%
G36*
X39274Y96343D02*
X39274Y96343D01*
X37914Y96785D01*
X36641Y97433D01*
X35484Y98274D01*
X34474Y99284D01*
X33633Y100441D01*
X32985Y101714D01*
X32543Y103074D01*
X32523Y103201D01*
X39401Y103201D01*
X39401Y96323D01*
X39274Y96343D01*
G37*
%LPD*%
%LPC*%
G36*
X39274Y223343D02*
X39274Y223343D01*
X37914Y223785D01*
X36641Y224433D01*
X35484Y225274D01*
X34474Y226284D01*
X33633Y227441D01*
X32985Y228714D01*
X32543Y230074D01*
X32523Y230201D01*
X39401Y230201D01*
X39401Y223323D01*
X39274Y223343D01*
G37*
%LPD*%
%LPC*%
G36*
X39274Y172543D02*
X39274Y172543D01*
X37914Y172985D01*
X36641Y173633D01*
X35484Y174474D01*
X34474Y175484D01*
X33633Y176641D01*
X32985Y177914D01*
X32543Y179274D01*
X32523Y179401D01*
X39401Y179401D01*
X39401Y172523D01*
X39274Y172543D01*
G37*
%LPD*%
%LPC*%
G36*
X39274Y197943D02*
X39274Y197943D01*
X37914Y198385D01*
X36641Y199033D01*
X35484Y199874D01*
X34474Y200884D01*
X33633Y202041D01*
X32985Y203314D01*
X32543Y204674D01*
X32523Y204801D01*
X39401Y204801D01*
X39401Y197923D01*
X39274Y197943D01*
G37*
%LPD*%
%LPC*%
G36*
X39274Y147143D02*
X39274Y147143D01*
X37914Y147585D01*
X36641Y148233D01*
X35484Y149074D01*
X34474Y150084D01*
X33633Y151241D01*
X32985Y152514D01*
X32543Y153874D01*
X32523Y154001D01*
X39401Y154001D01*
X39401Y147123D01*
X39274Y147143D01*
G37*
%LPD*%
%LPC*%
G36*
X39274Y121743D02*
X39274Y121743D01*
X37914Y122185D01*
X36641Y122833D01*
X35484Y123674D01*
X34474Y124684D01*
X33633Y125841D01*
X32985Y127114D01*
X32543Y128474D01*
X32523Y128601D01*
X39401Y128601D01*
X39401Y121723D01*
X39274Y121743D01*
G37*
%LPD*%
%LPC*%
G36*
X727399Y227999D02*
X727399Y227999D01*
X727399Y228001D01*
X727401Y228001D01*
X727401Y227999D01*
X727399Y227999D01*
G37*
%LPD*%
%LPC*%
G36*
X809099Y230539D02*
X809099Y230539D01*
X809099Y230541D01*
X809101Y230541D01*
X809101Y230539D01*
X809099Y230539D01*
G37*
%LPD*%
%LPC*%
G36*
X949999Y489399D02*
X949999Y489399D01*
X949999Y489401D01*
X950001Y489401D01*
X950001Y489399D01*
X949999Y489399D01*
G37*
%LPD*%
%LPC*%
G36*
X949999Y664099D02*
X949999Y664099D01*
X949999Y664101D01*
X950001Y664101D01*
X950001Y664099D01*
X949999Y664099D01*
G37*
%LPD*%
D10*
X640000Y960000D03*
D11*
X950000Y524400D03*
X950000Y489400D03*
X950000Y664100D03*
X950000Y629100D03*
D10*
X640000Y790000D03*
X102600Y960000D03*
D12*
X41400Y79800D03*
D13*
X41400Y105200D03*
X41400Y130600D03*
X41400Y156000D03*
X41400Y181400D03*
X41400Y206800D03*
X41400Y232200D03*
X66800Y79800D03*
X66800Y105200D03*
X66800Y130600D03*
X66800Y156000D03*
X66800Y181400D03*
X66800Y206800D03*
X66800Y232200D03*
D14*
X936100Y228000D03*
X910700Y230540D03*
X885300Y228000D03*
X859900Y230540D03*
X834500Y228000D03*
X809100Y230540D03*
D12*
X225800Y58600D03*
D13*
X251200Y58600D03*
X276600Y58600D03*
X302000Y58600D03*
X327400Y58600D03*
X352800Y58600D03*
X378200Y58600D03*
X225800Y33200D03*
X251200Y33200D03*
X276600Y33200D03*
X302000Y33200D03*
X327400Y33200D03*
X352800Y33200D03*
X378200Y33200D03*
D10*
X474200Y58600D03*
X720000Y960000D03*
X615000Y610000D03*
X778800Y960000D03*
X962600Y412800D03*
X542500Y58600D03*
D15*
X52982Y809300D02*
X36218Y809300D01*
X36218Y834700D02*
X52982Y834700D01*
X52982Y860100D02*
X36218Y860100D01*
X36218Y885500D02*
X52982Y885500D01*
X52982Y910900D02*
X36218Y910900D01*
X36218Y936300D02*
X52982Y936300D01*
D14*
X160000Y960000D03*
X185400Y960000D03*
D12*
X66800Y498200D03*
D13*
X66800Y472800D03*
X66800Y447400D03*
X66800Y422000D03*
X66800Y396600D03*
X66800Y371200D03*
X66800Y345800D03*
X41400Y498200D03*
X41400Y472800D03*
X41400Y447400D03*
X41400Y422000D03*
X41400Y396600D03*
X41400Y371200D03*
X41400Y345800D03*
D12*
X930000Y769800D03*
D13*
X930000Y795200D03*
X930000Y820600D03*
X930000Y846000D03*
X930000Y871400D03*
X930000Y896800D03*
X930000Y922200D03*
X955400Y769800D03*
X955400Y795200D03*
X955400Y820600D03*
X955400Y846000D03*
X955400Y871400D03*
X955400Y896800D03*
X955400Y922200D03*
D14*
X752800Y228000D03*
X727400Y228000D03*
X702000Y228000D03*
X676600Y228000D03*
X651200Y228000D03*
X625800Y228000D03*
X600400Y228000D03*
X575000Y228000D03*
X549600Y228000D03*
X524200Y228000D03*
D10*
X221800Y853600D03*
X229000Y790000D03*
X640000Y902800D03*
X846000Y960000D03*
X640000Y843600D03*
X225500Y960000D03*
X300000Y540000D03*
X458500Y902800D03*
X23400Y753600D03*
D12*
X450000Y960000D03*
D13*
X430000Y960000D03*
X410000Y960000D03*
X390000Y960000D03*
X370000Y960000D03*
X350000Y960000D03*
X330000Y960000D03*
X310000Y960000D03*
X290000Y960000D03*
X270000Y960000D03*
D16*
X41656Y497840D02*
X41656Y487680D01*
X55880Y473456D01*
X55880Y461264D02*
X55880Y417576D01*
X55880Y461264D02*
X55880Y473456D01*
X55880Y417576D02*
X66040Y407416D01*
X71120Y407416D01*
X78232Y400304D01*
X78232Y357632D01*
X67056Y346456D01*
X41656Y497840D02*
X41400Y498200D01*
X67056Y346456D02*
X66800Y345800D01*
X77216Y461264D02*
X55880Y461264D01*
X475774Y985774D02*
X694226Y985774D01*
X475774Y985774D02*
X450000Y960000D01*
X694226Y985774D02*
X720000Y960000D01*
D17*
X77216Y461264D03*
X300000Y450000D03*
D16*
X340000Y450000D01*
X350000Y440000D01*
D17*
X350000Y440000D03*
X534000Y477000D03*
D16*
X534000Y356000D01*
X540000Y350000D01*
D17*
X540000Y350000D03*
X440000Y400860D03*
X390000Y360000D03*
D16*
X438758Y399604D02*
X440000Y400860D01*
X438758Y399604D02*
X438245Y399604D01*
X435760Y399788D01*
X435546Y399604D01*
X435265Y399604D01*
X433503Y397842D01*
X407987Y375846D01*
X405750Y375846D01*
X401154Y371250D01*
X401154Y371154D01*
X390000Y360000D01*
D18*
X44704Y790448D02*
X44704Y808736D01*
X44704Y790448D02*
X183896Y651256D01*
X183896Y534416D01*
X298704Y419608D01*
X330200Y419608D01*
X44704Y808736D02*
X44600Y809300D01*
D17*
X330200Y419608D03*
D18*
X391206Y412000D02*
X247200Y562864D01*
X391206Y412000D02*
X410464Y412000D01*
X247200Y562864D02*
X244856Y796544D01*
X169926Y871474D01*
X105664Y871474D01*
D17*
X410464Y412000D03*
X105664Y871474D03*
D18*
X396900Y426720D02*
X423000Y426720D01*
X396900Y426720D02*
X396900Y422000D01*
X374000Y414400D02*
X335254Y414502D01*
X333248Y412496D01*
X299720Y412496D01*
X115824Y596392D01*
X115824Y703232D01*
X53528Y765528D01*
D17*
X423000Y426720D03*
X396900Y422000D03*
X374000Y414400D03*
X53528Y765528D03*
D16*
X43688Y834136D02*
X44600Y834700D01*
X23368Y753872D02*
X23400Y753600D01*
X101600Y890016D02*
X101600Y959104D01*
X101600Y890016D02*
X46736Y835152D01*
X101600Y959104D02*
X102600Y960000D01*
X46736Y835152D02*
X44600Y834700D01*
X310040Y564736D02*
X343408Y531368D01*
X343408Y530352D01*
X509016Y470408D02*
X509016Y405704D01*
X509016Y470408D02*
X472440Y506984D01*
X450088Y506984D01*
X430000Y486896D02*
X418592Y475488D01*
X430000Y486896D02*
X450088Y506984D01*
X418592Y475488D02*
X397256Y475488D01*
X344424Y528320D01*
X343408Y530352D01*
X160528Y889000D02*
X103632Y889000D01*
X160528Y889000D02*
X268224Y781304D01*
D19*
X269000Y547624D01*
X309880Y505968D01*
D16*
X311912Y505968D01*
X103632Y889000D02*
X101600Y890016D01*
D17*
X343408Y530352D03*
X310040Y564736D03*
X509016Y405704D03*
X311912Y505968D03*
X409000Y368000D03*
X430000Y470000D03*
D16*
X430000Y486896D01*
D17*
X453000Y391000D03*
D19*
X438000Y391000D02*
X409000Y368000D01*
D16*
X438000Y391000D02*
X453000Y391000D01*
X23400Y753600D02*
X13970Y763030D01*
X31242Y835152D02*
X46736Y835152D01*
X13970Y817880D02*
X13970Y763030D01*
X13970Y817880D02*
X31242Y835152D01*
D18*
X399288Y841248D02*
X399288Y588264D01*
D17*
X399288Y588264D03*
X399288Y841248D03*
D18*
X408432Y835152D02*
X408432Y589280D01*
D17*
X408432Y589280D03*
X408432Y835152D03*
D18*
X415544Y841248D02*
X415544Y561848D01*
D17*
X415544Y561848D03*
X415544Y841248D03*
D18*
X524792Y613184D02*
X524792Y588960D01*
X504792Y568960D01*
X524792Y613184D02*
X570992Y659384D01*
X570992Y663448D01*
X605536Y697992D01*
X647192Y697992D01*
X692912Y743712D01*
X899160Y870712D02*
X929640Y870712D01*
X899160Y870712D02*
X815848Y787400D01*
X737616Y787400D01*
X693928Y743712D01*
X929640Y870712D02*
X930000Y871400D01*
X693928Y743712D02*
X692912Y743712D01*
D17*
X504792Y568960D03*
X692912Y743712D03*
X646176Y637032D03*
D18*
X599760Y637032D01*
X585648Y622920D01*
X585648Y615112D01*
X485648Y515112D01*
D17*
X485648Y515112D03*
D18*
X850000Y800000D02*
X884000Y800000D01*
D17*
X850000Y800000D03*
D18*
X933866Y811266D02*
X939334Y816734D01*
X932507Y846000D02*
X930000Y846000D01*
X932507Y846000D02*
X939334Y839173D01*
X939334Y816734D01*
X895266Y811266D02*
X884000Y800000D01*
X895266Y811266D02*
X933866Y811266D01*
D17*
X780000Y680000D03*
D18*
X710000Y680000D01*
D17*
X710000Y680000D03*
D18*
X646552Y715104D02*
X616330Y715104D01*
X513000Y612910D02*
X513000Y603504D01*
X513000Y612910D02*
X616330Y715104D01*
X929640Y820928D02*
X929640Y833120D01*
X920496Y842264D01*
X920496Y850392D01*
X931672Y861568D01*
X933704Y861568D01*
X939800Y867664D01*
X939800Y875792D01*
X934720Y880872D01*
X887984Y880872D01*
X798576Y791464D01*
X693928Y791464D01*
X646552Y744088D01*
X929640Y820928D02*
X930000Y820600D01*
X646552Y744088D02*
X646552Y715104D01*
D17*
X513000Y603504D03*
X646552Y715104D03*
D18*
X479552Y624840D02*
X479552Y575056D01*
X479552Y624840D02*
X538640Y688000D01*
X700100Y811000D02*
X711200Y811784D01*
X700100Y811000D02*
X572300Y688000D01*
X538640Y688000D01*
D17*
X479552Y575056D03*
X538640Y688000D03*
X711200Y811784D03*
D18*
X472440Y695960D02*
X472440Y567944D01*
X472440Y695960D02*
X486664Y710184D01*
X690880Y818896D02*
X765688Y818896D01*
X690880Y818896D02*
X582168Y710184D01*
X486664Y710184D01*
D17*
X472440Y567944D03*
X486664Y710184D03*
X765688Y818896D03*
D18*
X364744Y574736D02*
X364744Y530352D01*
X364744Y574736D02*
X323944Y618536D01*
X930656Y891032D02*
X930656Y896112D01*
X930656Y891032D02*
X945896Y875792D01*
X945896Y842264D01*
X958088Y830072D01*
X960120Y830072D01*
X965200Y824992D01*
X965200Y766064D01*
X843280Y644144D01*
X635000Y644144D01*
X930000Y896800D02*
X930656Y896112D01*
D17*
X364744Y530352D03*
X323944Y618536D03*
X635000Y644144D03*
D18*
X376080Y508856D02*
X303784Y581152D01*
X303784Y633344D01*
X283464Y653664D01*
X660654Y887476D02*
X825020Y887476D01*
X832640Y895096D01*
X660654Y887476D02*
X635254Y862076D01*
X586232Y862076D01*
X432943Y685927D02*
X431546Y684530D01*
X432943Y708787D02*
X586232Y862076D01*
X432943Y708787D02*
X432943Y685927D01*
X422656Y647700D02*
X422656Y487680D01*
X422656Y647700D02*
X431546Y656590D01*
X431546Y684530D01*
X422656Y487680D02*
X416560Y481584D01*
X404368Y481584D01*
X377096Y508856D01*
X376080Y508856D01*
D17*
X376080Y508856D03*
X283464Y653664D03*
X832640Y895096D03*
D18*
X211008Y679008D02*
X191008Y699008D01*
X211008Y679008D02*
X211008Y640936D01*
X286512Y680720D02*
X402359Y568086D01*
X414000Y540532D01*
X414000Y512224D01*
X286512Y680720D02*
X286512Y740664D01*
X953008Y769112D02*
X955040Y769112D01*
X953008Y769112D02*
X835152Y651256D01*
X650240Y651256D01*
X955040Y769112D02*
X955400Y769800D01*
D17*
X191008Y699008D03*
X211008Y640936D03*
X414000Y512224D03*
X286512Y740664D03*
X650240Y651256D03*
D18*
X108712Y696976D02*
X98712Y686976D01*
X98712Y650936D01*
X413512Y499016D02*
X413512Y488696D01*
X413512Y499016D02*
X368808Y543720D01*
X368808Y586232D02*
X368808Y587248D01*
X368808Y586232D02*
X368808Y543720D01*
X368808Y587248D02*
X283464Y672592D01*
X955040Y783336D02*
X955040Y794512D01*
X955040Y783336D02*
X939800Y768096D01*
X939800Y762000D01*
X838708Y660908D01*
X584708Y660908D02*
X582168Y658368D01*
X584708Y660908D02*
X838708Y660908D01*
X955040Y794512D02*
X955400Y795200D01*
X369824Y586232D02*
X368808Y586232D01*
D17*
X108712Y696976D03*
X98712Y650936D03*
X413512Y488696D03*
X283464Y672592D03*
X582168Y658368D03*
X369824Y586232D03*
D18*
X81120Y650936D02*
X81120Y706976D01*
X237744Y572864D02*
X237744Y552864D01*
X301912Y488696D02*
X308864Y488696D01*
X301912Y488696D02*
X237744Y552864D01*
X955040Y808736D02*
X955040Y819912D01*
X955040Y808736D02*
X939800Y793496D01*
X939800Y791464D01*
X927608Y779272D01*
X744728Y779272D01*
X638048Y672592D01*
X596392Y672592D01*
X955040Y819912D02*
X955400Y820600D01*
D17*
X81120Y706976D03*
X81120Y650936D03*
X308864Y488696D03*
X237744Y572864D03*
X596392Y672592D03*
D16*
X642254Y802622D02*
X699168Y859536D01*
X642254Y802622D02*
X640000Y790000D01*
X961332Y629100D02*
X983996Y651764D01*
X961332Y629100D02*
X950000Y629100D01*
X983996Y651764D02*
X983996Y842772D01*
X956056Y870712D01*
X955400Y871400D01*
D17*
X699168Y859536D03*
D18*
X561304Y507304D02*
X701040Y355802D01*
X701040Y242824D02*
X701040Y228600D01*
X701040Y242824D02*
X701040Y277114D01*
X701040Y355802D01*
X701040Y228600D02*
X702000Y228000D01*
X885300Y228000D02*
X885300Y249826D01*
X858012Y277114D01*
X701040Y277114D01*
D17*
X561304Y507304D03*
D18*
X544512Y490352D02*
X544512Y359728D01*
X675640Y228600D01*
X676600Y228000D01*
X859900Y230540D02*
X859900Y201786D01*
X841756Y183642D01*
X683514Y183642D01*
X676600Y190556D02*
X676600Y228000D01*
X676600Y190556D02*
X683514Y183642D01*
D17*
X544512Y490352D03*
D16*
X251200Y21850D02*
X257048Y16002D01*
X251200Y21850D02*
X251200Y33200D01*
X257048Y16002D02*
X387858Y16002D01*
X599440Y227584D01*
X600400Y228000D01*
X845312Y932592D02*
X845312Y959104D01*
X846000Y960000D01*
X845312Y932592D02*
X669792Y932592D01*
X640000Y902800D01*
X296672Y588264D02*
X296672Y543560D01*
X299720Y540512D01*
X300000Y540000D01*
X40640Y458216D02*
X40640Y448056D01*
X40640Y458216D02*
X30480Y468376D01*
X30480Y520192D01*
X106680Y596392D01*
X40640Y448056D02*
X41400Y447400D01*
X275336Y808482D02*
X242824Y840994D01*
X232664Y840994D01*
X275336Y784352D02*
X275336Y610616D01*
X275336Y784352D02*
X275336Y808482D01*
X275336Y610616D02*
X295656Y590296D01*
X296672Y588264D01*
X631608Y911192D02*
X640000Y902800D01*
X631608Y911192D02*
X505554Y911192D01*
X458978Y864616D01*
X356616Y864616D01*
X277368Y785368D01*
X275336Y784352D01*
X251200Y33200D02*
X251200Y23040D01*
X245432Y17272D01*
X61299Y17272D01*
X20480Y58091D01*
X20480Y270000D02*
X20480Y401480D01*
X20480Y270000D02*
X20480Y58091D01*
X20480Y401480D02*
X40640Y421640D01*
X41400Y422000D01*
D17*
X296672Y588264D03*
X106680Y596392D03*
X805688Y808736D03*
D16*
X805688Y820166D01*
X845312Y859790D01*
X845312Y932592D01*
D20*
X232664Y840994D02*
X221800Y851858D01*
X221800Y853600D01*
D18*
X286000Y395000D02*
X392176Y395000D01*
X286192Y414848D02*
X282128Y414848D01*
X199136Y497840D01*
X67056Y497840D01*
X66800Y498200D01*
D17*
X392176Y395000D03*
X286000Y395000D03*
X286192Y414848D03*
D18*
X318008Y545592D02*
X422656Y441470D01*
D17*
X422656Y441470D03*
X318008Y545592D03*
D18*
X446880Y380304D02*
X474632Y380304D01*
X484632Y390304D01*
X446880Y380304D02*
X374584Y308008D01*
X278384Y308008D01*
D17*
X484632Y390304D03*
X278384Y308008D03*
D18*
X326136Y365760D02*
X369824Y365760D01*
X326136Y365760D02*
X305496Y345120D01*
D17*
X369824Y365760D03*
X305496Y345120D03*
D18*
X415544Y404000D02*
X434848Y428000D01*
X415544Y404000D02*
X283464Y404000D01*
X217424Y473456D01*
X56896Y387096D02*
X56896Y324104D01*
X56896Y387096D02*
X66040Y396240D01*
X66800Y396600D01*
D17*
X434848Y428000D03*
D18*
X57150Y323850D02*
X56896Y324104D01*
X200406Y473456D02*
X217424Y473456D01*
X200406Y473456D02*
X134620Y407670D01*
X134620Y354330D01*
X104140Y323850D01*
X57150Y323850D01*
X236728Y384048D02*
X375920Y384048D01*
X236728Y384048D02*
X221488Y368808D01*
D17*
X375920Y384048D03*
X221488Y368808D03*
D18*
X499000Y370241D02*
X499000Y461800D01*
X499000Y370241D02*
X210848Y80264D01*
D17*
X499000Y461800D03*
D16*
X210384Y79800D02*
X66800Y79800D01*
X210384Y79800D02*
X210848Y80264D01*
D18*
X491744Y476504D02*
X469392Y498856D01*
X491744Y476504D02*
X491744Y377256D01*
X220152Y105664D01*
X67056Y105664D01*
X66800Y105200D01*
D17*
X469392Y498856D03*
D18*
X449072Y488696D02*
X441960Y481584D01*
X441960Y423672D01*
X429144Y410856D02*
X395224Y376936D01*
X429144Y410856D02*
X441960Y423672D01*
X395224Y376936D02*
X312928Y376936D01*
X67056Y131064D01*
X66800Y130600D01*
D17*
X449072Y488696D03*
D18*
X477896Y478536D02*
X486664Y469768D01*
X477896Y478536D02*
X449072Y478950D01*
X486664Y469768D02*
X486664Y413672D01*
X457360Y384368D01*
X444848Y384368D01*
X385600Y325120D01*
X305656Y325120D01*
D17*
X449072Y478950D03*
X305656Y325120D03*
D18*
X214376Y329184D02*
X214376Y466344D01*
X214376Y329184D02*
X67056Y181864D01*
X66800Y181400D01*
D17*
X214376Y466344D03*
X207264Y453136D03*
D18*
X190000Y330000D02*
X66800Y206800D01*
X190000Y330000D02*
X190000Y340000D01*
X200000Y350000D01*
X207264Y428244D02*
X207264Y453136D01*
X200000Y420980D02*
X200000Y350000D01*
X200000Y420980D02*
X207264Y428244D01*
X193040Y431800D02*
X180152Y418912D01*
X193040Y431800D02*
X200152Y438912D01*
X180152Y418912D02*
X180152Y345760D01*
X67056Y232664D01*
X66800Y232200D01*
D17*
X200152Y438912D03*
D16*
X229616Y498856D02*
X229616Y789432D01*
X229616Y498856D02*
X256032Y472440D01*
X229616Y789432D02*
X229000Y790000D01*
D17*
X256032Y472440D03*
D18*
X341376Y92136D02*
X327400Y78160D01*
X327400Y58600D01*
D17*
X341376Y92136D03*
D18*
X348488Y130048D02*
X277368Y58928D01*
X276600Y58600D01*
D17*
X348488Y130048D03*
D18*
X378200Y88680D02*
X378200Y58600D01*
X378200Y88680D02*
X355600Y111280D01*
D17*
X355600Y111280D03*
D16*
X302768Y43688D02*
X302768Y33528D01*
X302768Y43688D02*
X315976Y56896D01*
X315976Y86360D01*
X521208Y291592D01*
X521208Y468376D01*
X464312Y525272D01*
X464312Y699008D01*
X608584Y843280D01*
X639064Y843280D01*
X302768Y33528D02*
X302000Y33200D01*
X639064Y843280D02*
X640000Y843600D01*
M02*
