G04 EAGLE Gerber RS-274X export*
G75*
%MOMM*%
%FSLAX34Y34*%
%LPD*%
%INSoldermask Top*%
%IPPOS*%
%AMOC8*
5,1,8,0,0,1.08239X$1,22.5*%
G01*
%ADD10C,0.753200*%
%ADD11P,2.969212X8X22.500000*%
%ADD12R,1.453200X1.153200*%
%ADD13R,1.453200X3.403200*%
%ADD14C,2.303200*%
%ADD15R,2.006200X1.803200*%
%ADD16R,1.511200X1.511200*%
%ADD17C,1.511200*%
%ADD18R,2.003200X1.803200*%
%ADD19R,1.803200X2.003200*%
%ADD20R,0.803200X0.803200*%
%ADD21C,2.082800*%
%ADD22R,1.678200X0.503200*%
%ADD23R,0.503200X1.678200*%
%ADD24C,1.879600*%
%ADD25R,1.803200X1.503200*%
%ADD26R,1.503200X1.803200*%
%ADD27R,1.203200X1.603200*%
%ADD28R,1.803400X1.041400*%
%ADD29R,1.803400X3.302000*%
%ADD30C,0.349006*%
%ADD31R,1.503200X1.503200*%
%ADD32R,1.604800X2.203200*%
%ADD33R,5.703200X2.203200*%
%ADD34C,0.959600*%


D10*
X969010Y40640D03*
X543560Y949960D03*
X231140Y191770D03*
D11*
X640000Y960000D03*
D12*
X726000Y887500D03*
X726000Y864500D03*
X726000Y841500D03*
D13*
X794000Y864500D03*
D14*
X950000Y524400D03*
X950000Y489400D03*
X950000Y664100D03*
X950000Y629100D03*
D11*
X640000Y790000D03*
X102600Y960000D03*
D15*
X800000Y595780D03*
X800000Y624220D03*
D16*
X41400Y79800D03*
D17*
X41400Y105200D03*
X41400Y130600D03*
X41400Y156000D03*
X41400Y181400D03*
X41400Y206800D03*
X41400Y232200D03*
X66800Y79800D03*
X66800Y105200D03*
X66800Y130600D03*
X66800Y156000D03*
X66800Y181400D03*
X66800Y206800D03*
X66800Y232200D03*
D18*
X270000Y364000D03*
X270000Y336000D03*
D19*
X805300Y790000D03*
X777300Y790000D03*
X700900Y790000D03*
X728900Y790000D03*
X366000Y790000D03*
X394000Y790000D03*
X286000Y790000D03*
X314000Y790000D03*
X476000Y790000D03*
X504000Y790000D03*
X584000Y790000D03*
X556000Y790000D03*
D18*
X660000Y399000D03*
X660000Y371000D03*
X620000Y399000D03*
X620000Y371000D03*
X580000Y399000D03*
X580000Y371000D03*
X490000Y596000D03*
X490000Y624000D03*
X440000Y596000D03*
X440000Y624000D03*
X430000Y364000D03*
X430000Y336000D03*
X470000Y364000D03*
X470000Y336000D03*
X320000Y471000D03*
X320000Y443000D03*
D20*
X331000Y408000D03*
X309000Y408000D03*
D21*
X936100Y228000D03*
X910700Y230540D03*
X885300Y228000D03*
X859900Y230540D03*
X834500Y228000D03*
X809100Y230540D03*
D16*
X225800Y58600D03*
D17*
X251200Y58600D03*
X276600Y58600D03*
X302000Y58600D03*
X327400Y58600D03*
X352800Y58600D03*
X378200Y58600D03*
X225800Y33200D03*
X251200Y33200D03*
X276600Y33200D03*
X302000Y33200D03*
X327400Y33200D03*
X352800Y33200D03*
X378200Y33200D03*
D11*
X474200Y58600D03*
X720000Y960000D03*
X615000Y610000D03*
X778800Y960000D03*
X962600Y412800D03*
X542500Y58600D03*
D15*
X740000Y595780D03*
X740000Y624220D03*
D22*
X399620Y508500D03*
X399620Y503500D03*
X399620Y498500D03*
X399620Y493500D03*
X399620Y488500D03*
X399620Y483500D03*
X399620Y478500D03*
X399620Y473500D03*
X399620Y468500D03*
X399620Y463500D03*
X399620Y458500D03*
X399620Y453500D03*
X399620Y448500D03*
X399620Y443500D03*
X399620Y438500D03*
X399620Y433500D03*
D23*
X419500Y413620D03*
X424500Y413620D03*
X429500Y413620D03*
X434500Y413620D03*
X439500Y413620D03*
X444500Y413620D03*
X449500Y413620D03*
X454500Y413620D03*
X459500Y413620D03*
X464500Y413620D03*
X469500Y413620D03*
X474500Y413620D03*
X479500Y413620D03*
X484500Y413620D03*
X489500Y413620D03*
X494500Y413620D03*
D22*
X514380Y433500D03*
X514380Y438500D03*
X514380Y443500D03*
X514380Y448500D03*
X514380Y453500D03*
X514380Y458500D03*
X514380Y463500D03*
X514380Y468500D03*
X514380Y473500D03*
X514380Y478500D03*
X514380Y483500D03*
X514380Y488500D03*
X514380Y493500D03*
X514380Y498500D03*
X514380Y503500D03*
X514380Y508500D03*
D23*
X494500Y528380D03*
X489500Y528380D03*
X484500Y528380D03*
X479500Y528380D03*
X474500Y528380D03*
X469500Y528380D03*
X464500Y528380D03*
X459500Y528380D03*
X454500Y528380D03*
X449500Y528380D03*
X444500Y528380D03*
X439500Y528380D03*
X434500Y528380D03*
X429500Y528380D03*
X424500Y528380D03*
X419500Y528380D03*
D24*
X52982Y809300D02*
X36218Y809300D01*
X36218Y834700D02*
X52982Y834700D01*
X52982Y860100D02*
X36218Y860100D01*
X36218Y885500D02*
X52982Y885500D01*
X52982Y910900D02*
X36218Y910900D01*
X36218Y936300D02*
X52982Y936300D01*
D21*
X160000Y960000D03*
X185400Y960000D03*
D16*
X66800Y498200D03*
D17*
X66800Y472800D03*
X66800Y447400D03*
X66800Y422000D03*
X66800Y396600D03*
X66800Y371200D03*
X66800Y345800D03*
X41400Y498200D03*
X41400Y472800D03*
X41400Y447400D03*
X41400Y422000D03*
X41400Y396600D03*
X41400Y371200D03*
X41400Y345800D03*
D16*
X930000Y769800D03*
D17*
X930000Y795200D03*
X930000Y820600D03*
X930000Y846000D03*
X930000Y871400D03*
X930000Y896800D03*
X930000Y922200D03*
X955400Y769800D03*
X955400Y795200D03*
X955400Y820600D03*
X955400Y846000D03*
X955400Y871400D03*
X955400Y896800D03*
X955400Y922200D03*
D21*
X752800Y228000D03*
X727400Y228000D03*
X702000Y228000D03*
X676600Y228000D03*
X651200Y228000D03*
X625800Y228000D03*
X600400Y228000D03*
X575000Y228000D03*
X549600Y228000D03*
X524200Y228000D03*
D11*
X221800Y853600D03*
X229000Y790000D03*
X640000Y902800D03*
X846000Y960000D03*
X640000Y843600D03*
X225500Y960000D03*
X300000Y540000D03*
X458500Y902800D03*
D25*
X270000Y447500D03*
X270000Y466500D03*
X680000Y530500D03*
X680000Y549500D03*
X740000Y530500D03*
X740000Y549500D03*
X500000Y705500D03*
X500000Y724500D03*
X300000Y600500D03*
X300000Y619500D03*
X560000Y705500D03*
X560000Y724500D03*
X240000Y600500D03*
X240000Y619500D03*
X620000Y705500D03*
X620000Y724500D03*
X180000Y600500D03*
X180000Y619500D03*
X680000Y705500D03*
X680000Y724500D03*
X120000Y600500D03*
X120000Y619500D03*
X740000Y705500D03*
X740000Y724500D03*
X60000Y600500D03*
X60000Y619500D03*
X800000Y530500D03*
X800000Y549500D03*
D26*
X150500Y890000D03*
X169500Y890000D03*
D15*
X680000Y595780D03*
X680000Y624220D03*
D27*
X300000Y704000D03*
X290500Y726000D03*
X309500Y726000D03*
X240000Y704000D03*
X230500Y726000D03*
X249500Y726000D03*
X180000Y704000D03*
X170500Y726000D03*
X189500Y726000D03*
X120000Y704000D03*
X110500Y726000D03*
X129500Y726000D03*
X60000Y704000D03*
X50500Y726000D03*
X69500Y726000D03*
D28*
X287996Y887614D03*
X287996Y864500D03*
X287996Y841386D03*
D29*
X352004Y864500D03*
D30*
X506129Y881329D02*
X524371Y881329D01*
X506129Y881329D02*
X506129Y885771D01*
X524371Y885771D01*
X524371Y881329D01*
X524371Y884644D02*
X506129Y884644D01*
X506129Y868629D02*
X524371Y868629D01*
X506129Y868629D02*
X506129Y873071D01*
X524371Y873071D01*
X524371Y868629D01*
X524371Y871944D02*
X506129Y871944D01*
X506129Y855929D02*
X524371Y855929D01*
X506129Y855929D02*
X506129Y860371D01*
X524371Y860371D01*
X524371Y855929D01*
X524371Y859244D02*
X506129Y859244D01*
X506129Y843229D02*
X524371Y843229D01*
X506129Y843229D02*
X506129Y847671D01*
X524371Y847671D01*
X524371Y843229D01*
X524371Y846544D02*
X506129Y846544D01*
X555629Y843229D02*
X573871Y843229D01*
X555629Y843229D02*
X555629Y847671D01*
X573871Y847671D01*
X573871Y843229D01*
X573871Y846544D02*
X555629Y846544D01*
X555629Y855929D02*
X573871Y855929D01*
X555629Y855929D02*
X555629Y860371D01*
X573871Y860371D01*
X573871Y855929D01*
X573871Y859244D02*
X555629Y859244D01*
X555629Y868629D02*
X573871Y868629D01*
X555629Y868629D02*
X555629Y873071D01*
X573871Y873071D01*
X573871Y868629D01*
X573871Y871944D02*
X555629Y871944D01*
X555629Y881329D02*
X573871Y881329D01*
X555629Y881329D02*
X555629Y885771D01*
X573871Y885771D01*
X573871Y881329D01*
X573871Y884644D02*
X555629Y884644D01*
D11*
X23400Y753600D03*
D31*
X158500Y482400D03*
D32*
X170000Y424615D03*
D31*
X181500Y482400D03*
X148500Y837400D03*
D32*
X160000Y779615D03*
D31*
X171500Y837400D03*
D33*
X572500Y463100D03*
X667500Y463100D03*
D16*
X450000Y960000D03*
D17*
X430000Y960000D03*
X410000Y960000D03*
X390000Y960000D03*
X370000Y960000D03*
X350000Y960000D03*
X330000Y960000D03*
X310000Y960000D03*
X290000Y960000D03*
X270000Y960000D03*
D34*
X77216Y461264D03*
X300000Y450000D03*
X350000Y440000D03*
X534000Y477000D03*
X540000Y350000D03*
X440000Y400860D03*
X390000Y360000D03*
X330200Y419608D03*
X410464Y412000D03*
X105664Y871474D03*
X423000Y426720D03*
X396900Y422000D03*
X374000Y414400D03*
X53528Y765528D03*
X343408Y530352D03*
X310040Y564736D03*
X509016Y405704D03*
X311912Y505968D03*
X409000Y368000D03*
X430000Y470000D03*
X453000Y391000D03*
X399288Y588264D03*
X399288Y841248D03*
X408432Y589280D03*
X408432Y835152D03*
X415544Y561848D03*
X415544Y841248D03*
X504792Y568960D03*
X692912Y743712D03*
X646176Y637032D03*
X485648Y515112D03*
X850000Y800000D03*
X780000Y680000D03*
X710000Y680000D03*
X513000Y603504D03*
X646552Y715104D03*
X479552Y575056D03*
X538640Y688000D03*
X711200Y811784D03*
X472440Y567944D03*
X486664Y710184D03*
X765688Y818896D03*
X364744Y530352D03*
X323944Y618536D03*
X635000Y644144D03*
X376080Y508856D03*
X283464Y653664D03*
X832640Y895096D03*
X191008Y699008D03*
X211008Y640936D03*
X414000Y512224D03*
X286512Y740664D03*
X650240Y651256D03*
X108712Y696976D03*
X98712Y650936D03*
X413512Y488696D03*
X283464Y672592D03*
X582168Y658368D03*
X369824Y586232D03*
X81120Y706976D03*
X81120Y650936D03*
X308864Y488696D03*
X237744Y572864D03*
X596392Y672592D03*
X699168Y859536D03*
X561304Y507304D03*
X544512Y490352D03*
X296672Y588264D03*
X106680Y596392D03*
X805688Y808736D03*
X392176Y395000D03*
X286000Y395000D03*
X286192Y414848D03*
X422656Y441470D03*
X318008Y545592D03*
X484632Y390304D03*
X278384Y308008D03*
X369824Y365760D03*
X305496Y345120D03*
X434848Y428000D03*
X375920Y384048D03*
X221488Y368808D03*
X499000Y461800D03*
X469392Y498856D03*
X449072Y488696D03*
X449072Y478950D03*
X305656Y325120D03*
X214376Y466344D03*
X207264Y453136D03*
X200152Y438912D03*
X256032Y472440D03*
X341376Y92136D03*
X348488Y130048D03*
X355600Y111280D03*
M02*
