G04 EAGLE Gerber RS-274X export*
G75*
%MOMM*%
%FSLAX34Y34*%
%LPD*%
%INSolderpaste Top*%
%IPPOS*%
%AMOC8*
5,1,8,0,0,1.08239X$1,22.5*%
G01*
%ADD10R,1.250000X0.950000*%
%ADD11R,1.250000X3.200000*%
%ADD12R,1.803000X1.600000*%
%ADD13R,1.800000X1.600000*%
%ADD14R,1.600000X1.800000*%
%ADD15R,0.600000X0.600000*%
%ADD16R,1.475000X0.300000*%
%ADD17R,0.300000X1.475000*%
%ADD18R,1.600000X1.300000*%
%ADD19R,1.300000X1.600000*%
%ADD20R,1.000000X1.400000*%
%ADD21R,1.600200X0.838200*%
%ADD22R,1.600200X3.098800*%
%ADD23C,0.147500*%
%ADD24R,1.300000X1.300000*%
%ADD25R,1.401600X2.000000*%
%ADD26R,5.500000X2.000000*%


D10*
X726000Y887500D03*
X726000Y864500D03*
X726000Y841500D03*
D11*
X794000Y864500D03*
D12*
X800000Y595780D03*
X800000Y624220D03*
D13*
X270000Y364000D03*
X270000Y336000D03*
D14*
X805300Y790000D03*
X777300Y790000D03*
X700900Y790000D03*
X728900Y790000D03*
X366000Y790000D03*
X394000Y790000D03*
X286000Y790000D03*
X314000Y790000D03*
X476000Y790000D03*
X504000Y790000D03*
X584000Y790000D03*
X556000Y790000D03*
D13*
X660000Y399000D03*
X660000Y371000D03*
X620000Y399000D03*
X620000Y371000D03*
X580000Y399000D03*
X580000Y371000D03*
X490000Y596000D03*
X490000Y624000D03*
X440000Y596000D03*
X440000Y624000D03*
X430000Y364000D03*
X430000Y336000D03*
X470000Y364000D03*
X470000Y336000D03*
X320000Y471000D03*
X320000Y443000D03*
D15*
X331000Y408000D03*
X309000Y408000D03*
D12*
X740000Y595780D03*
X740000Y624220D03*
D16*
X399620Y508500D03*
X399620Y503500D03*
X399620Y498500D03*
X399620Y493500D03*
X399620Y488500D03*
X399620Y483500D03*
X399620Y478500D03*
X399620Y473500D03*
X399620Y468500D03*
X399620Y463500D03*
X399620Y458500D03*
X399620Y453500D03*
X399620Y448500D03*
X399620Y443500D03*
X399620Y438500D03*
X399620Y433500D03*
D17*
X419500Y413620D03*
X424500Y413620D03*
X429500Y413620D03*
X434500Y413620D03*
X439500Y413620D03*
X444500Y413620D03*
X449500Y413620D03*
X454500Y413620D03*
X459500Y413620D03*
X464500Y413620D03*
X469500Y413620D03*
X474500Y413620D03*
X479500Y413620D03*
X484500Y413620D03*
X489500Y413620D03*
X494500Y413620D03*
D16*
X514380Y433500D03*
X514380Y438500D03*
X514380Y443500D03*
X514380Y448500D03*
X514380Y453500D03*
X514380Y458500D03*
X514380Y463500D03*
X514380Y468500D03*
X514380Y473500D03*
X514380Y478500D03*
X514380Y483500D03*
X514380Y488500D03*
X514380Y493500D03*
X514380Y498500D03*
X514380Y503500D03*
X514380Y508500D03*
D17*
X494500Y528380D03*
X489500Y528380D03*
X484500Y528380D03*
X479500Y528380D03*
X474500Y528380D03*
X469500Y528380D03*
X464500Y528380D03*
X459500Y528380D03*
X454500Y528380D03*
X449500Y528380D03*
X444500Y528380D03*
X439500Y528380D03*
X434500Y528380D03*
X429500Y528380D03*
X424500Y528380D03*
X419500Y528380D03*
D18*
X270000Y447500D03*
X270000Y466500D03*
X680000Y530500D03*
X680000Y549500D03*
X740000Y530500D03*
X740000Y549500D03*
X500000Y705500D03*
X500000Y724500D03*
X300000Y600500D03*
X300000Y619500D03*
X560000Y705500D03*
X560000Y724500D03*
X240000Y600500D03*
X240000Y619500D03*
X620000Y705500D03*
X620000Y724500D03*
X180000Y600500D03*
X180000Y619500D03*
X680000Y705500D03*
X680000Y724500D03*
X120000Y600500D03*
X120000Y619500D03*
X740000Y705500D03*
X740000Y724500D03*
X60000Y600500D03*
X60000Y619500D03*
X800000Y530500D03*
X800000Y549500D03*
D19*
X150500Y890000D03*
X169500Y890000D03*
D12*
X680000Y595780D03*
X680000Y624220D03*
D20*
X300000Y704000D03*
X290500Y726000D03*
X309500Y726000D03*
X240000Y704000D03*
X230500Y726000D03*
X249500Y726000D03*
X180000Y704000D03*
X170500Y726000D03*
X189500Y726000D03*
X120000Y704000D03*
X110500Y726000D03*
X129500Y726000D03*
X60000Y704000D03*
X50500Y726000D03*
X69500Y726000D03*
D21*
X287996Y887614D03*
X287996Y864500D03*
X287996Y841386D03*
D22*
X352004Y864500D03*
D23*
X506137Y881337D02*
X524363Y881337D01*
X506137Y881337D02*
X506137Y885763D01*
X524363Y885763D01*
X524363Y881337D01*
X524363Y882738D02*
X506137Y882738D01*
X506137Y884139D02*
X524363Y884139D01*
X524363Y885540D02*
X506137Y885540D01*
X506137Y868637D02*
X524363Y868637D01*
X506137Y868637D02*
X506137Y873063D01*
X524363Y873063D01*
X524363Y868637D01*
X524363Y870038D02*
X506137Y870038D01*
X506137Y871439D02*
X524363Y871439D01*
X524363Y872840D02*
X506137Y872840D01*
X506137Y855937D02*
X524363Y855937D01*
X506137Y855937D02*
X506137Y860363D01*
X524363Y860363D01*
X524363Y855937D01*
X524363Y857338D02*
X506137Y857338D01*
X506137Y858739D02*
X524363Y858739D01*
X524363Y860140D02*
X506137Y860140D01*
X506137Y843237D02*
X524363Y843237D01*
X506137Y843237D02*
X506137Y847663D01*
X524363Y847663D01*
X524363Y843237D01*
X524363Y844638D02*
X506137Y844638D01*
X506137Y846039D02*
X524363Y846039D01*
X524363Y847440D02*
X506137Y847440D01*
X555637Y843237D02*
X573863Y843237D01*
X555637Y843237D02*
X555637Y847663D01*
X573863Y847663D01*
X573863Y843237D01*
X573863Y844638D02*
X555637Y844638D01*
X555637Y846039D02*
X573863Y846039D01*
X573863Y847440D02*
X555637Y847440D01*
X555637Y855937D02*
X573863Y855937D01*
X555637Y855937D02*
X555637Y860363D01*
X573863Y860363D01*
X573863Y855937D01*
X573863Y857338D02*
X555637Y857338D01*
X555637Y858739D02*
X573863Y858739D01*
X573863Y860140D02*
X555637Y860140D01*
X555637Y868637D02*
X573863Y868637D01*
X555637Y868637D02*
X555637Y873063D01*
X573863Y873063D01*
X573863Y868637D01*
X573863Y870038D02*
X555637Y870038D01*
X555637Y871439D02*
X573863Y871439D01*
X573863Y872840D02*
X555637Y872840D01*
X555637Y881337D02*
X573863Y881337D01*
X555637Y881337D02*
X555637Y885763D01*
X573863Y885763D01*
X573863Y881337D01*
X573863Y882738D02*
X555637Y882738D01*
X555637Y884139D02*
X573863Y884139D01*
X573863Y885540D02*
X555637Y885540D01*
D24*
X158500Y482400D03*
D25*
X170000Y424615D03*
D24*
X181500Y482400D03*
X148500Y837400D03*
D25*
X160000Y779615D03*
D24*
X171500Y837400D03*
D26*
X572500Y463100D03*
X667500Y463100D03*
M02*
