G04 EAGLE Gerber RS-274X export*
G75*
%MOMM*%
%FSLAX34Y34*%
%LPD*%
%INSoldermask Bottom*%
%IPPOS*%
%AMOC8*
5,1,8,0,0,1.08239X$1,22.5*%
G01*
%ADD10C,0.753200*%
%ADD11P,2.969212X8X22.500000*%
%ADD12C,2.303200*%
%ADD13R,1.511200X1.511200*%
%ADD14C,1.511200*%
%ADD15C,2.082800*%
%ADD16C,1.879600*%
%ADD17C,0.959600*%


D10*
X969010Y40640D03*
X543560Y949960D03*
X231140Y191770D03*
D11*
X640000Y960000D03*
D12*
X950000Y524400D03*
X950000Y489400D03*
X950000Y664100D03*
X950000Y629100D03*
D11*
X640000Y790000D03*
X102600Y960000D03*
D13*
X41400Y79800D03*
D14*
X41400Y105200D03*
X41400Y130600D03*
X41400Y156000D03*
X41400Y181400D03*
X41400Y206800D03*
X41400Y232200D03*
X66800Y79800D03*
X66800Y105200D03*
X66800Y130600D03*
X66800Y156000D03*
X66800Y181400D03*
X66800Y206800D03*
X66800Y232200D03*
D15*
X936100Y228000D03*
X910700Y230540D03*
X885300Y228000D03*
X859900Y230540D03*
X834500Y228000D03*
X809100Y230540D03*
D13*
X225800Y58600D03*
D14*
X251200Y58600D03*
X276600Y58600D03*
X302000Y58600D03*
X327400Y58600D03*
X352800Y58600D03*
X378200Y58600D03*
X225800Y33200D03*
X251200Y33200D03*
X276600Y33200D03*
X302000Y33200D03*
X327400Y33200D03*
X352800Y33200D03*
X378200Y33200D03*
D11*
X474200Y58600D03*
X720000Y960000D03*
X615000Y610000D03*
X778800Y960000D03*
X962600Y412800D03*
X542500Y58600D03*
D16*
X52982Y809300D02*
X36218Y809300D01*
X36218Y834700D02*
X52982Y834700D01*
X52982Y860100D02*
X36218Y860100D01*
X36218Y885500D02*
X52982Y885500D01*
X52982Y910900D02*
X36218Y910900D01*
X36218Y936300D02*
X52982Y936300D01*
D15*
X160000Y960000D03*
X185400Y960000D03*
D13*
X66800Y498200D03*
D14*
X66800Y472800D03*
X66800Y447400D03*
X66800Y422000D03*
X66800Y396600D03*
X66800Y371200D03*
X66800Y345800D03*
X41400Y498200D03*
X41400Y472800D03*
X41400Y447400D03*
X41400Y422000D03*
X41400Y396600D03*
X41400Y371200D03*
X41400Y345800D03*
D13*
X930000Y769800D03*
D14*
X930000Y795200D03*
X930000Y820600D03*
X930000Y846000D03*
X930000Y871400D03*
X930000Y896800D03*
X930000Y922200D03*
X955400Y769800D03*
X955400Y795200D03*
X955400Y820600D03*
X955400Y846000D03*
X955400Y871400D03*
X955400Y896800D03*
X955400Y922200D03*
D15*
X752800Y228000D03*
X727400Y228000D03*
X702000Y228000D03*
X676600Y228000D03*
X651200Y228000D03*
X625800Y228000D03*
X600400Y228000D03*
X575000Y228000D03*
X549600Y228000D03*
X524200Y228000D03*
D11*
X221800Y853600D03*
X229000Y790000D03*
X640000Y902800D03*
X846000Y960000D03*
X640000Y843600D03*
X225500Y960000D03*
X300000Y540000D03*
X458500Y902800D03*
X23400Y753600D03*
D13*
X450000Y960000D03*
D14*
X430000Y960000D03*
X410000Y960000D03*
X390000Y960000D03*
X370000Y960000D03*
X350000Y960000D03*
X330000Y960000D03*
X310000Y960000D03*
X290000Y960000D03*
X270000Y960000D03*
D17*
X77216Y461264D03*
X300000Y450000D03*
X350000Y440000D03*
X534000Y477000D03*
X540000Y350000D03*
X440000Y400860D03*
X390000Y360000D03*
X330200Y419608D03*
X410464Y412000D03*
X105664Y871474D03*
X423000Y426720D03*
X396900Y422000D03*
X374000Y414400D03*
X53528Y765528D03*
X343408Y530352D03*
X310040Y564736D03*
X509016Y405704D03*
X311912Y505968D03*
X409000Y368000D03*
X430000Y470000D03*
X453000Y391000D03*
X399288Y588264D03*
X399288Y841248D03*
X408432Y589280D03*
X408432Y835152D03*
X415544Y561848D03*
X415544Y841248D03*
X504792Y568960D03*
X692912Y743712D03*
X646176Y637032D03*
X485648Y515112D03*
X850000Y800000D03*
X780000Y680000D03*
X710000Y680000D03*
X513000Y603504D03*
X646552Y715104D03*
X479552Y575056D03*
X538640Y688000D03*
X711200Y811784D03*
X472440Y567944D03*
X486664Y710184D03*
X765688Y818896D03*
X364744Y530352D03*
X323944Y618536D03*
X635000Y644144D03*
X376080Y508856D03*
X283464Y653664D03*
X832640Y895096D03*
X191008Y699008D03*
X211008Y640936D03*
X414000Y512224D03*
X286512Y740664D03*
X650240Y651256D03*
X108712Y696976D03*
X98712Y650936D03*
X413512Y488696D03*
X283464Y672592D03*
X582168Y658368D03*
X369824Y586232D03*
X81120Y706976D03*
X81120Y650936D03*
X308864Y488696D03*
X237744Y572864D03*
X596392Y672592D03*
X699168Y859536D03*
X561304Y507304D03*
X544512Y490352D03*
X296672Y588264D03*
X106680Y596392D03*
X805688Y808736D03*
X392176Y395000D03*
X286000Y395000D03*
X286192Y414848D03*
X422656Y441470D03*
X318008Y545592D03*
X484632Y390304D03*
X278384Y308008D03*
X369824Y365760D03*
X305496Y345120D03*
X434848Y428000D03*
X375920Y384048D03*
X221488Y368808D03*
X499000Y461800D03*
X469392Y498856D03*
X449072Y488696D03*
X449072Y478950D03*
X305656Y325120D03*
X214376Y466344D03*
X207264Y453136D03*
X200152Y438912D03*
X256032Y472440D03*
X341376Y92136D03*
X348488Y130048D03*
X355600Y111280D03*
M02*
